<ttFont>
    <TTGlyph name=".notdef" xMin="50" yMin="0" xMax="700" yMax="700">
      <contour>
        <pt x="50" y="700" on="1"/>
        <pt x="700" y="700" on="1"/>
        <pt x="700" y="0" on="1"/>
        <pt x="50" y="0" on="1"/>
      </contour>
      <contour>
        <pt x="570" y="620" on="1"/>
        <pt x="375" y="403" on="1"/>
        <pt x="180" y="620" on="1"/>
        <pt x="130" y="570" on="1"/>
        <pt x="327" y="350" on="1"/>
        <pt x="130" y="130" on="1"/>
        <pt x="180" y="80" on="1"/>
        <pt x="375" y="297" on="1"/>
        <pt x="570" y="80" on="1"/>
        <pt x="620" y="130" on="1"/>
        <pt x="422" y="350" on="1"/>
        <pt x="620" y="570" on="1"/>
      </contour>
      <contour>
        <pt x="129" y="27" on="1"/>
        <pt x="137" y="27" on="1"/>
        <pt x="137" y="39" on="1"/>
        <pt x="141" y="39" on="1"/>
        <pt x="147" y="39" on="0"/>
        <pt x="157" y="44" on="0"/>
        <pt x="157" y="51" on="1"/>
        <pt x="157" y="59" on="0"/>
        <pt x="146" y="63" on="0"/>
        <pt x="140" y="63" on="1"/>
        <pt x="129" y="63" on="1"/>
      </contour>
      <contour>
        <pt x="141" y="57" on="1"/>
        <pt x="149" y="57" on="0"/>
        <pt x="149" y="52" on="1"/>
        <pt x="149" y="47" on="0"/>
        <pt x="144" y="46" on="0"/>
        <pt x="140" y="46" on="1"/>
        <pt x="137" y="46" on="1"/>
        <pt x="137" y="57" on="1"/>
      </contour>
      <contour>
        <pt x="189" y="63" on="1"/>
        <pt x="158" y="63" on="1"/>
        <pt x="158" y="57" on="1"/>
        <pt x="170" y="57" on="1"/>
        <pt x="170" y="27" on="1"/>
        <pt x="177" y="27" on="1"/>
        <pt x="177" y="57" on="1"/>
        <pt x="189" y="57" on="1"/>
      </contour>
      <contour>
        <pt x="222" y="37" on="1"/>
        <pt x="222" y="33" on="0"/>
        <pt x="215" y="33" on="1"/>
        <pt x="208" y="33" on="0"/>
        <pt x="206" y="35" on="1"/>
        <pt x="203" y="28" on="1"/>
        <pt x="205" y="28" on="0"/>
        <pt x="211" y="26" on="0"/>
        <pt x="216" y="26" on="1"/>
        <pt x="230" y="26" on="0"/>
        <pt x="230" y="38" on="1"/>
        <pt x="230" y="47" on="0"/>
        <pt x="212" y="49" on="0"/>
        <pt x="212" y="54" on="1"/>
        <pt x="212" y="57" on="0"/>
        <pt x="218" y="57" on="1"/>
        <pt x="223" y="57" on="0"/>
        <pt x="227" y="55" on="1"/>
        <pt x="229" y="62" on="1"/>
        <pt x="223" y="64" on="0"/>
        <pt x="218" y="64" on="1"/>
        <pt x="204" y="64" on="0"/>
        <pt x="204" y="53" on="1"/>
        <pt x="204" y="48" on="0"/>
        <pt x="210" y="44" on="0"/>
        <pt x="216" y="41" on="0"/>
        <pt x="222" y="39" on="0"/>
      </contour>
      <contour>
        <pt x="237" y="47" on="1"/>
        <pt x="241" y="49" on="0"/>
        <pt x="246" y="49" on="1"/>
        <pt x="251" y="49" on="0"/>
        <pt x="251" y="45" on="1"/>
        <pt x="251" y="43" on="1"/>
        <pt x="250" y="43" on="0"/>
        <pt x="248" y="44" on="0"/>
        <pt x="246" y="44" on="1"/>
        <pt x="234" y="44" on="0"/>
        <pt x="234" y="34" on="1"/>
        <pt x="234" y="26" on="0"/>
        <pt x="242" y="26" on="1"/>
        <pt x="248" y="26" on="0"/>
        <pt x="251" y="31" on="1"/>
        <pt x="253" y="27" on="1"/>
        <pt x="259" y="27" on="1"/>
        <pt x="258" y="29" on="0"/>
        <pt x="258" y="34" on="1"/>
        <pt x="258" y="45" on="1"/>
        <pt x="258" y="55" on="0"/>
        <pt x="248" y="55" on="1"/>
        <pt x="244" y="55" on="0"/>
        <pt x="237" y="53" on="0"/>
        <pt x="235" y="52" on="1"/>
      </contour>
      <contour>
        <pt x="245" y="32" on="1"/>
        <pt x="241" y="32" on="0"/>
        <pt x="241" y="36" on="1"/>
        <pt x="241" y="40" on="0"/>
        <pt x="246" y="40" on="1"/>
        <pt x="248" y="40" on="0"/>
        <pt x="250" y="39" on="0"/>
        <pt x="251" y="39" on="1"/>
        <pt x="251" y="36" on="1"/>
        <pt x="249" y="32" on="0"/>
      </contour>
      <contour>
        <pt x="292" y="27" on="1"/>
        <pt x="292" y="43" on="1"/>
        <pt x="292" y="55" on="0"/>
        <pt x="283" y="55" on="1"/>
        <pt x="276" y="55" on="0"/>
        <pt x="273" y="50" on="1"/>
        <pt x="271" y="54" on="1"/>
        <pt x="266" y="54" on="1"/>
        <pt x="266" y="27" on="1"/>
        <pt x="273" y="27" on="1"/>
        <pt x="273" y="44" on="1"/>
        <pt x="275" y="48" on="0"/>
        <pt x="279" y="48" on="1"/>
        <pt x="284" y="48" on="0"/>
        <pt x="284" y="42" on="1"/>
        <pt x="284" y="27" on="1"/>
      </contour>
      <contour>
        <pt x="297" y="28" on="1"/>
        <pt x="301" y="26" on="0"/>
        <pt x="307" y="26" on="1"/>
        <pt x="318" y="26" on="0"/>
        <pt x="318" y="35" on="1"/>
        <pt x="318" y="40" on="0"/>
        <pt x="313" y="42" on="0"/>
        <pt x="310" y="44" on="1"/>
        <pt x="305" y="46" on="0"/>
        <pt x="305" y="47" on="1"/>
        <pt x="305" y="49" on="0"/>
        <pt x="308" y="49" on="1"/>
        <pt x="312" y="49" on="0"/>
        <pt x="316" y="47" on="1"/>
        <pt x="318" y="53" on="1"/>
        <pt x="314" y="55" on="0"/>
        <pt x="308" y="55" on="1"/>
        <pt x="298" y="55" on="0"/>
        <pt x="298" y="46" on="1"/>
        <pt x="298" y="41" on="0"/>
        <pt x="304" y="38" on="0"/>
        <pt x="306" y="37" on="1"/>
        <pt x="311" y="37" on="0"/>
        <pt x="311" y="34" on="1"/>
        <pt x="311" y="32" on="0"/>
        <pt x="308" y="32" on="1"/>
        <pt x="303" y="32" on="0"/>
        <pt x="299" y="34" on="1"/>
      </contour>
      <contour>
        <pt x="338" y="42" on="1"/>
        <pt x="338" y="21" on="0"/>
        <pt x="358" y="21" on="1"/>
        <pt x="378" y="21" on="0"/>
        <pt x="378" y="42" on="1"/>
        <pt x="378" y="62" on="0"/>
        <pt x="358" y="62" on="1"/>
        <pt x="350" y="62" on="0"/>
        <pt x="338" y="51" on="0"/>
      </contour>
      <contour>
        <pt x="344" y="42" on="1"/>
        <pt x="344" y="57" on="0"/>
        <pt x="358" y="57" on="1"/>
        <pt x="372" y="57" on="0"/>
        <pt x="372" y="42" on="1"/>
        <pt x="372" y="27" on="0"/>
        <pt x="358" y="27" on="1"/>
        <pt x="344" y="27" on="0"/>
      </contour>
      <contour>
        <pt x="364" y="38" on="1"/>
        <pt x="362" y="37" on="0"/>
        <pt x="360" y="37" on="1"/>
        <pt x="356" y="37" on="0"/>
        <pt x="356" y="42" on="1"/>
        <pt x="356" y="46" on="0"/>
        <pt x="360" y="46" on="1"/>
        <pt x="363" y="46" on="1"/>
        <pt x="365" y="50" on="1"/>
        <pt x="361" y="52" on="0"/>
        <pt x="358" y="52" on="1"/>
        <pt x="349" y="52" on="0"/>
        <pt x="349" y="42" on="1"/>
        <pt x="349" y="31" on="0"/>
        <pt x="358" y="31" on="1"/>
        <pt x="363" y="31" on="0"/>
        <pt x="365" y="33" on="1"/>
      </contour>
      <contour>
        <pt x="399" y="27" on="1"/>
        <pt x="407" y="27" on="1"/>
        <pt x="407" y="39" on="1"/>
        <pt x="411" y="39" on="1"/>
        <pt x="417" y="39" on="0"/>
        <pt x="427" y="44" on="0"/>
        <pt x="427" y="51" on="1"/>
        <pt x="427" y="59" on="0"/>
        <pt x="416" y="63" on="0"/>
        <pt x="410" y="63" on="1"/>
        <pt x="399" y="63" on="1"/>
      </contour>
      <contour>
        <pt x="411" y="57" on="1"/>
        <pt x="419" y="57" on="0"/>
        <pt x="419" y="52" on="1"/>
        <pt x="419" y="47" on="0"/>
        <pt x="414" y="46" on="0"/>
        <pt x="410" y="46" on="1"/>
        <pt x="407" y="46" on="1"/>
        <pt x="407" y="57" on="1"/>
      </contour>
      <contour>
        <pt x="432" y="47" on="1"/>
        <pt x="436" y="49" on="0"/>
        <pt x="441" y="49" on="1"/>
        <pt x="446" y="49" on="0"/>
        <pt x="446" y="45" on="1"/>
        <pt x="446" y="43" on="1"/>
        <pt x="445" y="43" on="0"/>
        <pt x="443" y="44" on="0"/>
        <pt x="441" y="44" on="1"/>
        <pt x="428" y="44" on="0"/>
        <pt x="428" y="34" on="1"/>
        <pt x="428" y="26" on="0"/>
        <pt x="437" y="26" on="1"/>
        <pt x="443" y="26" on="0"/>
        <pt x="446" y="31" on="1"/>
        <pt x="448" y="27" on="1"/>
        <pt x="454" y="27" on="1"/>
        <pt x="453" y="29" on="0"/>
        <pt x="453" y="34" on="1"/>
        <pt x="453" y="45" on="1"/>
        <pt x="453" y="55" on="0"/>
        <pt x="443" y="55" on="1"/>
        <pt x="439" y="55" on="0"/>
        <pt x="432" y="53" on="0"/>
        <pt x="430" y="52" on="1"/>
      </contour>
      <contour>
        <pt x="440" y="32" on="1"/>
        <pt x="436" y="32" on="0"/>
        <pt x="436" y="36" on="1"/>
        <pt x="436" y="40" on="0"/>
        <pt x="441" y="40" on="1"/>
        <pt x="443" y="40" on="0"/>
        <pt x="445" y="39" on="0"/>
        <pt x="446" y="39" on="1"/>
        <pt x="446" y="36" on="1"/>
        <pt x="444" y="32" on="0"/>
      </contour>
      <contour>
        <pt x="478" y="54" on="1"/>
        <pt x="477" y="55" on="0"/>
        <pt x="474" y="55" on="1"/>
        <pt x="470" y="55" on="0"/>
        <pt x="468" y="50" on="1"/>
        <pt x="467" y="50" on="1"/>
        <pt x="466" y="54" on="1"/>
        <pt x="460" y="54" on="1"/>
        <pt x="460" y="27" on="1"/>
        <pt x="468" y="27" on="1"/>
        <pt x="468" y="44" on="1"/>
        <pt x="468" y="48" on="0"/>
        <pt x="474" y="48" on="1"/>
        <pt x="475" y="48" on="1"/>
        <pt x="476" y="48" on="0"/>
        <pt x="476" y="47" on="0"/>
        <pt x="477" y="47" on="1"/>
      </contour>
      <contour>
        <pt x="483" y="47" on="1"/>
        <pt x="489" y="49" on="0"/>
        <pt x="492" y="49" on="1"/>
        <pt x="497" y="49" on="0"/>
        <pt x="497" y="45" on="1"/>
        <pt x="497" y="43" on="1"/>
        <pt x="496" y="43" on="0"/>
        <pt x="494" y="44" on="0"/>
        <pt x="492" y="44" on="1"/>
        <pt x="479" y="44" on="0"/>
        <pt x="479" y="34" on="1"/>
        <pt x="479" y="26" on="0"/>
        <pt x="488" y="26" on="1"/>
        <pt x="495" y="26" on="0"/>
        <pt x="497" y="31" on="1"/>
        <pt x="498" y="31" on="1"/>
        <pt x="499" y="27" on="1"/>
        <pt x="505" y="27" on="1"/>
        <pt x="504" y="29" on="0"/>
        <pt x="504" y="34" on="1"/>
        <pt x="504" y="45" on="1"/>
        <pt x="504" y="55" on="0"/>
        <pt x="494" y="55" on="1"/>
        <pt x="490" y="55" on="0"/>
        <pt x="484" y="53" on="0"/>
        <pt x="482" y="52" on="1"/>
      </contour>
      <contour>
        <pt x="491" y="32" on="1"/>
        <pt x="487" y="32" on="0"/>
        <pt x="487" y="36" on="1"/>
        <pt x="487" y="40" on="0"/>
        <pt x="492" y="40" on="1"/>
        <pt x="494" y="40" on="0"/>
        <pt x="496" y="39" on="0"/>
        <pt x="497" y="39" on="1"/>
        <pt x="497" y="36" on="1"/>
        <pt x="495" y="32" on="0"/>
      </contour>
      <contour>
        <pt x="533" y="63" on="1"/>
        <pt x="502" y="63" on="1"/>
        <pt x="502" y="57" on="1"/>
        <pt x="513" y="57" on="1"/>
        <pt x="513" y="27" on="1"/>
        <pt x="521" y="27" on="1"/>
        <pt x="521" y="57" on="1"/>
        <pt x="533" y="57" on="1"/>
      </contour>
      <contour>
        <pt x="541" y="54" on="1"/>
        <pt x="533" y="54" on="1"/>
        <pt x="545" y="27" on="1"/>
        <pt x="544" y="22" on="0"/>
        <pt x="540" y="22" on="1"/>
        <pt x="539" y="23" on="1"/>
        <pt x="537" y="17" on="1"/>
        <pt x="539" y="16" on="0"/>
        <pt x="542" y="16" on="1"/>
        <pt x="547" y="16" on="0"/>
        <pt x="552" y="29" on="1"/>
        <pt x="562" y="54" on="1"/>
        <pt x="554" y="54" on="1"/>
        <pt x="549" y="39" on="1"/>
        <pt x="549" y="34" on="1"/>
        <pt x="548" y="34" on="1"/>
        <pt x="547" y="39" on="1"/>
      </contour>
      <contour>
        <pt x="565" y="16" on="1"/>
        <pt x="573" y="16" on="1"/>
        <pt x="573" y="28" on="1"/>
        <pt x="574" y="26" on="0"/>
        <pt x="578" y="26" on="1"/>
        <pt x="592" y="26" on="0"/>
        <pt x="592" y="41" on="1"/>
        <pt x="592" y="55" on="0"/>
        <pt x="581" y="55" on="1"/>
        <pt x="576" y="55" on="0"/>
        <pt x="572" y="51" on="1"/>
        <pt x="571" y="51" on="1"/>
        <pt x="570" y="54" on="1"/>
        <pt x="565" y="54" on="1"/>
      </contour>
      <contour>
        <pt x="579" y="49" on="1"/>
        <pt x="584" y="49" on="0"/>
        <pt x="584" y="41" on="1"/>
        <pt x="584" y="32" on="0"/>
        <pt x="577" y="32" on="1"/>
        <pt x="575" y="32" on="0"/>
        <pt x="573" y="34" on="1"/>
        <pt x="573" y="44" on="1"/>
        <pt x="573" y="49" on="0"/>
      </contour>
      <contour>
        <pt x="618" y="34" on="1"/>
        <pt x="616" y="32" on="0"/>
        <pt x="611" y="32" on="1"/>
        <pt x="604" y="32" on="0"/>
        <pt x="603" y="38" on="1"/>
        <pt x="622" y="38" on="1"/>
        <pt x="622" y="44" on="1"/>
        <pt x="622" y="50" on="0"/>
        <pt x="615" y="55" on="0"/>
        <pt x="610" y="55" on="1"/>
        <pt x="596" y="55" on="0"/>
        <pt x="596" y="40" on="1"/>
        <pt x="596" y="26" on="0"/>
        <pt x="610" y="26" on="1"/>
        <pt x="613" y="26" on="0"/>
        <pt x="619" y="28" on="0"/>
        <pt x="621" y="29" on="1"/>
      </contour>
      <contour>
        <pt x="610" y="49" on="1"/>
        <pt x="616" y="49" on="0"/>
        <pt x="615" y="43" on="1"/>
        <pt x="604" y="43" on="1"/>
        <pt x="604" y="49" on="0"/>
      </contour>
    </TTGlyph>
    <TTGlyph name="A" xMin="0" yMin="0" xMax="605" yMax="705">
      <contour>
        <pt x="405" y="155" on="1"/>
        <pt x="190" y="155" on="1"/>
        <pt x="137" y="0" on="1"/>
        <pt x="0" y="0" on="1"/>
        <pt x="252" y="705" on="1"/>
        <pt x="353" y="705" on="1"/>
        <pt x="605" y="0" on="1"/>
        <pt x="461" y="0" on="1"/>
      </contour>
      <contour>
        <pt x="225" y="265" on="1"/>
        <pt x="375" y="265" on="1"/>
        <pt x="323" y="421" on="1"/>
        <pt x="302" y="531" on="1"/>
        <pt x="297" y="531" on="1"/>
        <pt x="276" y="420" on="1"/>
      </contour>
    </TTGlyph>
    <TTGlyph name="AE" xMin="-29" yMin="0" xMax="819" yMax="700">
      <contour>
        <pt x="394" y="532" on="1"/>
        <pt x="358" y="429" on="1"/>
        <pt x="274" y="281" on="1"/>
        <pt x="400" y="281" on="1"/>
        <pt x="400" y="532" on="1"/>
      </contour>
      <contour>
        <pt x="400" y="170" on="1"/>
        <pt x="214" y="170" on="1"/>
        <pt x="115" y="0" on="1"/>
        <pt x="-29" y="0" on="1"/>
        <pt x="395" y="700" on="1"/>
        <pt x="814" y="700" on="1"/>
        <pt x="814" y="578" on="1"/>
        <pt x="537" y="578" on="1"/>
        <pt x="537" y="415" on="1"/>
        <pt x="789" y="415" on="1"/>
        <pt x="789" y="293" on="1"/>
        <pt x="537" y="293" on="1"/>
        <pt x="537" y="122" on="1"/>
        <pt x="819" y="122" on="1"/>
        <pt x="819" y="0" on="1"/>
        <pt x="400" y="0" on="1"/>
      </contour>
    </TTGlyph>
    <TTGlyph name="Aacute" xMin="0" yMin="0" xMax="605" yMax="870">
      <component glyphName="A" x="0" y="0" flags="0x204"/>
      <component glyphName="uniF6C9" x="145" y="0" flags="0x4"/>
    </TTGlyph>
    <TTGlyph name="Abreve" xMin="0" yMin="0" xMax="605" yMax="875">
      <component glyphName="A" x="0" y="0" flags="0x204"/>
      <component glyphName="uniF406" x="52" y="0" flags="0x4"/>
    </TTGlyph>
    <TTGlyph name="Acircumflex" xMin="0" yMin="0" xMax="605" yMax="870">
      <component glyphName="A" x="0" y="0" flags="0x204"/>
      <component glyphName="uniF408" x="64" y="0" flags="0x4"/>
    </TTGlyph>
    <TTGlyph name="Adieresis" xMin="0" yMin="0" xMax="605" yMax="856">
      <component glyphName="A" x="0" y="0" flags="0x204"/>
      <component glyphName="uniF6CB" x="64" y="0" flags="0x4"/>
    </TTGlyph>
    <TTGlyph name="Agrave" xMin="0" yMin="0" xMax="605" yMax="870">
      <component glyphName="A" x="0" y="0" flags="0x204"/>
      <component glyphName="uniF6CE" x="76" y="0" flags="0x4"/>
    </TTGlyph>
    <TTGlyph name="Amacron" xMin="0" yMin="0" xMax="605" yMax="856">
      <component glyphName="A" x="0" y="0" flags="0x204"/>
      <component glyphName="uniF6D0" x="69" y="0" flags="0x4"/>
    </TTGlyph>
    <TTGlyph name="Aogonek" xMin="0" yMin="-201" xMax="629" yMax="705">
      <contour>
        <pt x="405" y="155" on="1"/>
        <pt x="190" y="155" on="1"/>
        <pt x="137" y="0" on="1"/>
        <pt x="0" y="0" on="1"/>
        <pt x="252" y="705" on="1"/>
        <pt x="353" y="705" on="1"/>
        <pt x="605" y="0" on="1"/>
        <pt x="584" y="0" on="1"/>
        <pt x="526" y="-22" on="0"/>
        <pt x="526" y="-73" on="1"/>
        <pt x="526" y="-99" on="0"/>
        <pt x="570" y="-124" on="0"/>
        <pt x="610" y="-104" on="1"/>
        <pt x="629" y="-166" on="1"/>
        <pt x="614" y="-178" on="0"/>
        <pt x="549" y="-201" on="0"/>
        <pt x="514" y="-201" on="1"/>
        <pt x="458" y="-201" on="0"/>
        <pt x="399" y="-151" on="0"/>
        <pt x="399" y="-110" on="1"/>
        <pt x="399" y="-72" on="0"/>
        <pt x="445" y="-17" on="0"/>
        <pt x="486" y="0" on="1"/>
        <pt x="461" y="0" on="1"/>
      </contour>
      <contour>
        <pt x="225" y="265" on="1"/>
        <pt x="375" y="265" on="1"/>
        <pt x="323" y="421" on="1"/>
        <pt x="302" y="531" on="1"/>
        <pt x="297" y="531" on="1"/>
        <pt x="276" y="420" on="1"/>
      </contour>
    </TTGlyph>
    <TTGlyph name="Aring" xMin="0" yMin="0" xMax="605" yMax="861">
      <contour>
        <pt x="175" y="771" on="1"/>
        <pt x="175" y="789" on="0"/>
        <pt x="187" y="822" on="0"/>
        <pt x="216" y="847" on="0"/>
        <pt x="265" y="861" on="0"/>
        <pt x="303" y="861" on="1"/>
        <pt x="373" y="861" on="0"/>
        <pt x="431" y="813" on="0"/>
        <pt x="431" y="771" on="1"/>
        <pt x="431" y="742" on="0"/>
        <pt x="399" y="699" on="0"/>
        <pt x="358" y="689" on="1"/>
        <pt x="605" y="0" on="1"/>
        <pt x="461" y="0" on="1"/>
        <pt x="405" y="155" on="1"/>
        <pt x="190" y="155" on="1"/>
        <pt x="137" y="0" on="1"/>
        <pt x="0" y="0" on="1"/>
        <pt x="246" y="689" on="1"/>
        <pt x="207" y="698" on="0"/>
        <pt x="175" y="742" on="0"/>
      </contour>
      <contour>
        <pt x="225" y="265" on="1"/>
        <pt x="375" y="265" on="1"/>
        <pt x="323" y="421" on="1"/>
        <pt x="302" y="531" on="1"/>
        <pt x="297" y="531" on="1"/>
        <pt x="276" y="420" on="1"/>
      </contour>
      <contour>
        <pt x="259" y="771" on="1"/>
        <pt x="259" y="740" on="0"/>
        <pt x="303" y="740" on="1"/>
        <pt x="328" y="740" on="0"/>
        <pt x="348" y="756" on="0"/>
        <pt x="348" y="771" on="1"/>
        <pt x="348" y="788" on="0"/>
        <pt x="327" y="804" on="0"/>
        <pt x="303" y="804" on="1"/>
        <pt x="259" y="804" on="0"/>
      </contour>
    </TTGlyph>
    <TTGlyph name="Atilde" xMin="0" yMin="0" xMax="605" yMax="861">
      <component glyphName="A" x="0" y="0" flags="0x204"/>
      <component glyphName="uniF40D" x="53" y="0" flags="0x4"/>
    </TTGlyph>
    <TTGlyph name="B" xMin="60" yMin="-10" xMax="553" yMax="710">
      <contour>
        <pt x="531" y="537" on="1"/>
        <pt x="531" y="511" on="0"/>
        <pt x="518" y="459" on="0"/>
        <pt x="488" y="416" on="0"/>
        <pt x="440" y="383" on="0"/>
        <pt x="406" y="375" on="1"/>
        <pt x="406" y="369" on="1"/>
        <pt x="436" y="364" on="0"/>
        <pt x="490" y="340" on="0"/>
        <pt x="530" y="298" on="0"/>
        <pt x="553" y="238" on="0"/>
        <pt x="553" y="197" on="1"/>
        <pt x="553" y="143" on="0"/>
        <pt x="507" y="64" on="0"/>
        <pt x="430" y="14" on="0"/>
        <pt x="332" y="-10" on="0"/>
        <pt x="280" y="-10" on="1"/>
        <pt x="263" y="-10" on="0"/>
        <pt x="210" y="-10" on="0"/>
        <pt x="149" y="-7" on="0"/>
        <pt x="86" y="-1" on="0"/>
        <pt x="60" y="5" on="1"/>
        <pt x="60" y="695" on="1"/>
        <pt x="79" y="698" on="0"/>
        <pt x="128" y="704" on="0"/>
        <pt x="184" y="708" on="0"/>
        <pt x="243" y="710" on="0"/>
        <pt x="272" y="710" on="1"/>
        <pt x="321" y="710" on="0"/>
        <pt x="414" y="695" on="0"/>
        <pt x="487" y="657" on="0"/>
        <pt x="531" y="589" on="0"/>
      </contour>
      <contour>
        <pt x="281" y="103" on="1"/>
        <pt x="306" y="103" on="0"/>
        <pt x="353" y="115" on="0"/>
        <pt x="389" y="140" on="0"/>
        <pt x="411" y="178" on="0"/>
        <pt x="411" y="204" on="1"/>
        <pt x="411" y="237" on="0"/>
        <pt x="385" y="275" on="0"/>
        <pt x="343" y="296" on="0"/>
        <pt x="291" y="302" on="0"/>
        <pt x="265" y="302" on="1"/>
        <pt x="192" y="302" on="1"/>
        <pt x="192" y="109" on="1"/>
        <pt x="197" y="107" on="0"/>
        <pt x="219" y="105" on="0"/>
        <pt x="244" y="104" on="0"/>
        <pt x="271" y="103" on="0"/>
      </contour>
      <contour>
        <pt x="236" y="406" on="1"/>
        <pt x="250" y="406" on="0"/>
        <pt x="287" y="408" on="0"/>
        <pt x="299" y="410" on="1"/>
        <pt x="337" y="422" on="0"/>
        <pt x="392" y="470" on="0"/>
        <pt x="392" y="509" on="1"/>
        <pt x="392" y="535" on="0"/>
        <pt x="372" y="569" on="0"/>
        <pt x="339" y="589" on="0"/>
        <pt x="297" y="597" on="0"/>
        <pt x="274" y="597" on="1"/>
        <pt x="248" y="597" on="0"/>
        <pt x="204" y="595" on="0"/>
        <pt x="192" y="593" on="1"/>
        <pt x="192" y="406" on="1"/>
      </contour>
    </TTGlyph>
    <TTGlyph name="C" xMin="38" yMin="-14" xMax="534" yMax="714">
      <contour>
        <pt x="534" y="29" on="1"/>
        <pt x="502" y="6" on="0"/>
        <pt x="403" y="-14" on="0"/>
        <pt x="351" y="-14" on="1"/>
        <pt x="288" y="-14" on="0"/>
        <pt x="175" y="25" on="0"/>
        <pt x="89" y="112" on="0"/>
        <pt x="38" y="251" on="0"/>
        <pt x="38" y="350" on="1"/>
        <pt x="38" y="453" on="0"/>
        <pt x="95" y="592" on="0"/>
        <pt x="186" y="677" on="0"/>
        <pt x="298" y="714" on="0"/>
        <pt x="354" y="714" on="1"/>
        <pt x="414" y="714" on="0"/>
        <pt x="497" y="698" on="0"/>
        <pt x="524" y="687" on="1"/>
        <pt x="497" y="571" on="1"/>
        <pt x="474" y="582" on="0"/>
        <pt x="411" y="592" on="0"/>
        <pt x="366" y="592" on="1"/>
        <pt x="283" y="592" on="0"/>
        <pt x="182" y="474" on="0"/>
        <pt x="182" y="350" on="1"/>
        <pt x="182" y="296" on="0"/>
        <pt x="206" y="207" on="0"/>
        <pt x="255" y="144" on="0"/>
        <pt x="328" y="109" on="0"/>
        <pt x="376" y="109" on="1"/>
        <pt x="421" y="109" on="0"/>
        <pt x="483" y="127" on="0"/>
        <pt x="506" y="141" on="1"/>
      </contour>
    </TTGlyph>
    <TTGlyph name="Cacute" xMin="38" yMin="-14" xMax="535" yMax="870">
      <component glyphName="C" x="0" y="0" flags="0x204"/>
      <component glyphName="uniF6C9" x="212" y="0" flags="0x4"/>
    </TTGlyph>
    <TTGlyph name="Ccaron" xMin="38" yMin="-14" xMax="534" yMax="870">
      <component glyphName="C" x="0" y="0" flags="0x204"/>
      <component glyphName="uniF6CA" x="105" y="0" flags="0x4"/>
    </TTGlyph>
    <TTGlyph name="Ccedilla" xMin="38" yMin="-210" xMax="534" yMax="714">
      <contour>
        <pt x="534" y="29" on="1"/>
        <pt x="508" y="10" on="0"/>
        <pt x="429" y="-10" on="0"/>
        <pt x="385" y="-13" on="1"/>
        <pt x="369" y="-43" on="1"/>
        <pt x="410" y="-47" on="0"/>
        <pt x="457" y="-82" on="0"/>
        <pt x="457" y="-118" on="1"/>
        <pt x="457" y="-141" on="0"/>
        <pt x="434" y="-175" on="0"/>
        <pt x="394" y="-198" on="0"/>
        <pt x="340" y="-210" on="0"/>
        <pt x="309" y="-210" on="1"/>
        <pt x="278" y="-210" on="0"/>
        <pt x="245" y="-204" on="1"/>
        <pt x="254" y="-156" on="1"/>
        <pt x="261" y="-157" on="0"/>
        <pt x="273" y="-157" on="0"/>
        <pt x="278" y="-157" on="1"/>
        <pt x="316" y="-157" on="0"/>
        <pt x="338" y="-139" on="0"/>
        <pt x="338" y="-127" on="1"/>
        <pt x="338" y="-99" on="0"/>
        <pt x="252" y="-95" on="1"/>
        <pt x="302" y="-11" on="1"/>
        <pt x="247" y="-4" on="0"/>
        <pt x="151" y="43" on="0"/>
        <pt x="79" y="131" on="0"/>
        <pt x="38" y="261" on="0"/>
        <pt x="38" y="350" on="1"/>
        <pt x="38" y="453" on="0"/>
        <pt x="95" y="592" on="0"/>
        <pt x="186" y="677" on="0"/>
        <pt x="298" y="714" on="0"/>
        <pt x="354" y="714" on="1"/>
        <pt x="414" y="714" on="0"/>
        <pt x="497" y="698" on="0"/>
        <pt x="524" y="687" on="1"/>
        <pt x="497" y="571" on="1"/>
        <pt x="474" y="582" on="0"/>
        <pt x="411" y="592" on="0"/>
        <pt x="366" y="592" on="1"/>
        <pt x="283" y="592" on="0"/>
        <pt x="182" y="474" on="0"/>
        <pt x="182" y="350" on="1"/>
        <pt x="182" y="296" on="0"/>
        <pt x="206" y="207" on="0"/>
        <pt x="255" y="144" on="0"/>
        <pt x="328" y="109" on="0"/>
        <pt x="376" y="109" on="1"/>
        <pt x="421" y="109" on="0"/>
        <pt x="483" y="127" on="0"/>
        <pt x="506" y="141" on="1"/>
      </contour>
    </TTGlyph>
    <TTGlyph name="Ccircumflex" xMin="38" yMin="-14" xMax="534" yMax="870">
      <component glyphName="C" x="0" y="0" flags="0x204"/>
      <component glyphName="uniF408" x="95" y="0" flags="0x4"/>
    </TTGlyph>
    <TTGlyph name="D" xMin="60" yMin="-11" xMax="609" yMax="710">
      <contour>
        <pt x="60" y="700" on="1"/>
        <pt x="81" y="703" on="0"/>
        <pt x="134" y="707" on="0"/>
        <pt x="190" y="709" on="0"/>
        <pt x="243" y="710" on="0"/>
        <pt x="264" y="710" on="1"/>
        <pt x="357" y="710" on="0"/>
        <pt x="489" y="658" on="0"/>
        <pt x="571" y="564" on="0"/>
        <pt x="609" y="434" on="0"/>
        <pt x="609" y="356" on="1"/>
        <pt x="609" y="285" on="0"/>
        <pt x="573" y="153" on="0"/>
        <pt x="489" y="51" on="0"/>
        <pt x="352" y="-11" on="0"/>
        <pt x="251" y="-11" on="1"/>
        <pt x="235" y="-11" on="0"/>
        <pt x="182" y="-9" on="0"/>
        <pt x="125" y="-6" on="0"/>
        <pt x="73" y="-3" on="0"/>
        <pt x="60" y="-1" on="1"/>
      </contour>
      <contour>
        <pt x="275" y="588" on="1"/>
        <pt x="253" y="588" on="0"/>
        <pt x="208" y="586" on="0"/>
        <pt x="197" y="584" on="1"/>
        <pt x="197" y="115" on="1"/>
        <pt x="201" y="114" on="0"/>
        <pt x="220" y="113" on="0"/>
        <pt x="242" y="112" on="0"/>
        <pt x="262" y="111" on="0"/>
        <pt x="267" y="111" on="1"/>
        <pt x="325" y="111" on="0"/>
        <pt x="402" y="152" on="0"/>
        <pt x="447" y="220" on="0"/>
        <pt x="465" y="309" on="0"/>
        <pt x="465" y="356" on="1"/>
        <pt x="465" y="397" on="0"/>
        <pt x="449" y="480" on="0"/>
        <pt x="406" y="546" on="0"/>
        <pt x="332" y="588" on="0"/>
      </contour>
    </TTGlyph>
    <TTGlyph name="Dcaron" xMin="60" yMin="-11" xMax="609" yMax="870">
      <component glyphName="D" x="0" y="0" flags="0x204"/>
      <component glyphName="uniF6CA" x="47" y="0" flags="0x4"/>
    </TTGlyph>
    <TTGlyph name="Dcroat" xMin="-6" yMin="-11" xMax="631" yMax="710">
      <component glyphName="Eth" x="0" y="0" flags="0x204"/>
    </TTGlyph>
    <TTGlyph name="E" xMin="60" yMin="0" xMax="480" yMax="700">
      <contour>
        <pt x="60" y="700" on="1"/>
        <pt x="475" y="700" on="1"/>
        <pt x="475" y="578" on="1"/>
        <pt x="197" y="578" on="1"/>
        <pt x="197" y="415" on="1"/>
        <pt x="450" y="415" on="1"/>
        <pt x="450" y="293" on="1"/>
        <pt x="197" y="293" on="1"/>
        <pt x="197" y="122" on="1"/>
        <pt x="480" y="122" on="1"/>
        <pt x="480" y="0" on="1"/>
        <pt x="60" y="0" on="1"/>
      </contour>
    </TTGlyph>
    <TTGlyph name="Eacute" xMin="60" yMin="0" xMax="480" yMax="870">
      <component glyphName="E" x="0" y="0" flags="0x204"/>
      <component glyphName="uniF6C9" x="129" y="0" flags="0x4"/>
    </TTGlyph>
    <TTGlyph name="Ecaron" xMin="60" yMin="0" xMax="480" yMax="870">
      <component glyphName="E" x="0" y="0" flags="0x204"/>
      <component glyphName="uniF6CA" x="27" y="0" flags="0x4"/>
    </TTGlyph>
    <TTGlyph name="Ecircumflex" xMin="60" yMin="0" xMax="480" yMax="870">
      <component glyphName="E" x="0" y="0" flags="0x204"/>
      <component glyphName="uniF408" x="26" y="0" flags="0x4"/>
    </TTGlyph>
    <TTGlyph name="Edieresis" xMin="60" yMin="0" xMax="480" yMax="856">
      <component glyphName="E" x="0" y="0" flags="0x204"/>
      <component glyphName="uniF6CB" x="24" y="0" flags="0x4"/>
    </TTGlyph>
    <TTGlyph name="Edotaccent" xMin="60" yMin="0" xMax="480" yMax="860">
      <component glyphName="E" x="0" y="0" flags="0x204"/>
      <component glyphName="uniF40B" x="131" y="0" flags="0x4"/>
    </TTGlyph>
    <TTGlyph name="Egrave" xMin="60" yMin="0" xMax="480" yMax="870">
      <component glyphName="E" x="0" y="0" flags="0x204"/>
      <component glyphName="uniF6CE" x="29" y="0" flags="0x4"/>
    </TTGlyph>
    <TTGlyph name="Emacron" xMin="60" yMin="0" xMax="480" yMax="856">
      <component glyphName="E" x="0" y="0" flags="0x204"/>
      <component glyphName="uniF6D0" x="35" y="0" flags="0x4"/>
    </TTGlyph>
    <TTGlyph name="Eogonek" xMin="60" yMin="-201" xMax="498" yMax="700">
      <contour>
        <pt x="60" y="700" on="1"/>
        <pt x="475" y="700" on="1"/>
        <pt x="475" y="578" on="1"/>
        <pt x="197" y="578" on="1"/>
        <pt x="197" y="415" on="1"/>
        <pt x="450" y="415" on="1"/>
        <pt x="450" y="293" on="1"/>
        <pt x="197" y="293" on="1"/>
        <pt x="197" y="122" on="1"/>
        <pt x="480" y="122" on="1"/>
        <pt x="480" y="0" on="1"/>
        <pt x="453" y="0" on="1"/>
        <pt x="395" y="-22" on="0"/>
        <pt x="395" y="-73" on="1"/>
        <pt x="395" y="-91" on="0"/>
        <pt x="417" y="-116" on="0"/>
        <pt x="437" y="-116" on="1"/>
        <pt x="455" y="-116" on="0"/>
        <pt x="479" y="-104" on="1"/>
        <pt x="498" y="-166" on="1"/>
        <pt x="483" y="-178" on="0"/>
        <pt x="418" y="-201" on="0"/>
        <pt x="383" y="-201" on="1"/>
        <pt x="327" y="-201" on="0"/>
        <pt x="268" y="-151" on="0"/>
        <pt x="268" y="-110" on="1"/>
        <pt x="268" y="-72" on="0"/>
        <pt x="314" y="-17" on="0"/>
        <pt x="355" y="0" on="1"/>
        <pt x="60" y="0" on="1"/>
      </contour>
    </TTGlyph>
    <TTGlyph name="Eth" xMin="-6" yMin="-11" xMax="631" yMax="710">
      <contour>
        <pt x="-6" y="401" on="1"/>
        <pt x="82" y="401" on="1"/>
        <pt x="82" y="700" on="1"/>
        <pt x="103" y="703" on="0"/>
        <pt x="156" y="707" on="0"/>
        <pt x="212" y="709" on="0"/>
        <pt x="265" y="710" on="0"/>
        <pt x="286" y="710" on="1"/>
        <pt x="379" y="710" on="0"/>
        <pt x="511" y="658" on="0"/>
        <pt x="593" y="564" on="0"/>
        <pt x="631" y="434" on="0"/>
        <pt x="631" y="356" on="1"/>
        <pt x="631" y="285" on="0"/>
        <pt x="595" y="153" on="0"/>
        <pt x="511" y="51" on="0"/>
        <pt x="374" y="-11" on="0"/>
        <pt x="273" y="-11" on="1"/>
        <pt x="257" y="-11" on="0"/>
        <pt x="204" y="-9" on="0"/>
        <pt x="147" y="-6" on="0"/>
        <pt x="95" y="-3" on="0"/>
        <pt x="82" y="-1" on="1"/>
        <pt x="82" y="321" on="1"/>
        <pt x="-6" y="321" on="1"/>
      </contour>
      <contour>
        <pt x="297" y="588" on="1"/>
        <pt x="275" y="588" on="0"/>
        <pt x="230" y="586" on="0"/>
        <pt x="219" y="584" on="1"/>
        <pt x="219" y="401" on="1"/>
        <pt x="359" y="401" on="1"/>
        <pt x="359" y="321" on="1"/>
        <pt x="219" y="321" on="1"/>
        <pt x="219" y="114" on="1"/>
        <pt x="223" y="113" on="0"/>
        <pt x="242" y="112" on="0"/>
        <pt x="264" y="111" on="0"/>
        <pt x="284" y="111" on="0"/>
        <pt x="289" y="111" on="1"/>
        <pt x="347" y="111" on="0"/>
        <pt x="424" y="152" on="0"/>
        <pt x="469" y="220" on="0"/>
        <pt x="487" y="309" on="0"/>
        <pt x="487" y="356" on="1"/>
        <pt x="487" y="397" on="0"/>
        <pt x="471" y="480" on="0"/>
        <pt x="428" y="546" on="0"/>
        <pt x="354" y="588" on="0"/>
      </contour>
    </TTGlyph>
    <TTGlyph name="Euro" xMin="2" yMin="-14" xMax="554" yMax="714">
      <contour>
        <pt x="34" y="475" on="1"/>
        <pt x="96" y="475" on="1"/>
        <pt x="111" y="541" on="0"/>
        <pt x="168" y="631" on="0"/>
        <pt x="244" y="688" on="0"/>
        <pt x="335" y="714" on="0"/>
        <pt x="384" y="714" on="1"/>
        <pt x="436" y="714" on="0"/>
        <pt x="517" y="698" on="0"/>
        <pt x="544" y="687" on="1"/>
        <pt x="509" y="584" on="1"/>
        <pt x="487" y="593" on="0"/>
        <pt x="429" y="602" on="0"/>
        <pt x="390" y="602" on="1"/>
        <pt x="330" y="602" on="0"/>
        <pt x="244" y="542" on="0"/>
        <pt x="222" y="475" on="1"/>
        <pt x="481" y="475" on="1"/>
        <pt x="455" y="382" on="1"/>
        <pt x="206" y="382" on="1"/>
        <pt x="205" y="374" on="0"/>
        <pt x="205" y="359" on="0"/>
        <pt x="205" y="350" on="1"/>
        <pt x="205" y="324" on="1"/>
        <pt x="435" y="324" on="1"/>
        <pt x="409" y="231" on="1"/>
        <pt x="221" y="231" on="1"/>
        <pt x="241" y="165" on="0"/>
        <pt x="328" y="98" on="0"/>
        <pt x="400" y="98" on="1"/>
        <pt x="442" y="98" on="0"/>
        <pt x="503" y="116" on="0"/>
        <pt x="527" y="130" on="1"/>
        <pt x="554" y="29" on="1"/>
        <pt x="539" y="18" on="0"/>
        <pt x="497" y="1" on="0"/>
        <pt x="451" y="-9" on="0"/>
        <pt x="403" y="-14" on="0"/>
        <pt x="381" y="-14" on="1"/>
        <pt x="271" y="-14" on="0"/>
        <pt x="120" y="103" on="0"/>
        <pt x="94" y="231" on="1"/>
        <pt x="2" y="231" on="1"/>
        <pt x="34" y="324" on="1"/>
        <pt x="83" y="324" on="1"/>
        <pt x="83" y="350" on="1"/>
        <pt x="83" y="358" on="0"/>
        <pt x="83" y="374" on="0"/>
        <pt x="84" y="382" on="1"/>
        <pt x="2" y="382" on="1"/>
      </contour>
    </TTGlyph>
    <TTGlyph name="F" xMin="60" yMin="0" xMax="475" yMax="700">
      <contour>
        <pt x="60" y="700" on="1"/>
        <pt x="475" y="700" on="1"/>
        <pt x="475" y="578" on="1"/>
        <pt x="197" y="578" on="1"/>
        <pt x="197" y="405" on="1"/>
        <pt x="453" y="405" on="1"/>
        <pt x="453" y="283" on="1"/>
        <pt x="197" y="283" on="1"/>
        <pt x="197" y="0" on="1"/>
        <pt x="60" y="0" on="1"/>
      </contour>
    </TTGlyph>
    <TTGlyph name="G" xMin="38" yMin="-14" xMax="568" yMax="714">
      <contour>
        <pt x="307" y="365" on="1"/>
        <pt x="568" y="365" on="1"/>
        <pt x="568" y="53" on="1"/>
        <pt x="526" y="18" on="0"/>
        <pt x="409" y="-14" on="0"/>
        <pt x="352" y="-14" on="1"/>
        <pt x="285" y="-14" on="0"/>
        <pt x="170" y="28" on="0"/>
        <pt x="86" y="117" on="0"/>
        <pt x="38" y="255" on="0"/>
        <pt x="38" y="350" on="1"/>
        <pt x="38" y="449" on="0"/>
        <pt x="95" y="588" on="0"/>
        <pt x="188" y="675" on="0"/>
        <pt x="304" y="714" on="0"/>
        <pt x="364" y="714" on="1"/>
        <pt x="424" y="714" on="0"/>
        <pt x="515" y="696" on="0"/>
        <pt x="542" y="686" on="1"/>
        <pt x="514" y="571" on="1"/>
        <pt x="489" y="581" on="0"/>
        <pt x="427" y="592" on="0"/>
        <pt x="379" y="592" on="1"/>
        <pt x="336" y="592" on="0"/>
        <pt x="264" y="566" on="0"/>
        <pt x="211" y="507" on="0"/>
        <pt x="182" y="415" on="0"/>
        <pt x="182" y="349" on="1"/>
        <pt x="182" y="286" on="0"/>
        <pt x="210" y="195" on="0"/>
        <pt x="260" y="136" on="0"/>
        <pt x="327" y="108" on="0"/>
        <pt x="365" y="108" on="1"/>
        <pt x="391" y="108" on="0"/>
        <pt x="441" y="121" on="0"/>
        <pt x="458" y="134" on="1"/>
        <pt x="458" y="266" on="1"/>
        <pt x="307" y="282" on="1"/>
      </contour>
    </TTGlyph>
    <TTGlyph name="Gbreve" xMin="38" yMin="-14" xMax="568" yMax="875">
      <component glyphName="G" x="0" y="0" flags="0x204"/>
      <component glyphName="uniF406" x="84" y="0" flags="0x4"/>
    </TTGlyph>
    <TTGlyph name="Gcircumflex" xMin="38" yMin="-14" xMax="568" yMax="870">
      <component glyphName="G" x="0" y="0" flags="0x204"/>
      <component glyphName="uniF408" x="110" y="0" flags="0x4"/>
    </TTGlyph>
    <TTGlyph name="Gcommaaccent" xMin="38" yMin="-273" xMax="568" yMax="714">
      <component glyphName="G" x="0" y="0" flags="0x204"/>
      <component glyphName="uniF6C3" x="218" y="0" flags="0x4"/>
    </TTGlyph>
    <TTGlyph name="H" xMin="60" yMin="0" xMax="590" yMax="700">
      <contour>
        <pt x="453" y="293" on="1"/>
        <pt x="197" y="293" on="1"/>
        <pt x="197" y="0" on="1"/>
        <pt x="60" y="0" on="1"/>
        <pt x="60" y="700" on="1"/>
        <pt x="197" y="700" on="1"/>
        <pt x="197" y="415" on="1"/>
        <pt x="453" y="415" on="1"/>
        <pt x="453" y="700" on="1"/>
        <pt x="590" y="700" on="1"/>
        <pt x="590" y="0" on="1"/>
        <pt x="453" y="0" on="1"/>
      </contour>
    </TTGlyph>
    <TTGlyph name="Hbar" xMin="2" yMin="0" xMax="681" yMax="700">
      <contour>
        <pt x="2" y="598" on="1"/>
        <pt x="77" y="598" on="1"/>
        <pt x="77" y="700" on="1"/>
        <pt x="214" y="700" on="1"/>
        <pt x="214" y="598" on="1"/>
        <pt x="470" y="598" on="1"/>
        <pt x="470" y="700" on="1"/>
        <pt x="607" y="700" on="1"/>
        <pt x="607" y="598" on="1"/>
        <pt x="681" y="598" on="1"/>
        <pt x="681" y="516" on="1"/>
        <pt x="607" y="516" on="1"/>
        <pt x="607" y="0" on="1"/>
        <pt x="470" y="0" on="1"/>
        <pt x="470" y="293" on="1"/>
        <pt x="214" y="293" on="1"/>
        <pt x="214" y="0" on="1"/>
        <pt x="77" y="0" on="1"/>
        <pt x="77" y="516" on="1"/>
        <pt x="2" y="516" on="1"/>
      </contour>
      <contour>
        <pt x="470" y="415" on="1"/>
        <pt x="470" y="516" on="1"/>
        <pt x="214" y="516" on="1"/>
        <pt x="214" y="415" on="1"/>
      </contour>
    </TTGlyph>
    <TTGlyph name="Hcircumflex" xMin="60" yMin="0" xMax="590" yMax="870">
      <component glyphName="H" x="0" y="0" flags="0x204"/>
      <component glyphName="uniF408" x="85" y="0" flags="0x4"/>
    </TTGlyph>
    <TTGlyph name="I" xMin="74" yMin="0" xMax="211" yMax="700">
      <contour>
        <pt x="74" y="700" on="1"/>
        <pt x="211" y="700" on="1"/>
        <pt x="211" y="0" on="1"/>
        <pt x="74" y="0" on="1"/>
      </contour>
    </TTGlyph>
    <TTGlyph name="Iacute" xMin="49" yMin="0" xMax="312" yMax="870">
      <component glyphName="I" x="0" y="0" flags="0x204"/>
      <component glyphName="uniF6C9" x="-11" y="0" flags="0x4"/>
    </TTGlyph>
    <TTGlyph name="Icircumflex" xMin="-36" yMin="0" xMax="320" yMax="870">
      <component glyphName="I" x="0" y="0" flags="0x204"/>
      <component glyphName="uniF408" x="-96" y="0" flags="0x4"/>
    </TTGlyph>
    <TTGlyph name="Idieresis" xMin="-38" yMin="0" xMax="327" yMax="856">
      <component glyphName="I" x="0" y="0" flags="0x204"/>
      <component glyphName="uniF6CB" x="-98" y="0" flags="0x4"/>
    </TTGlyph>
    <TTGlyph name="Idotaccent" xMin="57" yMin="0" xMax="232" yMax="860">
      <component glyphName="I" x="0" y="0" flags="0x204"/>
      <component glyphName="uniF40B" x="-3" y="0" flags="0x4"/>
    </TTGlyph>
    <TTGlyph name="Igrave" xMin="-22" yMin="0" xMax="241" yMax="870">
      <component glyphName="I" x="0" y="0" flags="0x204"/>
      <component glyphName="uniF6CE" x="-82" y="0" flags="0x4"/>
    </TTGlyph>
    <TTGlyph name="Imacron" xMin="-25" yMin="0" xMax="318" yMax="856">
      <component glyphName="I" x="0" y="0" flags="0x204"/>
      <component glyphName="uniF6D0" x="-85" y="0" flags="0x4"/>
    </TTGlyph>
    <TTGlyph name="Iogonek" xMin="22" yMin="-202" xMax="252" yMax="700">
      <contour>
        <pt x="74" y="700" on="1"/>
        <pt x="211" y="700" on="1"/>
        <pt x="211" y="0" on="1"/>
        <pt x="197" y="0" on="1"/>
        <pt x="174" y="-12" on="0"/>
        <pt x="148" y="-48" on="0"/>
        <pt x="149" y="-73" on="1"/>
        <pt x="149" y="-91" on="0"/>
        <pt x="171" y="-116" on="0"/>
        <pt x="191" y="-116" on="1"/>
        <pt x="208" y="-116" on="0"/>
        <pt x="232" y="-104" on="1"/>
        <pt x="252" y="-166" on="1"/>
        <pt x="237" y="-178" on="0"/>
        <pt x="172" y="-202" on="0"/>
        <pt x="137" y="-202" on="1"/>
        <pt x="80" y="-202" on="0"/>
        <pt x="22" y="-151" on="0"/>
        <pt x="22" y="-110" on="1"/>
        <pt x="22" y="-72" on="0"/>
        <pt x="68" y="-17" on="0"/>
        <pt x="109" y="0" on="1"/>
        <pt x="74" y="0" on="1"/>
      </contour>
    </TTGlyph>
    <TTGlyph name="J" xMin="-23" yMin="-12" xMax="268" yMax="700">
      <contour>
        <pt x="131" y="700" on="1"/>
        <pt x="268" y="700" on="1"/>
        <pt x="268" y="188" on="1"/>
        <pt x="268" y="148" on="0"/>
        <pt x="250" y="76" on="0"/>
        <pt x="209" y="21" on="0"/>
        <pt x="145" y="-12" on="0"/>
        <pt x="99" y="-12" on="1"/>
        <pt x="70" y="-12" on="0"/>
        <pt x="2" y="0" on="0"/>
        <pt x="-23" y="11" on="1"/>
        <pt x="7" y="123" on="1"/>
        <pt x="33" y="110" on="0"/>
        <pt x="66" y="110" on="1"/>
        <pt x="108" y="110" on="0"/>
        <pt x="131" y="172" on="0"/>
        <pt x="131" y="223" on="1"/>
      </contour>
    </TTGlyph>
    <TTGlyph name="Jcircumflex" xMin="-23" yMin="-12" xMax="377" yMax="870">
      <component glyphName="J" x="0" y="0" flags="0x204"/>
      <component glyphName="uniF408" x="-39" y="0" flags="0x4"/>
    </TTGlyph>
    <TTGlyph name="K" xMin="60" yMin="0" xMax="609" yMax="700">
      <contour>
        <pt x="233" y="299" on="1"/>
        <pt x="197" y="299" on="1"/>
        <pt x="197" y="0" on="1"/>
        <pt x="60" y="0" on="1"/>
        <pt x="60" y="700" on="1"/>
        <pt x="197" y="700" on="1"/>
        <pt x="197" y="390" on="1"/>
        <pt x="229" y="404" on="1"/>
        <pt x="422" y="700" on="1"/>
        <pt x="578" y="700" on="1"/>
        <pt x="374" y="406" on="1"/>
        <pt x="320" y="368" on="1"/>
        <pt x="376" y="329" on="1"/>
        <pt x="609" y="0" on="1"/>
        <pt x="440" y="0" on="1"/>
      </contour>
    </TTGlyph>
    <TTGlyph name="Kcommaaccent" xMin="60" yMin="-273" xMax="609" yMax="700">
      <component glyphName="K" x="0" y="0" flags="0x204"/>
      <component glyphName="uniF6C3" x="161" y="0" flags="0x4"/>
    </TTGlyph>
    <TTGlyph name="L" xMin="60" yMin="0" xMax="503" yMax="700">
      <contour>
        <pt x="503" y="0" on="1"/>
        <pt x="60" y="0" on="1"/>
        <pt x="60" y="700" on="1"/>
        <pt x="197" y="700" on="1"/>
        <pt x="197" y="122" on="1"/>
        <pt x="503" y="122" on="1"/>
      </contour>
    </TTGlyph>
    <TTGlyph name="Lacute" xMin="60" yMin="0" xMax="503" yMax="870">
      <component glyphName="L" x="0" y="0" flags="0x204"/>
      <component glyphName="uniF6C9" x="44" y="0" flags="0x4"/>
    </TTGlyph>
    <TTGlyph name="Lcaron" xMin="60" yMin="0" xMax="503" yMax="700">
      <component glyphName="L" x="0" y="0" flags="0x204"/>
      <component glyphName="caron.l" x="110" y="0" flags="0x4"/>
    </TTGlyph>
    <TTGlyph name="Lcommaaccent" xMin="60" yMin="-273" xMax="503" yMax="700">
      <component glyphName="L" x="0" y="0" flags="0x204"/>
      <component glyphName="uniF6C3" x="121" y="0" flags="0x4"/>
    </TTGlyph>
    <TTGlyph name="Lslash" xMin="3" yMin="0" xMax="514" yMax="700">
      <contour>
        <pt x="3" y="318" on="1"/>
        <pt x="71" y="363" on="1"/>
        <pt x="71" y="700" on="1"/>
        <pt x="208" y="700" on="1"/>
        <pt x="208" y="455" on="1"/>
        <pt x="308" y="522" on="1"/>
        <pt x="308" y="397" on="1"/>
        <pt x="208" y="331" on="1"/>
        <pt x="208" y="122" on="1"/>
        <pt x="514" y="122" on="1"/>
        <pt x="514" y="0" on="1"/>
        <pt x="71" y="0" on="1"/>
        <pt x="71" y="241" on="1"/>
        <pt x="3" y="197" on="1"/>
      </contour>
    </TTGlyph>
    <TTGlyph name="M" xMin="60" yMin="0" xMax="740" yMax="700">
      <contour>
        <pt x="603" y="363" on="1"/>
        <pt x="618" y="502" on="1"/>
        <pt x="612" y="502" on="1"/>
        <pt x="569" y="390" on="1"/>
        <pt x="420" y="129" on="1"/>
        <pt x="376" y="129" on="1"/>
        <pt x="219" y="391" on="1"/>
        <pt x="175" y="502" on="1"/>
        <pt x="170" y="502" on="1"/>
        <pt x="190" y="364" on="1"/>
        <pt x="190" y="0" on="1"/>
        <pt x="60" y="0" on="1"/>
        <pt x="60" y="700" on="1"/>
        <pt x="185" y="700" on="1"/>
        <pt x="372" y="380" on="1"/>
        <pt x="405" y="300" on="1"/>
        <pt x="409" y="300" on="1"/>
        <pt x="439" y="382" on="1"/>
        <pt x="616" y="700" on="1"/>
        <pt x="740" y="700" on="1"/>
        <pt x="740" y="0" on="1"/>
        <pt x="603" y="0" on="1"/>
      </contour>
    </TTGlyph>
    <TTGlyph name="N" xMin="60" yMin="-5" xMax="597" yMax="705">
      <contour>
        <pt x="234" y="365" on="1"/>
        <pt x="179" y="475" on="1"/>
        <pt x="174" y="475" on="1"/>
        <pt x="190" y="365" on="1"/>
        <pt x="190" y="0" on="1"/>
        <pt x="60" y="0" on="1"/>
        <pt x="60" y="705" on="1"/>
        <pt x="160" y="705" on="1"/>
        <pt x="425" y="332" on="1"/>
        <pt x="478" y="225" on="1"/>
        <pt x="483" y="225" on="1"/>
        <pt x="467" y="332" on="1"/>
        <pt x="467" y="700" on="1"/>
        <pt x="597" y="700" on="1"/>
        <pt x="597" y="-5" on="1"/>
        <pt x="497" y="-5" on="1"/>
      </contour>
    </TTGlyph>
    <TTGlyph name="Nacute" xMin="60" yMin="-5" xMax="597" yMax="870">
      <component glyphName="N" x="0" y="0" flags="0x204"/>
      <component glyphName="uniF6C9" x="202" y="0" flags="0x4"/>
    </TTGlyph>
    <TTGlyph name="Ncaron" xMin="60" yMin="-5" xMax="597" yMax="870">
      <component glyphName="N" x="0" y="0" flags="0x204"/>
      <component glyphName="uniF6CA" x="96" y="0" flags="0x4"/>
    </TTGlyph>
    <TTGlyph name="Ncommaaccent" xMin="60" yMin="-273" xMax="597" yMax="705">
      <component glyphName="N" x="0" y="0" flags="0x204"/>
      <component glyphName="uniF6C3" x="194" y="0" flags="0x4"/>
    </TTGlyph>
    <TTGlyph name="Ntilde" xMin="60" yMin="-5" xMax="597" yMax="861">
      <component glyphName="N" x="0" y="0" flags="0x204"/>
      <component glyphName="uniF40D" x="78" y="0" flags="0x4"/>
    </TTGlyph>
    <TTGlyph name="O" xMin="38" yMin="-14" xMax="632" yMax="714">
      <contour>
        <pt x="38" y="350" on="1"/>
        <pt x="38" y="525" on="0"/>
        <pt x="192" y="714" on="0"/>
        <pt x="335" y="714" on="1"/>
        <pt x="410" y="714" on="0"/>
        <pt x="522" y="662" on="0"/>
        <pt x="596" y="566" on="0"/>
        <pt x="632" y="432" on="0"/>
        <pt x="632" y="350" on="1"/>
        <pt x="632" y="175" on="0"/>
        <pt x="477" y="-14" on="0"/>
        <pt x="335" y="-14" on="1"/>
        <pt x="259" y="-14" on="0"/>
        <pt x="147" y="38" on="0"/>
        <pt x="74" y="134" on="0"/>
        <pt x="38" y="268" on="0"/>
      </contour>
      <contour>
        <pt x="182" y="350" on="1"/>
        <pt x="182" y="297" on="0"/>
        <pt x="200" y="208" on="0"/>
        <pt x="237" y="144" on="0"/>
        <pt x="295" y="108" on="0"/>
        <pt x="335" y="108" on="1"/>
        <pt x="408" y="108" on="0"/>
        <pt x="488" y="222" on="0"/>
        <pt x="488" y="350" on="1"/>
        <pt x="488" y="401" on="0"/>
        <pt x="471" y="489" on="0"/>
        <pt x="435" y="555" on="0"/>
        <pt x="377" y="592" on="0"/>
        <pt x="335" y="592" on="1"/>
        <pt x="262" y="592" on="0"/>
        <pt x="182" y="475" on="0"/>
      </contour>
    </TTGlyph>
    <TTGlyph name="OE" xMin="38" yMin="-14" xMax="873" yMax="714">
      <contour>
        <pt x="453" y="567" on="1"/>
        <pt x="432" y="578" on="0"/>
        <pt x="372" y="592" on="0"/>
        <pt x="335" y="592" on="1"/>
        <pt x="262" y="592" on="0"/>
        <pt x="182" y="475" on="0"/>
        <pt x="182" y="350" on="1"/>
        <pt x="182" y="297" on="0"/>
        <pt x="200" y="208" on="0"/>
        <pt x="239" y="144" on="0"/>
        <pt x="299" y="108" on="0"/>
        <pt x="342" y="108" on="1"/>
        <pt x="371" y="108" on="0"/>
        <pt x="424" y="115" on="0"/>
        <pt x="453" y="127" on="1"/>
      </contour>
      <contour>
        <pt x="453" y="0" on="1"/>
        <pt x="434" y="-7" on="0"/>
        <pt x="367" y="-14" on="0"/>
        <pt x="335" y="-14" on="1"/>
        <pt x="259" y="-14" on="0"/>
        <pt x="147" y="38" on="0"/>
        <pt x="74" y="134" on="0"/>
        <pt x="38" y="268" on="0"/>
        <pt x="38" y="350" on="1"/>
        <pt x="38" y="525" on="0"/>
        <pt x="192" y="714" on="0"/>
        <pt x="335" y="714" on="1"/>
        <pt x="374" y="714" on="0"/>
        <pt x="431" y="705" on="0"/>
        <pt x="453" y="700" on="1"/>
        <pt x="868" y="700" on="1"/>
        <pt x="868" y="578" on="1"/>
        <pt x="590" y="578" on="1"/>
        <pt x="590" y="415" on="1"/>
        <pt x="843" y="415" on="1"/>
        <pt x="843" y="293" on="1"/>
        <pt x="590" y="293" on="1"/>
        <pt x="590" y="122" on="1"/>
        <pt x="873" y="122" on="1"/>
        <pt x="873" y="0" on="1"/>
      </contour>
    </TTGlyph>
    <TTGlyph name="Oacute" xMin="38" yMin="-14" xMax="632" yMax="870">
      <component glyphName="O" x="0" y="0" flags="0x204"/>
      <component glyphName="uniF6C9" x="204" y="0" flags="0x4"/>
    </TTGlyph>
    <TTGlyph name="Ocircumflex" xMin="38" yMin="-14" xMax="632" yMax="870">
      <component glyphName="O" x="0" y="0" flags="0x204"/>
      <component glyphName="uniF408" x="94" y="0" flags="0x4"/>
    </TTGlyph>
    <TTGlyph name="Odieresis" xMin="38" yMin="-14" xMax="632" yMax="856">
      <component glyphName="O" x="0" y="0" flags="0x204"/>
      <component glyphName="uniF6CB" x="90" y="0" flags="0x4"/>
    </TTGlyph>
    <TTGlyph name="Ograve" xMin="38" yMin="-14" xMax="632" yMax="870">
      <component glyphName="O" x="0" y="0" flags="0x204"/>
      <component glyphName="uniF6CE" x="89" y="0" flags="0x4"/>
    </TTGlyph>
    <TTGlyph name="Ohungarumlaut" xMin="38" yMin="-14" xMax="632" yMax="850">
      <component glyphName="O" x="0" y="0" flags="0x204"/>
      <component glyphName="uniF6CF" x="131" y="0" flags="0x4"/>
    </TTGlyph>
    <TTGlyph name="Omacron" xMin="38" yMin="-14" xMax="632" yMax="856">
      <component glyphName="O" x="0" y="0" flags="0x204"/>
      <component glyphName="uniF6D0" x="107" y="0" flags="0x4"/>
    </TTGlyph>
    <TTGlyph name="Oslash" xMin="38" yMin="-14" xMax="632" yMax="715">
      <contour>
        <pt x="111" y="86" on="1"/>
        <pt x="74" y="134" on="0"/>
        <pt x="38" y="267" on="0"/>
        <pt x="38" y="350" on="1"/>
        <pt x="38" y="525" on="0"/>
        <pt x="192" y="714" on="0"/>
        <pt x="335" y="714" on="1"/>
        <pt x="380" y="714" on="0"/>
        <pt x="456" y="694" on="0"/>
        <pt x="487" y="676" on="1"/>
        <pt x="512" y="715" on="1"/>
        <pt x="597" y="665" on="1"/>
        <pt x="562" y="609" on="1"/>
        <pt x="597" y="561" on="0"/>
        <pt x="632" y="430" on="0"/>
        <pt x="632" y="350" on="1"/>
        <pt x="632" y="175" on="0"/>
        <pt x="477" y="-14" on="0"/>
        <pt x="335" y="-14" on="1"/>
        <pt x="291" y="-14" on="0"/>
        <pt x="219" y="3" on="0"/>
        <pt x="188" y="19" on="1"/>
        <pt x="167" y="-14" on="1"/>
        <pt x="81" y="39" on="1"/>
      </contour>
      <contour>
        <pt x="182" y="350" on="1"/>
        <pt x="182" y="314" on="0"/>
        <pt x="190" y="250" on="0"/>
        <pt x="198" y="223" on="1"/>
        <pt x="417" y="565" on="1"/>
        <pt x="382" y="592" on="0"/>
        <pt x="335" y="592" on="1"/>
        <pt x="262" y="592" on="0"/>
        <pt x="182" y="475" on="0"/>
      </contour>
      <contour>
        <pt x="488" y="350" on="1"/>
        <pt x="488" y="383" on="0"/>
        <pt x="482" y="444" on="0"/>
        <pt x="474" y="470" on="1"/>
        <pt x="259" y="130" on="1"/>
        <pt x="292" y="108" on="0"/>
        <pt x="335" y="108" on="1"/>
        <pt x="408" y="108" on="0"/>
        <pt x="488" y="222" on="0"/>
      </contour>
    </TTGlyph>
    <TTGlyph name="Otilde" xMin="38" yMin="-14" xMax="632" yMax="861">
      <component glyphName="O" x="0" y="0" flags="0x204"/>
      <component glyphName="uniF40D" x="84" y="0" flags="0x4"/>
    </TTGlyph>
    <TTGlyph name="P" xMin="60" yMin="0" xMax="547" yMax="710">
      <contour>
        <pt x="60" y="693" on="1"/>
        <pt x="102" y="701" on="0"/>
        <pt x="203" y="710" on="0"/>
        <pt x="253" y="710" on="1"/>
        <pt x="305" y="710" on="0"/>
        <pt x="410" y="693" on="0"/>
        <pt x="494" y="642" on="0"/>
        <pt x="547" y="551" on="0"/>
        <pt x="547" y="478" on="1"/>
        <pt x="547" y="412" on="0"/>
        <pt x="501" y="321" on="0"/>
        <pt x="425" y="263" on="0"/>
        <pt x="328" y="237" on="0"/>
        <pt x="276" y="237" on="1"/>
        <pt x="271" y="237" on="0"/>
        <pt x="249" y="237" on="0"/>
        <pt x="225" y="238" on="0"/>
        <pt x="202" y="240" on="0"/>
        <pt x="197" y="241" on="1"/>
        <pt x="197" y="0" on="1"/>
        <pt x="60" y="0" on="1"/>
      </contour>
      <contour>
        <pt x="264" y="592" on="1"/>
        <pt x="244" y="592" on="0"/>
        <pt x="208" y="589" on="0"/>
        <pt x="197" y="587" on="1"/>
        <pt x="197" y="360" on="1"/>
        <pt x="201" y="359" on="0"/>
        <pt x="217" y="357" on="0"/>
        <pt x="235" y="356" on="0"/>
        <pt x="252" y="356" on="0"/>
        <pt x="256" y="356" on="1"/>
        <pt x="283" y="356" on="0"/>
        <pt x="336" y="366" on="0"/>
        <pt x="378" y="393" on="0"/>
        <pt x="403" y="441" on="0"/>
        <pt x="403" y="480" on="1"/>
        <pt x="403" y="513" on="0"/>
        <pt x="379" y="556" on="0"/>
        <pt x="340" y="582" on="0"/>
        <pt x="290" y="592" on="0"/>
      </contour>
    </TTGlyph>
    <TTGlyph name="Q" xMin="38" yMin="-215" xMax="702" yMax="714">
      <contour>
        <pt x="702" y="-202" on="1"/>
        <pt x="654" y="-215" on="0"/>
        <pt x="605" y="-215" on="1"/>
        <pt x="554" y="-215" on="0"/>
        <pt x="458" y="-194" on="0"/>
        <pt x="368" y="-170" on="0"/>
        <pt x="284" y="-149" on="0"/>
        <pt x="247" y="-149" on="1"/>
        <pt x="223" y="-149" on="0"/>
        <pt x="201" y="-155" on="1"/>
        <pt x="201" y="-37" on="1"/>
        <pt x="229" y="-31" on="0"/>
        <pt x="259" y="-31" on="1"/>
        <pt x="301" y="-31" on="0"/>
        <pt x="384" y="-51" on="0"/>
        <pt x="470" y="-74" on="0"/>
        <pt x="560" y="-94" on="0"/>
        <pt x="610" y="-94" on="1"/>
        <pt x="632" y="-94" on="0"/>
        <pt x="678" y="-89" on="0"/>
        <pt x="702" y="-83" on="1"/>
      </contour>
      <contour>
        <pt x="38" y="350" on="1"/>
        <pt x="38" y="525" on="0"/>
        <pt x="192" y="714" on="0"/>
        <pt x="335" y="714" on="1"/>
        <pt x="410" y="714" on="0"/>
        <pt x="522" y="662" on="0"/>
        <pt x="596" y="566" on="0"/>
        <pt x="632" y="432" on="0"/>
        <pt x="632" y="350" on="1"/>
        <pt x="632" y="175" on="0"/>
        <pt x="477" y="-14" on="0"/>
        <pt x="335" y="-14" on="1"/>
        <pt x="259" y="-14" on="0"/>
        <pt x="147" y="38" on="0"/>
        <pt x="74" y="134" on="0"/>
        <pt x="38" y="268" on="0"/>
      </contour>
      <contour>
        <pt x="182" y="350" on="1"/>
        <pt x="182" y="297" on="0"/>
        <pt x="200" y="208" on="0"/>
        <pt x="237" y="144" on="0"/>
        <pt x="295" y="108" on="0"/>
        <pt x="335" y="108" on="1"/>
        <pt x="408" y="108" on="0"/>
        <pt x="488" y="222" on="0"/>
        <pt x="488" y="350" on="1"/>
        <pt x="488" y="401" on="0"/>
        <pt x="471" y="489" on="0"/>
        <pt x="435" y="555" on="0"/>
        <pt x="377" y="592" on="0"/>
        <pt x="335" y="592" on="1"/>
        <pt x="262" y="592" on="0"/>
        <pt x="182" y="475" on="0"/>
      </contour>
    </TTGlyph>
    <TTGlyph name="R" xMin="60" yMin="0" xMax="586" yMax="710">
      <contour>
        <pt x="60" y="693" on="1"/>
        <pt x="83" y="697" on="0"/>
        <pt x="136" y="704" on="0"/>
        <pt x="189" y="708" on="0"/>
        <pt x="239" y="710" on="0"/>
        <pt x="260" y="710" on="1"/>
        <pt x="309" y="710" on="0"/>
        <pt x="404" y="692" on="0"/>
        <pt x="479" y="648" on="0"/>
        <pt x="524" y="571" on="0"/>
        <pt x="524" y="513" on="1"/>
        <pt x="524" y="427" on="0"/>
        <pt x="444" y="319" on="0"/>
        <pt x="377" y="298" on="1"/>
        <pt x="426" y="267" on="1"/>
        <pt x="586" y="0" on="1"/>
        <pt x="428" y="0" on="1"/>
        <pt x="269" y="274" on="1"/>
        <pt x="197" y="287" on="1"/>
        <pt x="197" y="0" on="1"/>
        <pt x="60" y="0" on="1"/>
      </contour>
      <contour>
        <pt x="270" y="588" on="1"/>
        <pt x="249" y="588" on="0"/>
        <pt x="208" y="586" on="0"/>
        <pt x="197" y="583" on="1"/>
        <pt x="197" y="380" on="1"/>
        <pt x="255" y="380" on="1"/>
        <pt x="312" y="380" on="0"/>
        <pt x="380" y="432" on="0"/>
        <pt x="380" y="492" on="1"/>
        <pt x="380" y="537" on="0"/>
        <pt x="324" y="588" on="0"/>
      </contour>
    </TTGlyph>
    <TTGlyph name="Racute" xMin="60" yMin="0" xMax="586" yMax="870">
      <component glyphName="R" x="0" y="0" flags="0x204"/>
      <component glyphName="uniF6C9" x="128" y="0" flags="0x4"/>
    </TTGlyph>
    <TTGlyph name="Rcaron" xMin="60" yMin="0" xMax="586" yMax="870">
      <component glyphName="R" x="0" y="0" flags="0x204"/>
      <component glyphName="uniF6CA" x="22" y="0" flags="0x4"/>
    </TTGlyph>
    <TTGlyph name="Rcommaaccent" xMin="60" yMin="-273" xMax="586" yMax="710">
      <component glyphName="R" x="0" y="0" flags="0x204"/>
      <component glyphName="uniF6C3" x="168" y="0" flags="0x4"/>
    </TTGlyph>
    <TTGlyph name="S" xMin="27" yMin="-14" xMax="499" yMax="714">
      <contour>
        <pt x="362" y="188" on="1"/>
        <pt x="362" y="220" on="0"/>
        <pt x="315" y="260" on="0"/>
        <pt x="244" y="293" on="0"/>
        <pt x="161" y="328" on="0"/>
        <pt x="90" y="379" on="0"/>
        <pt x="43" y="455" on="0"/>
        <pt x="43" y="514" on="1"/>
        <pt x="43" y="565" on="0"/>
        <pt x="77" y="640" on="0"/>
        <pt x="140" y="690" on="0"/>
        <pt x="226" y="714" on="0"/>
        <pt x="279" y="714" on="1"/>
        <pt x="340" y="714" on="0"/>
        <pt x="448" y="693" on="0"/>
        <pt x="483" y="673" on="1"/>
        <pt x="440" y="558" on="1"/>
        <pt x="418" y="572" on="0"/>
        <pt x="330" y="595" on="0"/>
        <pt x="279" y="595" on="1"/>
        <pt x="231" y="595" on="0"/>
        <pt x="180" y="557" on="0"/>
        <pt x="180" y="525" on="1"/>
        <pt x="180" y="495" on="0"/>
        <pt x="227" y="455" on="0"/>
        <pt x="298" y="421" on="0"/>
        <pt x="381" y="385" on="0"/>
        <pt x="452" y="334" on="0"/>
        <pt x="499" y="259" on="0"/>
        <pt x="499" y="203" on="1"/>
        <pt x="499" y="147" on="0"/>
        <pt x="462" y="66" on="0"/>
        <pt x="395" y="12" on="0"/>
        <pt x="300" y="-14" on="0"/>
        <pt x="243" y="-14" on="1"/>
        <pt x="168" y="-14" on="0"/>
        <pt x="54" y="14" on="0"/>
        <pt x="27" y="28" on="1"/>
        <pt x="71" y="145" on="1"/>
        <pt x="82" y="139" on="0"/>
        <pt x="117" y="125" on="0"/>
        <pt x="161" y="113" on="0"/>
        <pt x="210" y="105" on="0"/>
        <pt x="236" y="105" on="1"/>
        <pt x="297" y="105" on="0"/>
        <pt x="362" y="146" on="0"/>
      </contour>
    </TTGlyph>
    <TTGlyph name="Sacute" xMin="27" yMin="-14" xMax="499" yMax="870">
      <component glyphName="S" x="0" y="0" flags="0x204"/>
      <component glyphName="uniF6C9" x="138" y="0" flags="0x4"/>
    </TTGlyph>
    <TTGlyph name="Scaron" xMin="27" yMin="-14" xMax="499" yMax="870">
      <component glyphName="S" x="0" y="0" flags="0x204"/>
      <component glyphName="uniF6CA" x="47" y="0" flags="0x4"/>
    </TTGlyph>
    <TTGlyph name="Scedilla" xMin="27" yMin="-210" xMax="499" yMax="714">
      <contour>
        <pt x="362" y="188" on="1"/>
        <pt x="362" y="220" on="0"/>
        <pt x="315" y="260" on="0"/>
        <pt x="244" y="293" on="0"/>
        <pt x="161" y="328" on="0"/>
        <pt x="90" y="379" on="0"/>
        <pt x="43" y="455" on="0"/>
        <pt x="43" y="514" on="1"/>
        <pt x="43" y="565" on="0"/>
        <pt x="77" y="640" on="0"/>
        <pt x="140" y="690" on="0"/>
        <pt x="226" y="714" on="0"/>
        <pt x="279" y="714" on="1"/>
        <pt x="340" y="714" on="0"/>
        <pt x="448" y="693" on="0"/>
        <pt x="483" y="673" on="1"/>
        <pt x="440" y="558" on="1"/>
        <pt x="418" y="572" on="0"/>
        <pt x="330" y="595" on="0"/>
        <pt x="279" y="595" on="1"/>
        <pt x="231" y="595" on="0"/>
        <pt x="180" y="557" on="0"/>
        <pt x="180" y="525" on="1"/>
        <pt x="180" y="495" on="0"/>
        <pt x="227" y="455" on="0"/>
        <pt x="298" y="421" on="0"/>
        <pt x="381" y="385" on="0"/>
        <pt x="452" y="334" on="0"/>
        <pt x="499" y="259" on="0"/>
        <pt x="499" y="203" on="1"/>
        <pt x="499" y="108" on="0"/>
        <pt x="396" y="4" on="0"/>
        <pt x="308" y="-9" on="1"/>
        <pt x="290" y="-43" on="1"/>
        <pt x="331" y="-47" on="0"/>
        <pt x="378" y="-82" on="0"/>
        <pt x="378" y="-118" on="1"/>
        <pt x="378" y="-141" on="0"/>
        <pt x="355" y="-175" on="0"/>
        <pt x="315" y="-198" on="0"/>
        <pt x="261" y="-210" on="0"/>
        <pt x="230" y="-210" on="1"/>
        <pt x="199" y="-210" on="0"/>
        <pt x="166" y="-204" on="1"/>
        <pt x="175" y="-156" on="1"/>
        <pt x="182" y="-157" on="0"/>
        <pt x="194" y="-157" on="0"/>
        <pt x="199" y="-157" on="1"/>
        <pt x="237" y="-157" on="0"/>
        <pt x="259" y="-139" on="0"/>
        <pt x="259" y="-127" on="1"/>
        <pt x="259" y="-99" on="0"/>
        <pt x="173" y="-95" on="1"/>
        <pt x="221" y="-14" on="1"/>
        <pt x="153" y="-12" on="0"/>
        <pt x="52" y="14" on="0"/>
        <pt x="27" y="28" on="1"/>
        <pt x="71" y="145" on="1"/>
        <pt x="82" y="139" on="0"/>
        <pt x="117" y="125" on="0"/>
        <pt x="161" y="113" on="0"/>
        <pt x="210" y="105" on="0"/>
        <pt x="236" y="105" on="1"/>
        <pt x="297" y="105" on="0"/>
        <pt x="362" y="146" on="0"/>
      </contour>
    </TTGlyph>
    <TTGlyph name="Scircumflex" xMin="27" yMin="-14" xMax="499" yMax="870">
      <component glyphName="S" x="0" y="0" flags="0x204"/>
      <component glyphName="uniF408" x="37" y="0" flags="0x4"/>
    </TTGlyph>
    <TTGlyph name="Scommaaccent" xMin="27" yMin="-273" xMax="499" yMax="714">
      <component glyphName="S" x="0" y="0" flags="0x204"/>
      <component glyphName="uniF6C3" x="125" y="0" flags="0x4"/>
    </TTGlyph>
    <TTGlyph name="T" xMin="11" yMin="0" xMax="557" yMax="700">
      <contour>
        <pt x="557" y="578" on="1"/>
        <pt x="353" y="578" on="1"/>
        <pt x="353" y="0" on="1"/>
        <pt x="216" y="0" on="1"/>
        <pt x="216" y="578" on="1"/>
        <pt x="11" y="578" on="1"/>
        <pt x="11" y="700" on="1"/>
        <pt x="557" y="700" on="1"/>
      </contour>
    </TTGlyph>
    <TTGlyph name="Tcaron" xMin="11" yMin="0" xMax="557" yMax="870">
      <component glyphName="T" x="0" y="0" flags="0x204"/>
      <component glyphName="uniF6CA" x="46" y="0" flags="0x4"/>
    </TTGlyph>
    <TTGlyph name="Tcedilla" xMin="11" yMin="-210" xMax="557" yMax="700">
      <contour>
        <pt x="216" y="0" on="1"/>
        <pt x="216" y="578" on="1"/>
        <pt x="11" y="578" on="1"/>
        <pt x="11" y="700" on="1"/>
        <pt x="557" y="700" on="1"/>
        <pt x="557" y="578" on="1"/>
        <pt x="353" y="578" on="1"/>
        <pt x="353" y="0" on="1"/>
        <pt x="326" y="0" on="1"/>
        <pt x="302" y="-43" on="1"/>
        <pt x="343" y="-47" on="0"/>
        <pt x="390" y="-82" on="0"/>
        <pt x="390" y="-118" on="1"/>
        <pt x="390" y="-141" on="0"/>
        <pt x="367" y="-175" on="0"/>
        <pt x="327" y="-198" on="0"/>
        <pt x="273" y="-210" on="0"/>
        <pt x="242" y="-210" on="1"/>
        <pt x="211" y="-210" on="0"/>
        <pt x="178" y="-204" on="1"/>
        <pt x="187" y="-156" on="1"/>
        <pt x="194" y="-157" on="0"/>
        <pt x="206" y="-157" on="0"/>
        <pt x="211" y="-157" on="1"/>
        <pt x="249" y="-157" on="0"/>
        <pt x="271" y="-139" on="0"/>
        <pt x="271" y="-127" on="1"/>
        <pt x="271" y="-99" on="0"/>
        <pt x="185" y="-95" on="1"/>
        <pt x="242" y="0" on="1"/>
      </contour>
    </TTGlyph>
    <TTGlyph name="Tcommaaccent" xMin="11" yMin="-273" xMax="557" yMax="700">
      <component glyphName="T" x="0" y="0" flags="0x204"/>
      <component glyphName="uniF6C3" x="145" y="0" flags="0x4"/>
    </TTGlyph>
    <TTGlyph name="Thorn" xMin="60" yMin="0" xMax="547" yMax="700">
      <contour>
        <pt x="60" y="700" on="1"/>
        <pt x="197" y="700" on="1"/>
        <pt x="197" y="628" on="1"/>
        <pt x="211" y="629" on="0"/>
        <pt x="239" y="630" on="0"/>
        <pt x="253" y="630" on="1"/>
        <pt x="305" y="630" on="0"/>
        <pt x="410" y="613" on="0"/>
        <pt x="494" y="562" on="0"/>
        <pt x="547" y="471" on="0"/>
        <pt x="547" y="398" on="1"/>
        <pt x="547" y="332" on="0"/>
        <pt x="501" y="241" on="0"/>
        <pt x="425" y="183" on="0"/>
        <pt x="328" y="157" on="0"/>
        <pt x="276" y="157" on="1"/>
        <pt x="271" y="157" on="0"/>
        <pt x="249" y="157" on="0"/>
        <pt x="225" y="158" on="0"/>
        <pt x="202" y="160" on="0"/>
        <pt x="197" y="161" on="1"/>
        <pt x="197" y="0" on="1"/>
        <pt x="60" y="0" on="1"/>
      </contour>
      <contour>
        <pt x="264" y="512" on="1"/>
        <pt x="244" y="512" on="0"/>
        <pt x="208" y="509" on="0"/>
        <pt x="197" y="507" on="1"/>
        <pt x="197" y="280" on="1"/>
        <pt x="201" y="279" on="0"/>
        <pt x="217" y="277" on="0"/>
        <pt x="235" y="276" on="0"/>
        <pt x="252" y="276" on="0"/>
        <pt x="256" y="276" on="1"/>
        <pt x="283" y="276" on="0"/>
        <pt x="336" y="286" on="0"/>
        <pt x="378" y="313" on="0"/>
        <pt x="403" y="361" on="0"/>
        <pt x="403" y="400" on="1"/>
        <pt x="403" y="433" on="0"/>
        <pt x="379" y="476" on="0"/>
        <pt x="340" y="502" on="0"/>
        <pt x="290" y="512" on="0"/>
      </contour>
    </TTGlyph>
    <TTGlyph name="U" xMin="57" yMin="-12" xMax="570" yMax="700">
      <contour>
        <pt x="440" y="700" on="1"/>
        <pt x="570" y="700" on="1"/>
        <pt x="570" y="248" on="1"/>
        <pt x="570" y="180" on="0"/>
        <pt x="534" y="82" on="0"/>
        <pt x="470" y="18" on="0"/>
        <pt x="378" y="-12" on="0"/>
        <pt x="323" y="-12" on="1"/>
        <pt x="57" y="-12" on="0"/>
        <pt x="57" y="231" on="1"/>
        <pt x="57" y="700" on="1"/>
        <pt x="194" y="700" on="1"/>
        <pt x="194" y="258" on="1"/>
        <pt x="194" y="217" on="0"/>
        <pt x="209" y="160" on="0"/>
        <pt x="241" y="125" on="0"/>
        <pt x="289" y="110" on="0"/>
        <pt x="321" y="110" on="1"/>
        <pt x="384" y="110" on="0"/>
        <pt x="440" y="180" on="0"/>
        <pt x="440" y="258" on="1"/>
      </contour>
    </TTGlyph>
    <TTGlyph name="Uacute" xMin="57" yMin="-12" xMax="570" yMax="870">
      <component glyphName="U" x="0" y="0" flags="0x204"/>
      <component glyphName="uniF6C9" x="201" y="0" flags="0x4"/>
    </TTGlyph>
    <TTGlyph name="Ubreve" xMin="57" yMin="-12" xMax="570" yMax="875">
      <component glyphName="U" x="0" y="0" flags="0x204"/>
      <component glyphName="uniF406" x="61" y="0" flags="0x4"/>
    </TTGlyph>
    <TTGlyph name="Ucircumflex" xMin="57" yMin="-12" xMax="570" yMax="870">
      <component glyphName="U" x="0" y="0" flags="0x204"/>
      <component glyphName="uniF408" x="80" y="0" flags="0x4"/>
    </TTGlyph>
    <TTGlyph name="Udieresis" xMin="57" yMin="-12" xMax="570" yMax="856">
      <component glyphName="U" x="0" y="0" flags="0x204"/>
      <component glyphName="uniF6CB" x="73" y="0" flags="0x4"/>
    </TTGlyph>
    <TTGlyph name="Ugrave" xMin="57" yMin="-12" xMax="570" yMax="870">
      <component glyphName="U" x="0" y="0" flags="0x204"/>
      <component glyphName="uniF6CE" x="72" y="0" flags="0x4"/>
    </TTGlyph>
    <TTGlyph name="Uhungarumlaut" xMin="57" yMin="-12" xMax="570" yMax="850">
      <component glyphName="U" x="0" y="0" flags="0x204"/>
      <component glyphName="uniF6CF" x="106" y="0" flags="0x4"/>
    </TTGlyph>
    <TTGlyph name="Umacron" xMin="57" yMin="-12" xMax="570" yMax="856">
      <component glyphName="U" x="0" y="0" flags="0x204"/>
      <component glyphName="uniF6D0" x="85" y="0" flags="0x4"/>
    </TTGlyph>
    <TTGlyph name="Uogonek" xMin="57" yMin="-201" xMax="570" yMax="700">
      <contour>
        <pt x="440" y="700" on="1"/>
        <pt x="570" y="700" on="1"/>
        <pt x="570" y="248" on="1"/>
        <pt x="570" y="180" on="0"/>
        <pt x="534" y="82" on="0"/>
        <pt x="502" y="50" on="1"/>
        <pt x="472" y="20" on="0"/>
        <pt x="429" y="5" on="1"/>
        <pt x="384" y="-26" on="0"/>
        <pt x="384" y="-68" on="1"/>
        <pt x="384" y="-81" on="0"/>
        <pt x="395" y="-102" on="0"/>
        <pt x="417" y="-114" on="0"/>
        <pt x="448" y="-113" on="0"/>
        <pt x="468" y="-103" on="1"/>
        <pt x="487" y="-165" on="1"/>
        <pt x="472" y="-177" on="0"/>
        <pt x="407" y="-201" on="0"/>
        <pt x="372" y="-201" on="1"/>
        <pt x="316" y="-201" on="0"/>
        <pt x="257" y="-146" on="0"/>
        <pt x="257" y="-105" on="1"/>
        <pt x="257" y="-50" on="0"/>
        <pt x="310" y="-12" on="1"/>
        <pt x="57" y="-6" on="0"/>
        <pt x="57" y="231" on="1"/>
        <pt x="57" y="700" on="1"/>
        <pt x="194" y="700" on="1"/>
        <pt x="194" y="258" on="1"/>
        <pt x="194" y="217" on="0"/>
        <pt x="209" y="160" on="0"/>
        <pt x="241" y="125" on="0"/>
        <pt x="289" y="110" on="0"/>
        <pt x="321" y="110" on="1"/>
        <pt x="384" y="110" on="0"/>
        <pt x="440" y="180" on="0"/>
        <pt x="440" y="258" on="1"/>
      </contour>
    </TTGlyph>
    <TTGlyph name="Uring" xMin="57" yMin="-12" xMax="570" yMax="862">
      <component glyphName="U" x="0" y="0" flags="0x204"/>
      <component glyphName="uniF40C" x="132" y="0" flags="0x4"/>
    </TTGlyph>
    <TTGlyph name="V" xMin="-9" yMin="-5" xMax="611" yMax="700">
      <contour>
        <pt x="290" y="289" on="1"/>
        <pt x="308" y="170" on="1"/>
        <pt x="313" y="170" on="1"/>
        <pt x="333" y="290" on="1"/>
        <pt x="467" y="700" on="1"/>
        <pt x="611" y="700" on="1"/>
        <pt x="351" y="-5" on="1"/>
        <pt x="253" y="-5" on="1"/>
        <pt x="-9" y="700" on="1"/>
        <pt x="150" y="700" on="1"/>
      </contour>
    </TTGlyph>
    <TTGlyph name="W" xMin="0" yMin="-5" xMax="862" yMax="700">
      <contour>
        <pt x="242" y="309" on="1"/>
        <pt x="255" y="185" on="1"/>
        <pt x="259" y="185" on="1"/>
        <pt x="273" y="311" on="1"/>
        <pt x="395" y="700" on="1"/>
        <pt x="485" y="700" on="1"/>
        <pt x="605" y="309" on="1"/>
        <pt x="619" y="185" on="1"/>
        <pt x="623" y="185" on="1"/>
        <pt x="638" y="311" on="1"/>
        <pt x="723" y="700" on="1"/>
        <pt x="862" y="700" on="1"/>
        <pt x="669" y="-5" on="1"/>
        <pt x="577" y="-5" on="1"/>
        <pt x="452" y="384" on="1"/>
        <pt x="435" y="491" on="1"/>
        <pt x="430" y="491" on="1"/>
        <pt x="413" y="383" on="1"/>
        <pt x="289" y="-5" on="1"/>
        <pt x="192" y="-5" on="1"/>
        <pt x="0" y="700" on="1"/>
        <pt x="149" y="700" on="1"/>
      </contour>
    </TTGlyph>
    <TTGlyph name="X" xMin="10" yMin="0" xMax="622" yMax="700">
      <contour>
        <pt x="225" y="356" on="1"/>
        <pt x="30" y="700" on="1"/>
        <pt x="195" y="700" on="1"/>
        <pt x="303" y="498" on="1"/>
        <pt x="327" y="427" on="1"/>
        <pt x="350" y="498" on="1"/>
        <pt x="463" y="700" on="1"/>
        <pt x="612" y="700" on="1"/>
        <pt x="410" y="363" on="1"/>
        <pt x="622" y="0" on="1"/>
        <pt x="459" y="0" on="1"/>
        <pt x="336" y="216" on="1"/>
        <pt x="309" y="290" on="1"/>
        <pt x="283" y="216" on="1"/>
        <pt x="159" y="0" on="1"/>
        <pt x="10" y="0" on="1"/>
      </contour>
    </TTGlyph>
    <TTGlyph name="Y" xMin="-2" yMin="0" xMax="594" yMax="700">
      <contour>
        <pt x="228" y="260" on="1"/>
        <pt x="-2" y="700" on="1"/>
        <pt x="161" y="700" on="1"/>
        <pt x="289" y="437" on="1"/>
        <pt x="303" y="363" on="1"/>
        <pt x="308" y="363" on="1"/>
        <pt x="323" y="439" on="1"/>
        <pt x="447" y="700" on="1"/>
        <pt x="594" y="700" on="1"/>
        <pt x="365" y="261" on="1"/>
        <pt x="365" y="0" on="1"/>
        <pt x="228" y="0" on="1"/>
      </contour>
    </TTGlyph>
    <TTGlyph name="Yacute" xMin="-2" yMin="0" xMax="594" yMax="870">
      <component glyphName="Y" x="0" y="0" flags="0x204"/>
      <component glyphName="uniF6C9" x="162" y="0" flags="0x4"/>
    </TTGlyph>
    <TTGlyph name="Ydieresis" xMin="-2" yMin="0" xMax="594" yMax="856">
      <component glyphName="Y" x="0" y="0" flags="0x204"/>
      <component glyphName="uniF6CB" x="56" y="0" flags="0x4"/>
    </TTGlyph>
    <TTGlyph name="Z" xMin="27" yMin="0" xMax="512" yMax="700">
      <contour>
        <pt x="27" y="122" on="1"/>
        <pt x="323" y="536" on="1"/>
        <pt x="375" y="578" on="1"/>
        <pt x="27" y="578" on="1"/>
        <pt x="27" y="700" on="1"/>
        <pt x="512" y="700" on="1"/>
        <pt x="512" y="578" on="1"/>
        <pt x="214" y="160" on="1"/>
        <pt x="163" y="122" on="1"/>
        <pt x="512" y="122" on="1"/>
        <pt x="512" y="0" on="1"/>
        <pt x="27" y="0" on="1"/>
      </contour>
    </TTGlyph>
    <TTGlyph name="Zacute" xMin="27" yMin="0" xMax="512" yMax="870">
      <component glyphName="Z" x="0" y="0" flags="0x204"/>
      <component glyphName="uniF6C9" x="134" y="0" flags="0x4"/>
    </TTGlyph>
    <TTGlyph name="Zcaron" xMin="27" yMin="0" xMax="512" yMax="870">
      <component glyphName="Z" x="0" y="0" flags="0x204"/>
      <component glyphName="uniF6CA" x="28" y="0" flags="0x4"/>
    </TTGlyph>
    <TTGlyph name="Zdotaccent" xMin="27" yMin="0" xMax="512" yMax="860">
      <component glyphName="Z" x="0" y="0" flags="0x204"/>
      <component glyphName="uniF40B" x="126" y="0" flags="0x4"/>
    </TTGlyph>
    <TTGlyph name="a" xMin="23" yMin="-8" xMax="455" yMax="510">
      <contour>
        <pt x="54" y="471" on="1"/>
        <pt x="94" y="489" on="0"/>
        <pt x="204" y="510" on="0"/>
        <pt x="264" y="510" on="1"/>
        <pt x="316" y="510" on="0"/>
        <pt x="386" y="485" on="0"/>
        <pt x="427" y="439" on="0"/>
        <pt x="444" y="375" on="0"/>
        <pt x="444" y="335" on="1"/>
        <pt x="444" y="291" on="0"/>
        <pt x="438" y="202" on="0"/>
        <pt x="437" y="116" on="0"/>
        <pt x="443" y="35" on="0"/>
        <pt x="455" y="-1" on="1"/>
        <pt x="349" y="-1" on="1"/>
        <pt x="328" y="68" on="1"/>
        <pt x="323" y="68" on="1"/>
        <pt x="303" y="37" on="0"/>
        <pt x="232" y="-8" on="0"/>
        <pt x="176" y="-8" on="1"/>
        <pt x="141" y="-8" on="0"/>
        <pt x="85" y="13" on="0"/>
        <pt x="45" y="52" on="0"/>
        <pt x="23" y="105" on="0"/>
        <pt x="23" y="138" on="1"/>
        <pt x="23" y="184" on="0"/>
        <pt x="64" y="247" on="0"/>
        <pt x="141" y="286" on="0"/>
        <pt x="248" y="301" on="0"/>
        <pt x="314" y="298" on="1"/>
        <pt x="321" y="354" on="0"/>
        <pt x="291" y="403" on="0"/>
        <pt x="239" y="403" on="1"/>
        <pt x="200" y="403" on="0"/>
        <pt x="113" y="387" on="0"/>
        <pt x="85" y="374" on="1"/>
      </contour>
      <contour>
        <pt x="219" y="99" on="1"/>
        <pt x="258" y="99" on="0"/>
        <pt x="304" y="134" on="0"/>
        <pt x="315" y="154" on="1"/>
        <pt x="315" y="219" on="1"/>
        <pt x="284" y="222" on="0"/>
        <pt x="227" y="218" on="0"/>
        <pt x="183" y="204" on="0"/>
        <pt x="157" y="178" on="0"/>
        <pt x="157" y="158" on="1"/>
        <pt x="157" y="130" on="0"/>
        <pt x="190" y="99" on="0"/>
      </contour>
    </TTGlyph>
    <TTGlyph name="aacute" xMin="23" yMin="-8" xMax="455" yMax="720">
      <component glyphName="a" x="0" y="0" flags="0x204"/>
      <component glyphName="acute" x="124" y="0" flags="0x4"/>
    </TTGlyph>
    <TTGlyph name="abreve" xMin="23" yMin="-8" xMax="455" yMax="720">
      <component glyphName="a" x="0" y="0" flags="0x204"/>
      <component glyphName="breve" x="20" y="0" flags="0x4"/>
    </TTGlyph>
    <TTGlyph name="acircumflex" xMin="23" yMin="-8" xMax="455" yMax="732">
      <component glyphName="a" x="0" y="0" flags="0x204"/>
      <component glyphName="circumflex" x="33" y="0" flags="0x4"/>
    </TTGlyph>
    <TTGlyph name="acute" xMin="60" yMin="566" xMax="245" yMax="720">
      <contour>
        <pt x="113" y="720" on="1"/>
        <pt x="245" y="720" on="1"/>
        <pt x="245" y="690" on="1"/>
        <pt x="134" y="566" on="1"/>
        <pt x="60" y="566" on="1"/>
      </contour>
    </TTGlyph>
    <TTGlyph name="acutecomb" xMin="-305" yMin="566" xMax="-120" yMax="720">
      <component glyphName="acute" x="-365" y="0" flags="0x4"/>
    </TTGlyph>
    <TTGlyph name="adieresis" xMin="23" yMin="-8" xMax="455" yMax="721">
      <component glyphName="a" x="0" y="0" flags="0x204"/>
      <component glyphName="dieresis" x="15" y="0" flags="0x4"/>
    </TTGlyph>
    <TTGlyph name="ae" xMin="23" yMin="-14" xMax="750" yMax="514">
      <contour>
        <pt x="219" y="99" on="1"/>
        <pt x="258" y="99" on="0"/>
        <pt x="304" y="134" on="0"/>
        <pt x="315" y="154" on="1"/>
        <pt x="315" y="219" on="1"/>
        <pt x="284" y="222" on="0"/>
        <pt x="227" y="218" on="0"/>
        <pt x="183" y="204" on="0"/>
        <pt x="157" y="178" on="0"/>
        <pt x="157" y="158" on="1"/>
        <pt x="157" y="130" on="0"/>
        <pt x="190" y="99" on="0"/>
      </contour>
      <contour>
        <pt x="350" y="76" on="1"/>
        <pt x="323" y="42" on="0"/>
        <pt x="244" y="-8" on="0"/>
        <pt x="176" y="-8" on="1"/>
        <pt x="141" y="-8" on="0"/>
        <pt x="85" y="13" on="0"/>
        <pt x="45" y="52" on="0"/>
        <pt x="23" y="105" on="0"/>
        <pt x="23" y="138" on="1"/>
        <pt x="23" y="184" on="0"/>
        <pt x="64" y="247" on="0"/>
        <pt x="140" y="286" on="0"/>
        <pt x="247" y="301" on="0"/>
        <pt x="313" y="298" on="1"/>
        <pt x="320" y="354" on="0"/>
        <pt x="291" y="403" on="0"/>
        <pt x="239" y="403" on="1"/>
        <pt x="200" y="403" on="0"/>
        <pt x="119" y="382" on="0"/>
        <pt x="88" y="367" on="1"/>
        <pt x="54" y="461" on="1"/>
        <pt x="92" y="481" on="0"/>
        <pt x="204" y="510" on="0"/>
        <pt x="264" y="510" on="1"/>
        <pt x="316" y="510" on="0"/>
        <pt x="378" y="483" on="0"/>
        <pt x="398" y="456" on="1"/>
        <pt x="423" y="484" on="0"/>
        <pt x="503" y="514" on="0"/>
        <pt x="550" y="514" on="1"/>
        <pt x="588" y="514" on="0"/>
        <pt x="660" y="494" on="0"/>
        <pt x="716" y="448" on="0"/>
        <pt x="750" y="370" on="0"/>
        <pt x="750" y="312" on="1"/>
        <pt x="750" y="291" on="0"/>
        <pt x="745" y="244" on="0"/>
        <pt x="740" y="217" on="1"/>
        <pt x="439" y="217" on="1"/>
        <pt x="443" y="154" on="0"/>
        <pt x="502" y="90" on="0"/>
        <pt x="568" y="90" on="1"/>
        <pt x="609" y="90" on="0"/>
        <pt x="674" y="115" on="0"/>
        <pt x="691" y="128" on="1"/>
        <pt x="734" y="43" on="1"/>
        <pt x="704" y="19" on="0"/>
        <pt x="601" y="-14" on="0"/>
        <pt x="543" y="-14" on="1"/>
        <pt x="479" y="-14" on="0"/>
        <pt x="382" y="33" on="0"/>
        <pt x="355" y="76" on="1"/>
      </contour>
      <contour>
        <pt x="548" y="410" on="1"/>
        <pt x="497" y="410" on="0"/>
        <pt x="448" y="349" on="0"/>
        <pt x="443" y="298" on="1"/>
        <pt x="630" y="298" on="1"/>
        <pt x="633" y="352" on="0"/>
        <pt x="593" y="410" on="0"/>
      </contour>
    </TTGlyph>
    <TTGlyph name="afii10017" xMin="0" yMin="0" xMax="605" yMax="705">
      <component glyphName="A" x="0" y="0" flags="0x204"/>
    </TTGlyph>
    <TTGlyph name="afii10018" xMin="60" yMin="-10" xMax="542" yMax="700">
      <contour>
        <pt x="60" y="700" on="1"/>
        <pt x="491" y="700" on="1"/>
        <pt x="491" y="578" on="1"/>
        <pt x="197" y="578" on="1"/>
        <pt x="197" y="432" on="1"/>
        <pt x="214" y="435" on="0"/>
        <pt x="263" y="441" on="0"/>
        <pt x="287" y="441" on="1"/>
        <pt x="343" y="441" on="0"/>
        <pt x="437" y="419" on="0"/>
        <pt x="504" y="368" on="0"/>
        <pt x="542" y="285" on="0"/>
        <pt x="542" y="225" on="1"/>
        <pt x="542" y="166" on="0"/>
        <pt x="503" y="78" on="0"/>
        <pt x="430" y="20" on="0"/>
        <pt x="327" y="-10" on="0"/>
        <pt x="263" y="-10" on="1"/>
        <pt x="246" y="-10" on="0"/>
        <pt x="195" y="-8" on="0"/>
        <pt x="138" y="-4" on="0"/>
        <pt x="82" y="2" on="0"/>
        <pt x="60" y="7" on="1"/>
      </contour>
      <contour>
        <pt x="273" y="103" on="1"/>
        <pt x="299" y="103" on="0"/>
        <pt x="344" y="116" on="0"/>
        <pt x="378" y="143" on="0"/>
        <pt x="398" y="185" on="0"/>
        <pt x="398" y="215" on="1"/>
        <pt x="398" y="251" on="0"/>
        <pt x="376" y="295" on="0"/>
        <pt x="338" y="320" on="0"/>
        <pt x="289" y="328" on="0"/>
        <pt x="261" y="328" on="1"/>
        <pt x="247" y="328" on="0"/>
        <pt x="205" y="323" on="0"/>
        <pt x="197" y="321" on="1"/>
        <pt x="197" y="108" on="1"/>
        <pt x="208" y="105" on="0"/>
        <pt x="253" y="103" on="0"/>
      </contour>
    </TTGlyph>
    <TTGlyph name="afii10019" xMin="60" yMin="-10" xMax="553" yMax="710">
      <component glyphName="B" x="0" y="0" flags="0x204"/>
    </TTGlyph>
    <TTGlyph name="afii10020" xMin="60" yMin="0" xMax="467" yMax="700">
      <contour>
        <pt x="467" y="578" on="1"/>
        <pt x="197" y="578" on="1"/>
        <pt x="197" y="0" on="1"/>
        <pt x="60" y="0" on="1"/>
        <pt x="60" y="700" on="1"/>
        <pt x="467" y="700" on="1"/>
      </contour>
    </TTGlyph>
    <TTGlyph name="afii10021" xMin="0" yMin="-125" xMax="674" yMax="700">
      <contour>
        <pt x="674" y="-125" on="1"/>
        <pt x="577" y="-125" on="1"/>
        <pt x="562" y="0" on="1"/>
        <pt x="112" y="0" on="1"/>
        <pt x="97" y="-125" on="1"/>
        <pt x="0" y="-125" on="1"/>
        <pt x="0" y="122" on="1"/>
        <pt x="74" y="122" on="1"/>
        <pt x="81" y="133" on="0"/>
        <pt x="113" y="209" on="0"/>
        <pt x="145" y="348" on="0"/>
        <pt x="167" y="557" on="0"/>
        <pt x="166" y="700" on="1"/>
        <pt x="585" y="700" on="1"/>
        <pt x="585" y="122" on="1"/>
        <pt x="674" y="122" on="1"/>
      </contour>
      <contour>
        <pt x="448" y="122" on="1"/>
        <pt x="448" y="578" on="1"/>
        <pt x="293" y="578" on="1"/>
        <pt x="287" y="400" on="0"/>
        <pt x="242" y="173" on="0"/>
        <pt x="219" y="122" on="1"/>
      </contour>
    </TTGlyph>
    <TTGlyph name="afii10022" xMin="60" yMin="0" xMax="480" yMax="700">
      <component glyphName="E" x="0" y="0" flags="0x204"/>
    </TTGlyph>
    <TTGlyph name="afii10023" xMin="60" yMin="0" xMax="480" yMax="856">
      <component glyphName="E" x="0" y="0" flags="0x204"/>
      <component glyphName="uniF6CB" x="22" y="0" flags="0x4"/>
    </TTGlyph>
    <TTGlyph name="afii10024" xMin="-7" yMin="0" xMax="845" yMax="700">
      <contour>
        <pt x="350" y="700" on="1"/>
        <pt x="480" y="700" on="1"/>
        <pt x="480" y="389" on="1"/>
        <pt x="515" y="403" on="1"/>
        <pt x="660" y="700" on="1"/>
        <pt x="814" y="700" on="1"/>
        <pt x="651" y="393" on="1"/>
        <pt x="604" y="359" on="1"/>
        <pt x="661" y="317" on="1"/>
        <pt x="845" y="0" on="1"/>
        <pt x="680" y="0" on="1"/>
        <pt x="519" y="304" on="1"/>
        <pt x="480" y="304" on="1"/>
        <pt x="480" y="0" on="1"/>
        <pt x="350" y="0" on="1"/>
        <pt x="350" y="316" on="1"/>
        <pt x="314" y="302" on="1"/>
        <pt x="153" y="0" on="1"/>
        <pt x="-7" y="0" on="1"/>
        <pt x="176" y="307" on="1"/>
        <pt x="230" y="346" on="1"/>
        <pt x="178" y="383" on="1"/>
        <pt x="7" y="700" on="1"/>
        <pt x="166" y="700" on="1"/>
        <pt x="311" y="401" on="1"/>
        <pt x="350" y="401" on="1"/>
      </contour>
    </TTGlyph>
    <TTGlyph name="afii10025" xMin="18" yMin="-14" xMax="491" yMax="712">
      <contour>
        <pt x="120" y="310" on="1"/>
        <pt x="120" y="417" on="1"/>
        <pt x="144" y="417" on="1"/>
        <pt x="153" y="417" on="0"/>
        <pt x="179" y="417" on="0"/>
        <pt x="206" y="418" on="0"/>
        <pt x="232" y="421" on="0"/>
        <pt x="240" y="423" on="1"/>
        <pt x="275" y="431" on="0"/>
        <pt x="325" y="472" on="0"/>
        <pt x="325" y="507" on="1"/>
        <pt x="325" y="555" on="0"/>
        <pt x="264" y="590" on="0"/>
        <pt x="214" y="590" on="1"/>
        <pt x="169" y="590" on="0"/>
        <pt x="91" y="566" on="0"/>
        <pt x="71" y="555" on="1"/>
        <pt x="36" y="671" on="1"/>
        <pt x="47" y="677" on="0"/>
        <pt x="88" y="691" on="0"/>
        <pt x="141" y="704" on="0"/>
        <pt x="203" y="712" on="0"/>
        <pt x="235" y="712" on="1"/>
        <pt x="279" y="712" on="0"/>
        <pt x="363" y="696" on="0"/>
        <pt x="429" y="656" on="0"/>
        <pt x="469" y="589" on="0"/>
        <pt x="469" y="537" on="1"/>
        <pt x="469" y="485" on="0"/>
        <pt x="414" y="397" on="0"/>
        <pt x="353" y="377" on="1"/>
        <pt x="353" y="372" on="1"/>
        <pt x="418" y="359" on="0"/>
        <pt x="491" y="273" on="0"/>
        <pt x="491" y="201" on="1"/>
        <pt x="491" y="144" on="0"/>
        <pt x="445" y="63" on="0"/>
        <pt x="370" y="11" on="0"/>
        <pt x="272" y="-14" on="0"/>
        <pt x="221" y="-14" on="1"/>
        <pt x="155" y="-14" on="0"/>
        <pt x="47" y="8" on="0"/>
        <pt x="18" y="23" on="1"/>
        <pt x="53" y="142" on="1"/>
        <pt x="76" y="131" on="0"/>
        <pt x="162" y="108" on="0"/>
        <pt x="221" y="108" on="1"/>
        <pt x="243" y="108" on="0"/>
        <pt x="288" y="119" on="0"/>
        <pt x="324" y="144" on="0"/>
        <pt x="346" y="184" on="0"/>
        <pt x="346" y="212" on="1"/>
        <pt x="346" y="259" on="0"/>
        <pt x="276" y="307" on="0"/>
        <pt x="186" y="309" on="1"/>
        <pt x="174" y="310" on="0"/>
        <pt x="162" y="310" on="0"/>
        <pt x="147" y="310" on="1"/>
      </contour>
    </TTGlyph>
    <TTGlyph name="afii10026" xMin="60" yMin="0" xMax="605" yMax="700">
      <contour>
        <pt x="468" y="388" on="1"/>
        <pt x="476" y="479" on="1"/>
        <pt x="471" y="479" on="1"/>
        <pt x="424" y="385" on="1"/>
        <pt x="163" y="0" on="1"/>
        <pt x="60" y="0" on="1"/>
        <pt x="60" y="700" on="1"/>
        <pt x="197" y="700" on="1"/>
        <pt x="197" y="319" on="1"/>
        <pt x="187" y="225" on="1"/>
        <pt x="193" y="225" on="1"/>
        <pt x="242" y="322" on="1"/>
        <pt x="503" y="700" on="1"/>
        <pt x="605" y="700" on="1"/>
        <pt x="605" y="0" on="1"/>
        <pt x="468" y="0" on="1"/>
      </contour>
    </TTGlyph>
    <TTGlyph name="afii10027" xMin="60" yMin="0" xMax="605" yMax="874">
      <component glyphName="afii10026" x="0" y="0" flags="0x204"/>
      <component glyphName="uniF6D1" x="89" y="0" flags="0x4"/>
    </TTGlyph>
    <TTGlyph name="afii10028" xMin="60" yMin="0" xMax="609" yMax="700">
      <component glyphName="K" x="0" y="0" flags="0x204"/>
    </TTGlyph>
    <TTGlyph name="afii10029" xMin="-13" yMin="-7" xMax="563" yMax="700">
      <contour>
        <pt x="426" y="578" on="1"/>
        <pt x="277" y="578" on="1"/>
        <pt x="273" y="483" on="0"/>
        <pt x="263" y="327" on="0"/>
        <pt x="246" y="202" on="0"/>
        <pt x="218" y="106" on="0"/>
        <pt x="196" y="71" on="1"/>
        <pt x="182" y="48" on="0"/>
        <pt x="147" y="18" on="0"/>
        <pt x="109" y="0" on="0"/>
        <pt x="72" y="-7" on="0"/>
        <pt x="56" y="-7" on="1"/>
        <pt x="33" y="-7" on="0"/>
        <pt x="2" y="0" on="0"/>
        <pt x="-13" y="7" on="1"/>
        <pt x="2" y="125" on="1"/>
        <pt x="8" y="123" on="0"/>
        <pt x="20" y="121" on="0"/>
        <pt x="26" y="121" on="1"/>
        <pt x="42" y="121" on="0"/>
        <pt x="73" y="137" on="0"/>
        <pt x="84" y="156" on="1"/>
        <pt x="99" y="178" on="0"/>
        <pt x="121" y="263" on="0"/>
        <pt x="138" y="395" on="0"/>
        <pt x="148" y="578" on="0"/>
        <pt x="150" y="700" on="1"/>
        <pt x="563" y="700" on="1"/>
        <pt x="563" y="0" on="1"/>
        <pt x="426" y="0" on="1"/>
      </contour>
    </TTGlyph>
    <TTGlyph name="afii10030" xMin="60" yMin="0" xMax="740" yMax="700">
      <component glyphName="M" x="0" y="0" flags="0x204"/>
    </TTGlyph>
    <TTGlyph name="afii10031" xMin="60" yMin="0" xMax="590" yMax="700">
      <component glyphName="H" x="0" y="0" flags="0x204"/>
    </TTGlyph>
    <TTGlyph name="afii10032" xMin="38" yMin="-14" xMax="632" yMax="714">
      <component glyphName="O" x="0" y="0" flags="0x204"/>
    </TTGlyph>
    <TTGlyph name="afii10033" xMin="60" yMin="0" xMax="579" yMax="700">
      <contour>
        <pt x="442" y="578" on="1"/>
        <pt x="197" y="578" on="1"/>
        <pt x="197" y="0" on="1"/>
        <pt x="60" y="0" on="1"/>
        <pt x="60" y="700" on="1"/>
        <pt x="579" y="700" on="1"/>
        <pt x="579" y="0" on="1"/>
        <pt x="442" y="0" on="1"/>
      </contour>
    </TTGlyph>
    <TTGlyph name="afii10034" xMin="60" yMin="0" xMax="547" yMax="710">
      <component glyphName="P" x="0" y="0" flags="0x204"/>
    </TTGlyph>
    <TTGlyph name="afii10035" xMin="38" yMin="-14" xMax="534" yMax="714">
      <component glyphName="C" x="0" y="0" flags="0x204"/>
    </TTGlyph>
    <TTGlyph name="afii10036" xMin="11" yMin="0" xMax="557" yMax="700">
      <component glyphName="T" x="0" y="0" flags="0x204"/>
    </TTGlyph>
    <TTGlyph name="afii10037" xMin="-9" yMin="-7" xMax="582" yMax="700">
      <contour>
        <pt x="294" y="391" on="1"/>
        <pt x="314" y="300" on="1"/>
        <pt x="320" y="300" on="1"/>
        <pt x="336" y="394" on="1"/>
        <pt x="441" y="700" on="1"/>
        <pt x="582" y="700" on="1"/>
        <pt x="396" y="216" on="1"/>
        <pt x="374" y="159" on="0"/>
        <pt x="333" y="75" on="0"/>
        <pt x="286" y="20" on="0"/>
        <pt x="228" y="-7" on="0"/>
        <pt x="189" y="-7" on="1"/>
        <pt x="156" y="-7" on="0"/>
        <pt x="115" y="2" on="0"/>
        <pt x="91" y="17" on="1"/>
        <pt x="126" y="128" on="1"/>
        <pt x="143" y="119" on="0"/>
        <pt x="171" y="115" on="0"/>
        <pt x="187" y="115" on="1"/>
        <pt x="234" y="115" on="0"/>
        <pt x="253" y="189" on="1"/>
        <pt x="-9" y="700" on="1"/>
        <pt x="152" y="700" on="1"/>
      </contour>
    </TTGlyph>
    <TTGlyph name="afii10038" xMin="26" yMin="-20" xMax="777" yMax="720">
      <contour>
        <pt x="334" y="76" on="1"/>
        <pt x="315" y="73" on="0"/>
        <pt x="275" y="71" on="0"/>
        <pt x="252" y="71" on="1"/>
        <pt x="204" y="71" on="0"/>
        <pt x="122" y="104" on="0"/>
        <pt x="61" y="173" on="0"/>
        <pt x="26" y="278" on="0"/>
        <pt x="26" y="350" on="1"/>
        <pt x="26" y="418" on="0"/>
        <pt x="61" y="525" on="0"/>
        <pt x="126" y="600" on="0"/>
        <pt x="216" y="640" on="0"/>
        <pt x="271" y="640" on="1"/>
        <pt x="284" y="640" on="0"/>
        <pt x="322" y="638" on="0"/>
        <pt x="334" y="635" on="1"/>
        <pt x="334" y="720" on="1"/>
        <pt x="468" y="720" on="1"/>
        <pt x="468" y="632" on="1"/>
        <pt x="487" y="637" on="0"/>
        <pt x="536" y="640" on="0"/>
        <pt x="551" y="640" on="1"/>
        <pt x="600" y="640" on="0"/>
        <pt x="682" y="605" on="0"/>
        <pt x="743" y="534" on="0"/>
        <pt x="777" y="429" on="0"/>
        <pt x="776" y="360" on="1"/>
        <pt x="777" y="289" on="0"/>
        <pt x="739" y="181" on="0"/>
        <pt x="673" y="108" on="0"/>
        <pt x="586" y="71" on="0"/>
        <pt x="536" y="71" on="1"/>
        <pt x="520" y="71" on="0"/>
        <pt x="483" y="74" on="0"/>
        <pt x="468" y="78" on="1"/>
        <pt x="468" y="-20" on="1"/>
        <pt x="334" y="-20" on="1"/>
      </contour>
      <contour>
        <pt x="519" y="530" on="1"/>
        <pt x="509" y="529" on="0"/>
        <pt x="475" y="527" on="0"/>
        <pt x="463" y="524" on="1"/>
        <pt x="463" y="184" on="1"/>
        <pt x="472" y="182" on="0"/>
        <pt x="497" y="182" on="0"/>
        <pt x="508" y="181" on="1"/>
        <pt x="536" y="182" on="0"/>
        <pt x="584" y="202" on="0"/>
        <pt x="620" y="246" on="0"/>
        <pt x="640" y="312" on="0"/>
        <pt x="639" y="359" on="1"/>
        <pt x="640" y="439" on="0"/>
        <pt x="576" y="529" on="0"/>
      </contour>
      <contour>
        <pt x="287" y="182" on="1"/>
        <pt x="295" y="182" on="0"/>
        <pt x="328" y="183" on="0"/>
        <pt x="339" y="187" on="1"/>
        <pt x="339" y="526" on="1"/>
        <pt x="329" y="528" on="0"/>
        <pt x="303" y="529" on="0"/>
        <pt x="292" y="529" on="1"/>
        <pt x="237" y="529" on="0"/>
        <pt x="163" y="444" on="0"/>
        <pt x="163" y="351" on="1"/>
        <pt x="163" y="270" on="0"/>
        <pt x="231" y="182" on="0"/>
      </contour>
    </TTGlyph>
    <TTGlyph name="afii10039" xMin="10" yMin="0" xMax="622" yMax="700">
      <component glyphName="X" x="0" y="0" flags="0x204"/>
    </TTGlyph>
    <TTGlyph name="afii10040" xMin="60" yMin="-125" xMax="665" yMax="700">
      <contour>
        <pt x="665" y="-125" on="1"/>
        <pt x="568" y="-125" on="1"/>
        <pt x="553" y="0" on="1"/>
        <pt x="60" y="0" on="1"/>
        <pt x="60" y="700" on="1"/>
        <pt x="197" y="700" on="1"/>
        <pt x="197" y="122" on="1"/>
        <pt x="438" y="122" on="1"/>
        <pt x="438" y="700" on="1"/>
        <pt x="575" y="700" on="1"/>
        <pt x="575" y="122" on="1"/>
        <pt x="665" y="122" on="1"/>
      </contour>
    </TTGlyph>
    <TTGlyph name="afii10041" xMin="46" yMin="0" xMax="546" yMax="700">
      <contour>
        <pt x="183" y="700" on="1"/>
        <pt x="183" y="478" on="1"/>
        <pt x="183" y="418" on="0"/>
        <pt x="230" y="359" on="0"/>
        <pt x="284" y="359" on="1"/>
        <pt x="322" y="359" on="0"/>
        <pt x="389" y="376" on="0"/>
        <pt x="409" y="393" on="1"/>
        <pt x="409" y="700" on="1"/>
        <pt x="546" y="700" on="1"/>
        <pt x="546" y="0" on="1"/>
        <pt x="409" y="0" on="1"/>
        <pt x="409" y="282" on="1"/>
        <pt x="383" y="267" on="0"/>
        <pt x="296" y="242" on="0"/>
        <pt x="236" y="242" on="1"/>
        <pt x="194" y="242" on="0"/>
        <pt x="125" y="263" on="0"/>
        <pt x="74" y="310" on="0"/>
        <pt x="46" y="383" on="0"/>
        <pt x="46" y="435" on="1"/>
        <pt x="46" y="700" on="1"/>
      </contour>
    </TTGlyph>
    <TTGlyph name="afii10042" xMin="60" yMin="0" xMax="801" yMax="700">
      <contour>
        <pt x="60" y="0" on="1"/>
        <pt x="60" y="700" on="1"/>
        <pt x="197" y="700" on="1"/>
        <pt x="197" y="122" on="1"/>
        <pt x="362" y="122" on="1"/>
        <pt x="362" y="700" on="1"/>
        <pt x="499" y="700" on="1"/>
        <pt x="499" y="122" on="1"/>
        <pt x="664" y="122" on="1"/>
        <pt x="664" y="700" on="1"/>
        <pt x="801" y="700" on="1"/>
        <pt x="801" y="0" on="1"/>
      </contour>
    </TTGlyph>
    <TTGlyph name="afii10043" xMin="60" yMin="-125" xMax="893" yMax="700">
      <contour>
        <pt x="60" y="0" on="1"/>
        <pt x="60" y="700" on="1"/>
        <pt x="197" y="700" on="1"/>
        <pt x="197" y="122" on="1"/>
        <pt x="362" y="122" on="1"/>
        <pt x="362" y="700" on="1"/>
        <pt x="499" y="700" on="1"/>
        <pt x="499" y="122" on="1"/>
        <pt x="664" y="122" on="1"/>
        <pt x="664" y="700" on="1"/>
        <pt x="801" y="700" on="1"/>
        <pt x="801" y="122" on="1"/>
        <pt x="893" y="122" on="1"/>
        <pt x="893" y="-125" on="1"/>
        <pt x="797" y="-125" on="1"/>
        <pt x="782" y="0" on="1"/>
      </contour>
    </TTGlyph>
    <TTGlyph name="afii10044" xMin="-4" yMin="-10" xMax="641" yMax="700">
      <contour>
        <pt x="155" y="578" on="1"/>
        <pt x="-4" y="578" on="1"/>
        <pt x="-4" y="700" on="1"/>
        <pt x="292" y="700" on="1"/>
        <pt x="292" y="449" on="1"/>
        <pt x="297" y="450" on="0"/>
        <pt x="320" y="453" on="0"/>
        <pt x="347" y="455" on="0"/>
        <pt x="376" y="457" on="0"/>
        <pt x="388" y="457" on="1"/>
        <pt x="437" y="457" on="0"/>
        <pt x="528" y="437" on="0"/>
        <pt x="599" y="386" on="0"/>
        <pt x="641" y="299" on="0"/>
        <pt x="641" y="232" on="1"/>
        <pt x="641" y="112" on="0"/>
        <pt x="493" y="-10" on="0"/>
        <pt x="353" y="-10" on="1"/>
        <pt x="339" y="-10" on="0"/>
        <pt x="291" y="-9" on="0"/>
        <pt x="236" y="-5" on="0"/>
        <pt x="179" y="1" on="0"/>
        <pt x="155" y="7" on="1"/>
      </contour>
      <contour>
        <pt x="360" y="112" on="1"/>
        <pt x="388" y="112" on="0"/>
        <pt x="438" y="123" on="0"/>
        <pt x="476" y="150" on="0"/>
        <pt x="497" y="194" on="0"/>
        <pt x="497" y="226" on="1"/>
        <pt x="497" y="260" on="0"/>
        <pt x="474" y="303" on="0"/>
        <pt x="437" y="327" on="0"/>
        <pt x="387" y="335" on="0"/>
        <pt x="360" y="335" on="1"/>
        <pt x="353" y="335" on="0"/>
        <pt x="333" y="333" on="0"/>
        <pt x="313" y="331" on="0"/>
        <pt x="296" y="328" on="0"/>
        <pt x="292" y="327" on="1"/>
        <pt x="292" y="118" on="1"/>
        <pt x="303" y="115" on="0"/>
        <pt x="340" y="112" on="0"/>
      </contour>
    </TTGlyph>
    <TTGlyph name="afii10045" xMin="60" yMin="-10" xMax="737" yMax="700">
      <contour>
        <pt x="600" y="700" on="1"/>
        <pt x="737" y="700" on="1"/>
        <pt x="737" y="0" on="1"/>
        <pt x="600" y="0" on="1"/>
      </contour>
      <contour>
        <pt x="60" y="700" on="1"/>
        <pt x="197" y="700" on="1"/>
        <pt x="197" y="449" on="1"/>
        <pt x="208" y="451" on="0"/>
        <pt x="256" y="457" on="0"/>
        <pt x="279" y="457" on="1"/>
        <pt x="329" y="457" on="0"/>
        <pt x="420" y="437" on="0"/>
        <pt x="488" y="386" on="0"/>
        <pt x="528" y="299" on="0"/>
        <pt x="528" y="233" on="1"/>
        <pt x="528" y="111" on="0"/>
        <pt x="386" y="-10" on="0"/>
        <pt x="246" y="-10" on="1"/>
        <pt x="232" y="-10" on="0"/>
        <pt x="188" y="-9" on="0"/>
        <pt x="137" y="-5" on="0"/>
        <pt x="83" y="1" on="0"/>
        <pt x="60" y="7" on="1"/>
      </contour>
      <contour>
        <pt x="256" y="112" on="1"/>
        <pt x="313" y="112" on="0"/>
        <pt x="384" y="165" on="0"/>
        <pt x="384" y="227" on="1"/>
        <pt x="384" y="260" on="0"/>
        <pt x="364" y="302" on="0"/>
        <pt x="330" y="326" on="0"/>
        <pt x="284" y="335" on="0"/>
        <pt x="257" y="335" on="1"/>
        <pt x="243" y="335" on="0"/>
        <pt x="205" y="330" on="0"/>
        <pt x="197" y="327" on="1"/>
        <pt x="197" y="118" on="1"/>
        <pt x="208" y="115" on="0"/>
        <pt x="239" y="112" on="0"/>
      </contour>
    </TTGlyph>
    <TTGlyph name="afii10046" xMin="60" yMin="-10" xMax="546" yMax="700">
      <contour>
        <pt x="60" y="700" on="1"/>
        <pt x="197" y="700" on="1"/>
        <pt x="197" y="449" on="1"/>
        <pt x="202" y="450" on="0"/>
        <pt x="225" y="453" on="0"/>
        <pt x="252" y="455" on="0"/>
        <pt x="280" y="457" on="0"/>
        <pt x="292" y="457" on="1"/>
        <pt x="341" y="457" on="0"/>
        <pt x="433" y="437" on="0"/>
        <pt x="504" y="386" on="0"/>
        <pt x="546" y="299" on="0"/>
        <pt x="546" y="232" on="1"/>
        <pt x="546" y="112" on="0"/>
        <pt x="397" y="-10" on="0"/>
        <pt x="258" y="-10" on="1"/>
        <pt x="244" y="-10" on="0"/>
        <pt x="197" y="-9" on="0"/>
        <pt x="141" y="-5" on="0"/>
        <pt x="84" y="1" on="0"/>
        <pt x="60" y="7" on="1"/>
      </contour>
      <contour>
        <pt x="265" y="112" on="1"/>
        <pt x="293" y="112" on="0"/>
        <pt x="343" y="123" on="0"/>
        <pt x="381" y="150" on="0"/>
        <pt x="402" y="194" on="0"/>
        <pt x="402" y="226" on="1"/>
        <pt x="402" y="260" on="0"/>
        <pt x="379" y="303" on="0"/>
        <pt x="342" y="327" on="0"/>
        <pt x="292" y="335" on="0"/>
        <pt x="265" y="335" on="1"/>
        <pt x="258" y="335" on="0"/>
        <pt x="238" y="333" on="0"/>
        <pt x="218" y="331" on="0"/>
        <pt x="201" y="328" on="0"/>
        <pt x="197" y="327" on="1"/>
        <pt x="197" y="118" on="1"/>
        <pt x="208" y="115" on="0"/>
        <pt x="245" y="112" on="0"/>
      </contour>
    </TTGlyph>
    <TTGlyph name="afii10047" xMin="20" yMin="-14" xMax="536" yMax="714">
      <contour>
        <pt x="130" y="410" on="1"/>
        <pt x="399" y="410" on="1"/>
        <pt x="396" y="450" on="0"/>
        <pt x="369" y="517" on="0"/>
        <pt x="323" y="565" on="0"/>
        <pt x="255" y="592" on="0"/>
        <pt x="212" y="592" on="1"/>
        <pt x="158" y="592" on="0"/>
        <pt x="78" y="569" on="0"/>
        <pt x="53" y="555" on="1"/>
        <pt x="24" y="671" on="1"/>
        <pt x="59" y="689" on="0"/>
        <pt x="165" y="714" on="0"/>
        <pt x="217" y="714" on="1"/>
        <pt x="286" y="714" on="0"/>
        <pt x="403" y="676" on="0"/>
        <pt x="488" y="589" on="0"/>
        <pt x="536" y="450" on="0"/>
        <pt x="536" y="350" on="1"/>
        <pt x="536" y="246" on="0"/>
        <pt x="480" y="106" on="0"/>
        <pt x="386" y="22" on="0"/>
        <pt x="264" y="-14" on="0"/>
        <pt x="198" y="-14" on="1"/>
        <pt x="141" y="-14" on="0"/>
        <pt x="48" y="6" on="0"/>
        <pt x="20" y="19" on="1"/>
        <pt x="56" y="138" on="1"/>
        <pt x="79" y="127" on="0"/>
        <pt x="157" y="108" on="0"/>
        <pt x="208" y="108" on="1"/>
        <pt x="247" y="108" on="0"/>
        <pt x="313" y="130" on="0"/>
        <pt x="364" y="177" on="0"/>
        <pt x="396" y="249" on="0"/>
        <pt x="400" y="300" on="1"/>
        <pt x="130" y="300" on="1"/>
      </contour>
    </TTGlyph>
    <TTGlyph name="afii10048" xMin="60" yMin="-14" xMax="859" yMax="714">
      <contour>
        <pt x="197" y="415" on="1"/>
        <pt x="290" y="415" on="1"/>
        <pt x="303" y="558" on="0"/>
        <pt x="445" y="714" on="0"/>
        <pt x="573" y="714" on="1"/>
        <pt x="649" y="714" on="0"/>
        <pt x="757" y="662" on="0"/>
        <pt x="826" y="566" on="0"/>
        <pt x="859" y="432" on="0"/>
        <pt x="859" y="350" on="1"/>
        <pt x="859" y="175" on="0"/>
        <pt x="715" y="-14" on="0"/>
        <pt x="573" y="-14" on="1"/>
        <pt x="507" y="-14" on="0"/>
        <pt x="406" y="30" on="0"/>
        <pt x="336" y="110" on="0"/>
        <pt x="296" y="224" on="0"/>
        <pt x="290" y="293" on="1"/>
        <pt x="197" y="293" on="1"/>
        <pt x="197" y="0" on="1"/>
        <pt x="60" y="0" on="1"/>
        <pt x="60" y="700" on="1"/>
        <pt x="197" y="700" on="1"/>
      </contour>
      <contour>
        <pt x="430" y="350" on="1"/>
        <pt x="430" y="297" on="0"/>
        <pt x="445" y="208" on="0"/>
        <pt x="478" y="144" on="0"/>
        <pt x="533" y="108" on="0"/>
        <pt x="573" y="108" on="1"/>
        <pt x="646" y="108" on="0"/>
        <pt x="715" y="222" on="0"/>
        <pt x="715" y="350" on="1"/>
        <pt x="715" y="401" on="0"/>
        <pt x="702" y="489" on="0"/>
        <pt x="670" y="555" on="0"/>
        <pt x="615" y="592" on="0"/>
        <pt x="573" y="592" on="1"/>
        <pt x="501" y="592" on="0"/>
        <pt x="430" y="475" on="0"/>
      </contour>
    </TTGlyph>
    <TTGlyph name="afii10049" xMin="5" yMin="0" xMax="519" yMax="710">
      <contour>
        <pt x="519" y="0" on="1"/>
        <pt x="382" y="0" on="1"/>
        <pt x="382" y="277" on="1"/>
        <pt x="310" y="258" on="1"/>
        <pt x="164" y="0" on="1"/>
        <pt x="5" y="0" on="1"/>
        <pt x="149" y="233" on="1"/>
        <pt x="209" y="276" on="1"/>
        <pt x="177" y="284" on="0"/>
        <pt x="121" y="317" on="0"/>
        <pt x="79" y="369" on="0"/>
        <pt x="55" y="440" on="0"/>
        <pt x="55" y="485" on="1"/>
        <pt x="55" y="548" on="0"/>
        <pt x="99" y="634" on="0"/>
        <pt x="177" y="687" on="0"/>
        <pt x="285" y="710" on="0"/>
        <pt x="348" y="710" on="1"/>
        <pt x="365" y="710" on="0"/>
        <pt x="409" y="708" on="0"/>
        <pt x="456" y="704" on="0"/>
        <pt x="501" y="698" on="0"/>
        <pt x="519" y="693" on="1"/>
      </contour>
      <contour>
        <pt x="331" y="588" on="1"/>
        <pt x="304" y="588" on="0"/>
        <pt x="256" y="578" on="0"/>
        <pt x="220" y="554" on="0"/>
        <pt x="199" y="512" on="0"/>
        <pt x="199" y="479" on="1"/>
        <pt x="199" y="448" on="0"/>
        <pt x="219" y="405" on="0"/>
        <pt x="255" y="378" on="0"/>
        <pt x="303" y="366" on="0"/>
        <pt x="331" y="366" on="1"/>
        <pt x="382" y="366" on="1"/>
        <pt x="382" y="583" on="1"/>
        <pt x="371" y="585" on="0"/>
        <pt x="348" y="588" on="0"/>
      </contour>
    </TTGlyph>
    <TTGlyph name="afii10050" xMin="60" yMin="0" xMax="468" yMax="852">
      <contour>
        <pt x="468" y="700" on="1"/>
        <pt x="467" y="578" on="1"/>
        <pt x="197" y="578" on="1"/>
        <pt x="197" y="0" on="1"/>
        <pt x="60" y="0" on="1"/>
        <pt x="60" y="700" on="1"/>
        <pt x="358" y="700" on="1"/>
        <pt x="379" y="852" on="1"/>
        <pt x="467" y="852" on="1"/>
        <pt x="467" y="700" on="1"/>
      </contour>
    </TTGlyph>
    <TTGlyph name="afii10051" xMin="11" yMin="-7" xMax="702" yMax="700">
      <contour>
        <pt x="353" y="0" on="1"/>
        <pt x="216" y="0" on="1"/>
        <pt x="216" y="578" on="1"/>
        <pt x="11" y="578" on="1"/>
        <pt x="11" y="700" on="1"/>
        <pt x="557" y="700" on="1"/>
        <pt x="557" y="578" on="1"/>
        <pt x="353" y="578" on="1"/>
        <pt x="353" y="435" on="1"/>
        <pt x="369" y="441" on="0"/>
        <pt x="437" y="457" on="0"/>
        <pt x="491" y="457" on="1"/>
        <pt x="530" y="457" on="0"/>
        <pt x="605" y="437" on="0"/>
        <pt x="665" y="386" on="0"/>
        <pt x="702" y="299" on="0"/>
        <pt x="702" y="232" on="1"/>
        <pt x="702" y="116" on="0"/>
        <pt x="588" y="-7" on="0"/>
        <pt x="461" y="-7" on="1"/>
        <pt x="433" y="-7" on="0"/>
        <pt x="406" y="-5" on="0"/>
        <pt x="398" y="-3" on="1"/>
        <pt x="398" y="114" on="1"/>
        <pt x="405" y="112" on="0"/>
        <pt x="438" y="111" on="0"/>
        <pt x="455" y="111" on="1"/>
        <pt x="505" y="111" on="0"/>
        <pt x="558" y="169" on="0"/>
        <pt x="558" y="226" on="1"/>
        <pt x="558" y="260" on="0"/>
        <pt x="540" y="303" on="0"/>
        <pt x="508" y="327" on="0"/>
        <pt x="464" y="335" on="0"/>
        <pt x="438" y="335" on="1"/>
        <pt x="415" y="335" on="0"/>
        <pt x="364" y="323" on="0"/>
        <pt x="353" y="317" on="1"/>
      </contour>
    </TTGlyph>
    <TTGlyph name="afii10052" xMin="60" yMin="0" xMax="467" yMax="870">
      <component glyphName="afii10020" x="0" y="0" flags="0x204"/>
      <component glyphName="uniF6C9" x="128" y="0" flags="0x4"/>
    </TTGlyph>
    <TTGlyph name="afii10053" xMin="38" yMin="-14" xMax="549" yMax="714">
      <contour>
        <pt x="549" y="29" on="1"/>
        <pt x="534" y="18" on="0"/>
        <pt x="489" y="1" on="0"/>
        <pt x="438" y="-9" on="0"/>
        <pt x="384" y="-14" on="0"/>
        <pt x="358" y="-14" on="1"/>
        <pt x="293" y="-14" on="0"/>
        <pt x="177" y="25" on="0"/>
        <pt x="90" y="112" on="0"/>
        <pt x="38" y="251" on="0"/>
        <pt x="38" y="350" on="1"/>
        <pt x="38" y="453" on="0"/>
        <pt x="96" y="592" on="0"/>
        <pt x="189" y="677" on="0"/>
        <pt x="304" y="714" on="0"/>
        <pt x="362" y="714" on="1"/>
        <pt x="422" y="714" on="0"/>
        <pt x="512" y="698" on="0"/>
        <pt x="539" y="687" on="1"/>
        <pt x="513" y="568" on="1"/>
        <pt x="490" y="579" on="0"/>
        <pt x="419" y="592" on="0"/>
        <pt x="374" y="592" on="1"/>
        <pt x="339" y="592" on="0"/>
        <pt x="276" y="571" on="0"/>
        <pt x="227" y="527" on="0"/>
        <pt x="192" y="461" on="0"/>
        <pt x="185" y="416" on="1"/>
        <pt x="460" y="416" on="1"/>
        <pt x="460" y="304" on="1"/>
        <pt x="182" y="304" on="1"/>
        <pt x="193" y="215" on="0"/>
        <pt x="296" y="108" on="0"/>
        <pt x="384" y="108" on="1"/>
        <pt x="429" y="108" on="0"/>
        <pt x="499" y="126" on="0"/>
        <pt x="521" y="139" on="1"/>
      </contour>
    </TTGlyph>
    <TTGlyph name="afii10054" xMin="27" yMin="-14" xMax="499" yMax="714">
      <component glyphName="S" x="0" y="0" flags="0x204"/>
    </TTGlyph>
    <TTGlyph name="afii10055" xMin="74" yMin="0" xMax="211" yMax="700">
      <component glyphName="I" x="0" y="0" flags="0x204"/>
    </TTGlyph>
    <TTGlyph name="afii10055.alt" xMin="57" yMin="0" xMax="232" yMax="860">
      <component glyphName="I" x="0" y="0" flags="0x204"/>
      <component glyphName="uniF40B" x="-3" y="0" flags="0x4"/>
    </TTGlyph>
    <TTGlyph name="afii10056" xMin="19" yMin="0" xMax="278" yMax="856">
      <contour>
        <pt x="19" y="792" on="1"/>
        <pt x="19" y="823" on="0"/>
        <pt x="50" y="856" on="0"/>
        <pt x="79" y="856" on="1"/>
        <pt x="107" y="856" on="0"/>
        <pt x="138" y="823" on="0"/>
        <pt x="138" y="792" on="1"/>
        <pt x="138" y="762" on="0"/>
        <pt x="107" y="730" on="0"/>
        <pt x="79" y="730" on="1"/>
        <pt x="50" y="730" on="0"/>
        <pt x="19" y="762" on="0"/>
      </contour>
      <contour>
        <pt x="159" y="792" on="1"/>
        <pt x="159" y="823" on="0"/>
        <pt x="190" y="856" on="0"/>
        <pt x="218" y="856" on="1"/>
        <pt x="247" y="856" on="0"/>
        <pt x="278" y="823" on="0"/>
        <pt x="278" y="792" on="1"/>
        <pt x="278" y="762" on="0"/>
        <pt x="247" y="730" on="0"/>
        <pt x="218" y="730" on="1"/>
        <pt x="190" y="730" on="0"/>
        <pt x="159" y="762" on="0"/>
      </contour>
      <contour>
        <pt x="79" y="700" on="1"/>
        <pt x="216" y="700" on="1"/>
        <pt x="216" y="0" on="1"/>
        <pt x="79" y="0" on="1"/>
      </contour>
    </TTGlyph>
    <TTGlyph name="afii10057" xMin="-23" yMin="-12" xMax="268" yMax="700">
      <component glyphName="J" x="0" y="0" flags="0x204"/>
    </TTGlyph>
    <TTGlyph name="afii10058" xMin="-13" yMin="-10" xMax="912" yMax="700">
      <contour>
        <pt x="426" y="578" on="1"/>
        <pt x="277" y="578" on="1"/>
        <pt x="273" y="483" on="0"/>
        <pt x="263" y="327" on="0"/>
        <pt x="246" y="202" on="0"/>
        <pt x="218" y="106" on="0"/>
        <pt x="196" y="71" on="1"/>
        <pt x="182" y="48" on="0"/>
        <pt x="147" y="18" on="0"/>
        <pt x="109" y="0" on="0"/>
        <pt x="72" y="-7" on="0"/>
        <pt x="56" y="-7" on="1"/>
        <pt x="33" y="-7" on="0"/>
        <pt x="2" y="0" on="0"/>
        <pt x="-13" y="7" on="1"/>
        <pt x="2" y="125" on="1"/>
        <pt x="8" y="123" on="0"/>
        <pt x="20" y="121" on="0"/>
        <pt x="26" y="121" on="1"/>
        <pt x="42" y="121" on="0"/>
        <pt x="73" y="137" on="0"/>
        <pt x="84" y="156" on="1"/>
        <pt x="99" y="178" on="0"/>
        <pt x="121" y="263" on="0"/>
        <pt x="138" y="395" on="0"/>
        <pt x="148" y="578" on="0"/>
        <pt x="150" y="700" on="1"/>
        <pt x="563" y="700" on="1"/>
        <pt x="563" y="449" on="1"/>
        <pt x="568" y="450" on="0"/>
        <pt x="591" y="453" on="0"/>
        <pt x="618" y="455" on="0"/>
        <pt x="646" y="457" on="0"/>
        <pt x="658" y="457" on="1"/>
        <pt x="707" y="457" on="0"/>
        <pt x="799" y="437" on="0"/>
        <pt x="870" y="386" on="0"/>
        <pt x="912" y="299" on="0"/>
        <pt x="912" y="232" on="1"/>
        <pt x="912" y="112" on="0"/>
        <pt x="763" y="-10" on="0"/>
        <pt x="624" y="-10" on="1"/>
        <pt x="612" y="-10" on="0"/>
        <pt x="576" y="-9" on="0"/>
        <pt x="533" y="-7" on="0"/>
        <pt x="485" y="-3" on="0"/>
        <pt x="463" y="0" on="1"/>
        <pt x="426" y="0" on="1"/>
      </contour>
      <contour>
        <pt x="631" y="112" on="1"/>
        <pt x="659" y="112" on="0"/>
        <pt x="709" y="123" on="0"/>
        <pt x="747" y="150" on="0"/>
        <pt x="768" y="194" on="0"/>
        <pt x="768" y="226" on="1"/>
        <pt x="768" y="260" on="0"/>
        <pt x="745" y="303" on="0"/>
        <pt x="708" y="327" on="0"/>
        <pt x="658" y="335" on="0"/>
        <pt x="631" y="335" on="1"/>
        <pt x="624" y="335" on="0"/>
        <pt x="604" y="333" on="0"/>
        <pt x="584" y="331" on="0"/>
        <pt x="567" y="328" on="0"/>
        <pt x="563" y="327" on="1"/>
        <pt x="563" y="118" on="1"/>
        <pt x="574" y="115" on="0"/>
        <pt x="611" y="112" on="0"/>
      </contour>
    </TTGlyph>
    <TTGlyph name="afii10059" xMin="60" yMin="-10" xMax="939" yMax="700">
      <contour>
        <pt x="453" y="305" on="1"/>
        <pt x="197" y="305" on="1"/>
        <pt x="197" y="0" on="1"/>
        <pt x="60" y="0" on="1"/>
        <pt x="60" y="700" on="1"/>
        <pt x="197" y="700" on="1"/>
        <pt x="197" y="427" on="1"/>
        <pt x="453" y="427" on="1"/>
        <pt x="453" y="700" on="1"/>
        <pt x="590" y="700" on="1"/>
        <pt x="590" y="434" on="1"/>
        <pt x="595" y="435" on="0"/>
        <pt x="618" y="438" on="0"/>
        <pt x="645" y="440" on="0"/>
        <pt x="673" y="442" on="0"/>
        <pt x="685" y="442" on="1"/>
        <pt x="734" y="442" on="0"/>
        <pt x="826" y="424" on="0"/>
        <pt x="897" y="376" on="0"/>
        <pt x="939" y="292" on="0"/>
        <pt x="939" y="225" on="1"/>
        <pt x="939" y="105" on="0"/>
        <pt x="791" y="-10" on="0"/>
        <pt x="651" y="-10" on="1"/>
        <pt x="637" y="-10" on="0"/>
        <pt x="589" y="-8" on="0"/>
        <pt x="534" y="-5" on="0"/>
        <pt x="476" y="0" on="0"/>
        <pt x="453" y="3" on="1"/>
      </contour>
      <contour>
        <pt x="658" y="112" on="1"/>
        <pt x="689" y="112" on="0"/>
        <pt x="740" y="122" on="0"/>
        <pt x="776" y="147" on="0"/>
        <pt x="795" y="188" on="0"/>
        <pt x="795" y="219" on="1"/>
        <pt x="795" y="251" on="0"/>
        <pt x="775" y="290" on="0"/>
        <pt x="739" y="312" on="0"/>
        <pt x="688" y="320" on="0"/>
        <pt x="658" y="320" on="1"/>
        <pt x="651" y="320" on="0"/>
        <pt x="631" y="318" on="0"/>
        <pt x="611" y="316" on="0"/>
        <pt x="594" y="312" on="0"/>
        <pt x="590" y="311" on="1"/>
        <pt x="590" y="118" on="1"/>
        <pt x="601" y="115" on="0"/>
        <pt x="638" y="112" on="0"/>
      </contour>
    </TTGlyph>
    <TTGlyph name="afii10060" xMin="11" yMin="0" xMax="716" yMax="700">
      <contour>
        <pt x="353" y="0" on="1"/>
        <pt x="216" y="0" on="1"/>
        <pt x="216" y="578" on="1"/>
        <pt x="11" y="578" on="1"/>
        <pt x="11" y="700" on="1"/>
        <pt x="557" y="700" on="1"/>
        <pt x="557" y="578" on="1"/>
        <pt x="353" y="578" on="1"/>
        <pt x="353" y="401" on="1"/>
        <pt x="378" y="416" on="0"/>
        <pt x="465" y="442" on="0"/>
        <pt x="525" y="442" on="1"/>
        <pt x="567" y="442" on="0"/>
        <pt x="637" y="420" on="0"/>
        <pt x="688" y="374" on="0"/>
        <pt x="716" y="300" on="0"/>
        <pt x="716" y="248" on="1"/>
        <pt x="716" y="0" on="1"/>
        <pt x="579" y="0" on="1"/>
        <pt x="579" y="206" on="1"/>
        <pt x="579" y="266" on="0"/>
        <pt x="531" y="325" on="0"/>
        <pt x="477" y="325" on="1"/>
        <pt x="439" y="325" on="0"/>
        <pt x="373" y="308" on="0"/>
        <pt x="353" y="291" on="1"/>
      </contour>
    </TTGlyph>
    <TTGlyph name="afii10061" xMin="60" yMin="0" xMax="609" yMax="870">
      <component glyphName="K" x="0" y="0" flags="0x204"/>
      <component glyphName="uniF6C9" x="154" y="0" flags="0x4"/>
    </TTGlyph>
    <TTGlyph name="afii10062" xMin="-9" yMin="-7" xMax="582" yMax="874">
      <component glyphName="afii10037" x="0" y="0" flags="0x204"/>
      <component glyphName="uniF6D1" x="44" y="0" flags="0x4"/>
    </TTGlyph>
    <TTGlyph name="afii10065" xMin="23" yMin="-8" xMax="455" yMax="510">
      <component glyphName="a" x="0" y="0" flags="0x204"/>
    </TTGlyph>
    <TTGlyph name="afii10066" xMin="33" yMin="-14" xMax="504" yMax="727">
      <contour>
        <pt x="142" y="406" on="1"/>
        <pt x="171" y="450" on="0"/>
        <pt x="250" y="489" on="0"/>
        <pt x="306" y="489" on="1"/>
        <pt x="397" y="489" on="0"/>
        <pt x="504" y="378" on="0"/>
        <pt x="504" y="261" on="1"/>
        <pt x="504" y="126" on="0"/>
        <pt x="382" y="-14" on="0"/>
        <pt x="271" y="-14" on="1"/>
        <pt x="155" y="-14" on="0"/>
        <pt x="33" y="140" on="0"/>
        <pt x="33" y="303" on="1"/>
        <pt x="33" y="389" on="0"/>
        <pt x="53" y="511" on="0"/>
        <pt x="90" y="595" on="0"/>
        <pt x="141" y="645" on="0"/>
        <pt x="204" y="674" on="0"/>
        <pt x="276" y="686" on="0"/>
        <pt x="316" y="690" on="1"/>
        <pt x="368" y="695" on="0"/>
        <pt x="442" y="710" on="0"/>
        <pt x="460" y="727" on="1"/>
        <pt x="465" y="611" on="1"/>
        <pt x="445" y="594" on="0"/>
        <pt x="371" y="581" on="0"/>
        <pt x="308" y="576" on="1"/>
        <pt x="270" y="574" on="0"/>
        <pt x="212" y="560" on="0"/>
        <pt x="170" y="524" on="0"/>
        <pt x="145" y="459" on="0"/>
        <pt x="139" y="406" on="1"/>
      </contour>
      <contour>
        <pt x="167" y="244" on="1"/>
        <pt x="167" y="180" on="0"/>
        <pt x="217" y="96" on="0"/>
        <pt x="269" y="96" on="1"/>
        <pt x="323" y="96" on="0"/>
        <pt x="370" y="172" on="0"/>
        <pt x="370" y="244" on="1"/>
        <pt x="370" y="309" on="0"/>
        <pt x="326" y="379" on="0"/>
        <pt x="275" y="379" on="1"/>
        <pt x="220" y="379" on="0"/>
        <pt x="167" y="307" on="0"/>
      </contour>
    </TTGlyph>
    <TTGlyph name="afii10067" xMin="57" yMin="-8" xMax="470" yMax="508">
      <contour>
        <pt x="57" y="499" on="1"/>
        <pt x="92" y="502" on="0"/>
        <pt x="191" y="508" on="0"/>
        <pt x="248" y="508" on="1"/>
        <pt x="358" y="508" on="0"/>
        <pt x="451" y="445" on="0"/>
        <pt x="451" y="382" on="1"/>
        <pt x="451" y="347" on="0"/>
        <pt x="411" y="281" on="0"/>
        <pt x="368" y="266" on="1"/>
        <pt x="368" y="262" on="1"/>
        <pt x="422" y="250" on="0"/>
        <pt x="470" y="189" on="0"/>
        <pt x="470" y="141" on="1"/>
        <pt x="470" y="66" on="0"/>
        <pt x="355" y="-8" on="0"/>
        <pt x="228" y="-8" on="1"/>
        <pt x="186" y="-8" on="0"/>
        <pt x="92" y="-3" on="0"/>
        <pt x="57" y="1" on="1"/>
      </contour>
      <contour>
        <pt x="184" y="100" on="1"/>
        <pt x="198" y="98" on="0"/>
        <pt x="222" y="96" on="0"/>
        <pt x="240" y="96" on="1"/>
        <pt x="294" y="96" on="0"/>
        <pt x="340" y="126" on="0"/>
        <pt x="340" y="157" on="1"/>
        <pt x="340" y="183" on="0"/>
        <pt x="301" y="216" on="0"/>
        <pt x="251" y="216" on="1"/>
        <pt x="184" y="216" on="1"/>
      </contour>
      <contour>
        <pt x="253" y="296" on="1"/>
        <pt x="285" y="296" on="0"/>
        <pt x="326" y="327" on="0"/>
        <pt x="326" y="351" on="1"/>
        <pt x="326" y="377" on="0"/>
        <pt x="291" y="404" on="0"/>
        <pt x="245" y="404" on="1"/>
        <pt x="222" y="404" on="0"/>
        <pt x="195" y="402" on="0"/>
        <pt x="184" y="401" on="1"/>
        <pt x="184" y="296" on="1"/>
      </contour>
    </TTGlyph>
    <TTGlyph name="afii10068" xMin="57" yMin="0" xMax="380" yMax="500">
      <contour>
        <pt x="380" y="385" on="1"/>
        <pt x="191" y="385" on="1"/>
        <pt x="191" y="0" on="1"/>
        <pt x="57" y="0" on="1"/>
        <pt x="57" y="500" on="1"/>
        <pt x="380" y="500" on="1"/>
      </contour>
    </TTGlyph>
    <TTGlyph name="afii10069" xMin="-2" yMin="-114" xMax="554" yMax="500">
      <contour>
        <pt x="554" y="-114" on="1"/>
        <pt x="459" y="-114" on="1"/>
        <pt x="444" y="0" on="1"/>
        <pt x="108" y="0" on="1"/>
        <pt x="93" y="-114" on="1"/>
        <pt x="-2" y="-114" on="1"/>
        <pt x="-2" y="115" on="1"/>
        <pt x="57" y="115" on="1"/>
        <pt x="65" y="126" on="0"/>
        <pt x="90" y="179" on="0"/>
        <pt x="115" y="271" on="0"/>
        <pt x="133" y="407" on="0"/>
        <pt x="133" y="500" on="1"/>
        <pt x="481" y="500" on="1"/>
        <pt x="481" y="115" on="1"/>
        <pt x="554" y="115" on="1"/>
      </contour>
      <contour>
        <pt x="351" y="109" on="1"/>
        <pt x="351" y="390" on="1"/>
        <pt x="246" y="390" on="1"/>
        <pt x="244" y="354" on="0"/>
        <pt x="234" y="273" on="0"/>
        <pt x="219" y="197" on="0"/>
        <pt x="199" y="131" on="0"/>
        <pt x="187" y="109" on="1"/>
      </contour>
    </TTGlyph>
    <TTGlyph name="afii10070" xMin="33" yMin="-14" xMax="473" yMax="514">
      <component glyphName="e" x="0" y="0" flags="0x204"/>
    </TTGlyph>
    <TTGlyph name="afii10071" xMin="33" yMin="-14" xMax="473" yMax="702">
      <component glyphName="e" x="0" y="0" flags="0x204"/>
      <component glyphName="dieresis" x="25" y="-19" flags="0x4"/>
    </TTGlyph>
    <TTGlyph name="afii10072" xMin="-6" yMin="0" xMax="698" yMax="500">
      <contour>
        <pt x="242" y="203" on="1"/>
        <pt x="140" y="0" on="1"/>
        <pt x="-6" y="0" on="1"/>
        <pt x="125" y="229" on="1"/>
        <pt x="159" y="259" on="1"/>
        <pt x="108" y="297" on="1"/>
        <pt x="5" y="500" on="1"/>
        <pt x="144" y="500" on="1"/>
        <pt x="237" y="297" on="1"/>
        <pt x="280" y="297" on="1"/>
        <pt x="280" y="500" on="1"/>
        <pt x="404" y="500" on="1"/>
        <pt x="404" y="287" on="1"/>
        <pt x="442" y="301" on="1"/>
        <pt x="536" y="500" on="1"/>
        <pt x="674" y="500" on="1"/>
        <pt x="565" y="297" on="1"/>
        <pt x="526" y="265" on="1"/>
        <pt x="577" y="225" on="1"/>
        <pt x="698" y="0" on="1"/>
        <pt x="549" y="0" on="1"/>
        <pt x="447" y="207" on="1"/>
        <pt x="404" y="207" on="1"/>
        <pt x="404" y="0" on="1"/>
        <pt x="280" y="0" on="1"/>
        <pt x="280" y="217" on="1"/>
      </contour>
    </TTGlyph>
    <TTGlyph name="afii10073" xMin="22" yMin="-11" xMax="399" yMax="509">
      <contour>
        <pt x="109" y="207" on="1"/>
        <pt x="109" y="298" on="1"/>
        <pt x="170" y="298" on="1"/>
        <pt x="205" y="298" on="0"/>
        <pt x="250" y="326" on="0"/>
        <pt x="250" y="349" on="1"/>
        <pt x="250" y="376" on="0"/>
        <pt x="210" y="399" on="0"/>
        <pt x="169" y="399" on="1"/>
        <pt x="130" y="399" on="0"/>
        <pt x="70" y="379" on="0"/>
        <pt x="52" y="368" on="1"/>
        <pt x="24" y="467" on="1"/>
        <pt x="54" y="484" on="0"/>
        <pt x="153" y="509" on="0"/>
        <pt x="209" y="509" on="1"/>
        <pt x="295" y="509" on="0"/>
        <pt x="380" y="445" on="0"/>
        <pt x="380" y="384" on="1"/>
        <pt x="380" y="367" on="0"/>
        <pt x="371" y="332" on="0"/>
        <pt x="351" y="300" on="0"/>
        <pt x="322" y="275" on="0"/>
        <pt x="302" y="268" on="1"/>
        <pt x="302" y="264" on="1"/>
        <pt x="355" y="252" on="0"/>
        <pt x="399" y="191" on="0"/>
        <pt x="399" y="140" on="1"/>
        <pt x="399" y="108" on="0"/>
        <pt x="373" y="53" on="0"/>
        <pt x="320" y="13" on="0"/>
        <pt x="240" y="-11" on="0"/>
        <pt x="185" y="-11" on="1"/>
        <pt x="130" y="-11" on="0"/>
        <pt x="49" y="12" on="0"/>
        <pt x="22" y="27" on="1"/>
        <pt x="50" y="128" on="1"/>
        <pt x="73" y="115" on="0"/>
        <pt x="138" y="99" on="0"/>
        <pt x="178" y="99" on="1"/>
        <pt x="269" y="99" on="0"/>
        <pt x="269" y="157" on="1"/>
        <pt x="269" y="183" on="0"/>
        <pt x="222" y="207" on="0"/>
        <pt x="158" y="207" on="1"/>
      </contour>
    </TTGlyph>
    <TTGlyph name="afii10074" xMin="57" yMin="0" xMax="488" yMax="500">
      <contour>
        <pt x="358" y="228" on="1"/>
        <pt x="363" y="299" on="1"/>
        <pt x="360" y="299" on="1"/>
        <pt x="317" y="226" on="1"/>
        <pt x="139" y="0" on="1"/>
        <pt x="57" y="0" on="1"/>
        <pt x="57" y="500" on="1"/>
        <pt x="187" y="500" on="1"/>
        <pt x="187" y="262" on="1"/>
        <pt x="181" y="194" on="1"/>
        <pt x="185" y="194" on="1"/>
        <pt x="226" y="265" on="1"/>
        <pt x="406" y="500" on="1"/>
        <pt x="488" y="500" on="1"/>
        <pt x="488" y="0" on="1"/>
        <pt x="358" y="0" on="1"/>
      </contour>
    </TTGlyph>
    <TTGlyph name="afii10075" xMin="57" yMin="0" xMax="488" yMax="704">
      <component glyphName="afii10074" x="0" y="0" flags="0x204"/>
      <component glyphName="uniF6D4" x="49" y="0" flags="0x4"/>
    </TTGlyph>
    <TTGlyph name="afii10076" xMin="57" yMin="0" xMax="493" yMax="500">
      <contour>
        <pt x="222" y="207" on="1"/>
        <pt x="187" y="207" on="1"/>
        <pt x="187" y="0" on="1"/>
        <pt x="57" y="0" on="1"/>
        <pt x="57" y="500" on="1"/>
        <pt x="187" y="500" on="1"/>
        <pt x="187" y="287" on="1"/>
        <pt x="218" y="301" on="1"/>
        <pt x="335" y="500" on="1"/>
        <pt x="474" y="500" on="1"/>
        <pt x="353" y="310" on="1"/>
        <pt x="302" y="272" on="1"/>
        <pt x="358" y="233" on="1"/>
        <pt x="493" y="0" on="1"/>
        <pt x="344" y="0" on="1"/>
      </contour>
    </TTGlyph>
    <TTGlyph name="afii10077" xMin="-17" yMin="-6" xMax="459" yMax="500">
      <contour>
        <pt x="329" y="385" on="1"/>
        <pt x="230" y="385" on="1"/>
        <pt x="224" y="314" on="0"/>
        <pt x="208" y="174" on="0"/>
        <pt x="173" y="63" on="0"/>
        <pt x="113" y="-6" on="0"/>
        <pt x="65" y="-6" on="1"/>
        <pt x="7" y="-6" on="0"/>
        <pt x="-17" y="9" on="1"/>
        <pt x="-1" y="117" on="1"/>
        <pt x="15" y="111" on="0"/>
        <pt x="29" y="111" on="1"/>
        <pt x="49" y="111" on="0"/>
        <pt x="79" y="145" on="0"/>
        <pt x="100" y="233" on="0"/>
        <pt x="113" y="384" on="0"/>
        <pt x="116" y="500" on="1"/>
        <pt x="459" y="500" on="1"/>
        <pt x="459" y="0" on="1"/>
        <pt x="329" y="0" on="1"/>
      </contour>
    </TTGlyph>
    <TTGlyph name="afii10078" xMin="57" yMin="0" xMax="610" yMax="500">
      <contour>
        <pt x="485" y="229" on="1"/>
        <pt x="493" y="333" on="1"/>
        <pt x="488" y="333" on="1"/>
        <pt x="448" y="247" on="1"/>
        <pt x="354" y="92" on="1"/>
        <pt x="307" y="92" on="1"/>
        <pt x="204" y="247" on="1"/>
        <pt x="166" y="333" on="1"/>
        <pt x="160" y="333" on="1"/>
        <pt x="173" y="230" on="1"/>
        <pt x="173" y="0" on="1"/>
        <pt x="57" y="0" on="1"/>
        <pt x="57" y="500" on="1"/>
        <pt x="192" y="500" on="1"/>
        <pt x="307" y="312" on="1"/>
        <pt x="335" y="249" on="1"/>
        <pt x="339" y="249" on="1"/>
        <pt x="368" y="314" on="1"/>
        <pt x="474" y="500" on="1"/>
        <pt x="610" y="500" on="1"/>
        <pt x="610" y="0" on="1"/>
        <pt x="485" y="0" on="1"/>
      </contour>
    </TTGlyph>
    <TTGlyph name="afii10079" xMin="57" yMin="0" xMax="480" yMax="500">
      <contour>
        <pt x="350" y="197" on="1"/>
        <pt x="187" y="197" on="1"/>
        <pt x="187" y="0" on="1"/>
        <pt x="57" y="0" on="1"/>
        <pt x="57" y="500" on="1"/>
        <pt x="187" y="500" on="1"/>
        <pt x="187" y="312" on="1"/>
        <pt x="350" y="312" on="1"/>
        <pt x="350" y="500" on="1"/>
        <pt x="480" y="500" on="1"/>
        <pt x="480" y="0" on="1"/>
        <pt x="350" y="0" on="1"/>
      </contour>
    </TTGlyph>
    <TTGlyph name="afii10080" xMin="33" yMin="-14" xMax="504" yMax="514">
      <component glyphName="o" x="0" y="0" flags="0x204"/>
    </TTGlyph>
    <TTGlyph name="afii10081" xMin="57" yMin="0" xMax="475" yMax="500">
      <contour>
        <pt x="345" y="385" on="1"/>
        <pt x="187" y="385" on="1"/>
        <pt x="187" y="0" on="1"/>
        <pt x="57" y="0" on="1"/>
        <pt x="57" y="500" on="1"/>
        <pt x="475" y="500" on="1"/>
        <pt x="475" y="0" on="1"/>
        <pt x="345" y="0" on="1"/>
      </contour>
    </TTGlyph>
    <TTGlyph name="afii10082" xMin="57" yMin="-200" xMax="507" yMax="514">
      <component glyphName="p" x="0" y="0" flags="0x204"/>
    </TTGlyph>
    <TTGlyph name="afii10083" xMin="33" yMin="-14" xMax="411" yMax="514">
      <component glyphName="c" x="0" y="0" flags="0x204"/>
    </TTGlyph>
    <TTGlyph name="afii10084" xMin="1" yMin="0" xMax="417" yMax="500">
      <contour>
        <pt x="417" y="385" on="1"/>
        <pt x="276" y="385" on="1"/>
        <pt x="276" y="0" on="1"/>
        <pt x="142" y="0" on="1"/>
        <pt x="142" y="385" on="1"/>
        <pt x="1" y="385" on="1"/>
        <pt x="1" y="500" on="1"/>
        <pt x="417" y="500" on="1"/>
      </contour>
    </TTGlyph>
    <TTGlyph name="afii10085" xMin="-9" yMin="-205" xMax="486" yMax="500">
      <component glyphName="y" x="0" y="0" flags="0x204"/>
    </TTGlyph>
    <TTGlyph name="afii10086" xMin="28" yMin="-200" xMax="672" yMax="700">
      <contour>
        <pt x="286" y="-6" on="1"/>
        <pt x="269" y="-12" on="0"/>
        <pt x="232" y="-14" on="0"/>
        <pt x="217" y="-14" on="1"/>
        <pt x="126" y="-14" on="0"/>
        <pt x="28" y="116" on="0"/>
        <pt x="28" y="250" on="1"/>
        <pt x="28" y="378" on="0"/>
        <pt x="136" y="510" on="0"/>
        <pt x="238" y="510" on="1"/>
        <pt x="266" y="510" on="0"/>
        <pt x="286" y="506" on="1"/>
        <pt x="286" y="700" on="1"/>
        <pt x="414" y="700" on="1"/>
        <pt x="414" y="505" on="1"/>
        <pt x="432" y="508" on="0"/>
        <pt x="460" y="510" on="0"/>
        <pt x="473" y="510" on="1"/>
        <pt x="572" y="510" on="0"/>
        <pt x="672" y="393" on="0"/>
        <pt x="672" y="260" on="1"/>
        <pt x="672" y="197" on="0"/>
        <pt x="645" y="96" on="0"/>
        <pt x="593" y="24" on="0"/>
        <pt x="518" y="-14" on="0"/>
        <pt x="469" y="-14" on="1"/>
        <pt x="460" y="-14" on="0"/>
        <pt x="425" y="-11" on="0"/>
        <pt x="414" y="-7" on="1"/>
        <pt x="414" y="-200" on="1"/>
        <pt x="286" y="-200" on="1"/>
      </contour>
      <contour>
        <pt x="444" y="407" on="1"/>
        <pt x="434" y="407" on="0"/>
        <pt x="419" y="404" on="0"/>
        <pt x="408" y="402" on="1"/>
        <pt x="408" y="92" on="1"/>
        <pt x="416" y="90" on="0"/>
        <pt x="437" y="89" on="0"/>
        <pt x="449" y="89" on="1"/>
        <pt x="497" y="89" on="0"/>
        <pt x="542" y="168" on="0"/>
        <pt x="542" y="260" on="1"/>
        <pt x="542" y="338" on="0"/>
        <pt x="498" y="407" on="0"/>
      </contour>
      <contour>
        <pt x="251" y="89" on="1"/>
        <pt x="262" y="89" on="0"/>
        <pt x="281" y="92" on="0"/>
        <pt x="292" y="94" on="1"/>
        <pt x="292" y="403" on="1"/>
        <pt x="273" y="407" on="0"/>
        <pt x="253" y="407" on="1"/>
        <pt x="207" y="407" on="0"/>
        <pt x="158" y="336" on="0"/>
        <pt x="158" y="250" on="1"/>
        <pt x="158" y="172" on="0"/>
        <pt x="203" y="89" on="0"/>
      </contour>
    </TTGlyph>
    <TTGlyph name="afii10087" xMin="8" yMin="0" xMax="517" yMax="500">
      <component glyphName="x" x="0" y="0" flags="0x204"/>
    </TTGlyph>
    <TTGlyph name="afii10088" xMin="57" yMin="-114" xMax="545" yMax="500">
      <contour>
        <pt x="545" y="-114" on="1"/>
        <pt x="450" y="-114" on="1"/>
        <pt x="435" y="0" on="1"/>
        <pt x="57" y="0" on="1"/>
        <pt x="57" y="500" on="1"/>
        <pt x="187" y="500" on="1"/>
        <pt x="187" y="115" on="1"/>
        <pt x="342" y="115" on="1"/>
        <pt x="342" y="500" on="1"/>
        <pt x="472" y="500" on="1"/>
        <pt x="472" y="115" on="1"/>
        <pt x="545" y="115" on="1"/>
      </contour>
    </TTGlyph>
    <TTGlyph name="afii10089" xMin="33" yMin="0" xMax="448" yMax="500">
      <contour>
        <pt x="163" y="500" on="1"/>
        <pt x="163" y="386" on="1"/>
        <pt x="163" y="355" on="0"/>
        <pt x="168" y="310" on="0"/>
        <pt x="183" y="281" on="0"/>
        <pt x="210" y="267" on="0"/>
        <pt x="232" y="267" on="1"/>
        <pt x="261" y="267" on="0"/>
        <pt x="304" y="281" on="0"/>
        <pt x="318" y="291" on="1"/>
        <pt x="318" y="500" on="1"/>
        <pt x="448" y="500" on="1"/>
        <pt x="448" y="0" on="1"/>
        <pt x="318" y="0" on="1"/>
        <pt x="318" y="196" on="1"/>
        <pt x="303" y="185" on="0"/>
        <pt x="241" y="158" on="0"/>
        <pt x="189" y="158" on="1"/>
        <pt x="152" y="158" on="0"/>
        <pt x="94" y="174" on="0"/>
        <pt x="54" y="214" on="0"/>
        <pt x="33" y="280" on="0"/>
        <pt x="33" y="330" on="1"/>
        <pt x="33" y="500" on="1"/>
      </contour>
    </TTGlyph>
    <TTGlyph name="afii10090" xMin="57" yMin="0" xMax="697" yMax="500">
      <contour>
        <pt x="57" y="0" on="1"/>
        <pt x="57" y="500" on="1"/>
        <pt x="187" y="500" on="1"/>
        <pt x="187" y="115" on="1"/>
        <pt x="312" y="115" on="1"/>
        <pt x="312" y="500" on="1"/>
        <pt x="442" y="500" on="1"/>
        <pt x="442" y="115" on="1"/>
        <pt x="567" y="115" on="1"/>
        <pt x="567" y="500" on="1"/>
        <pt x="697" y="500" on="1"/>
        <pt x="697" y="0" on="1"/>
      </contour>
    </TTGlyph>
    <TTGlyph name="afii10091" xMin="57" yMin="-114" xMax="769" yMax="500">
      <contour>
        <pt x="769" y="-114" on="1"/>
        <pt x="675" y="-114" on="1"/>
        <pt x="660" y="0" on="1"/>
        <pt x="57" y="0" on="1"/>
        <pt x="57" y="500" on="1"/>
        <pt x="187" y="500" on="1"/>
        <pt x="187" y="115" on="1"/>
        <pt x="312" y="115" on="1"/>
        <pt x="312" y="500" on="1"/>
        <pt x="442" y="500" on="1"/>
        <pt x="442" y="115" on="1"/>
        <pt x="567" y="115" on="1"/>
        <pt x="567" y="500" on="1"/>
        <pt x="697" y="500" on="1"/>
        <pt x="697" y="115" on="1"/>
        <pt x="769" y="115" on="1"/>
      </contour>
    </TTGlyph>
    <TTGlyph name="afii10092" xMin="-5" yMin="-7" xMax="518" yMax="500">
      <contour>
        <pt x="235" y="109" on="1"/>
        <pt x="263" y="103" on="0"/>
        <pt x="292" y="103" on="1"/>
        <pt x="340" y="103" on="0"/>
        <pt x="384" y="136" on="0"/>
        <pt x="384" y="171" on="1"/>
        <pt x="384" y="236" on="0"/>
        <pt x="295" y="236" on="1"/>
        <pt x="260" y="236" on="0"/>
        <pt x="235" y="229" on="1"/>
      </contour>
      <contour>
        <pt x="235" y="322" on="1"/>
        <pt x="259" y="326" on="0"/>
        <pt x="309" y="329" on="0"/>
        <pt x="329" y="329" on="1"/>
        <pt x="381" y="329" on="0"/>
        <pt x="453" y="306" on="0"/>
        <pt x="498" y="264" on="0"/>
        <pt x="518" y="207" on="0"/>
        <pt x="518" y="174" on="1"/>
        <pt x="518" y="83" on="0"/>
        <pt x="409" y="-7" on="0"/>
        <pt x="281" y="-7" on="1"/>
        <pt x="224" y="-7" on="0"/>
        <pt x="140" y="-3" on="0"/>
        <pt x="105" y="0" on="1"/>
        <pt x="105" y="385" on="1"/>
        <pt x="-5" y="385" on="1"/>
        <pt x="-5" y="500" on="1"/>
        <pt x="235" y="500" on="1"/>
      </contour>
    </TTGlyph>
    <TTGlyph name="afii10093" xMin="57" yMin="-7" xMax="646" yMax="500">
      <contour>
        <pt x="187" y="109" on="1"/>
        <pt x="217" y="103" on="0"/>
        <pt x="244" y="103" on="1"/>
        <pt x="289" y="103" on="0"/>
        <pt x="325" y="136" on="0"/>
        <pt x="325" y="171" on="1"/>
        <pt x="325" y="203" on="0"/>
        <pt x="289" y="236" on="0"/>
        <pt x="247" y="236" on="1"/>
        <pt x="214" y="236" on="0"/>
        <pt x="187" y="229" on="1"/>
      </contour>
      <contour>
        <pt x="187" y="322" on="1"/>
        <pt x="211" y="326" on="0"/>
        <pt x="260" y="329" on="0"/>
        <pt x="280" y="329" on="1"/>
        <pt x="331" y="329" on="0"/>
        <pt x="399" y="306" on="0"/>
        <pt x="441" y="264" on="0"/>
        <pt x="459" y="207" on="0"/>
        <pt x="459" y="174" on="1"/>
        <pt x="459" y="129" on="0"/>
        <pt x="435" y="61" on="0"/>
        <pt x="381" y="16" on="0"/>
        <pt x="295" y="-7" on="0"/>
        <pt x="232" y="-7" on="1"/>
        <pt x="175" y="-7" on="0"/>
        <pt x="92" y="-3" on="0"/>
        <pt x="57" y="0" on="1"/>
        <pt x="57" y="500" on="1"/>
        <pt x="187" y="500" on="1"/>
      </contour>
      <contour>
        <pt x="516" y="500" on="1"/>
        <pt x="646" y="500" on="1"/>
        <pt x="646" y="0" on="1"/>
        <pt x="516" y="0" on="1"/>
      </contour>
    </TTGlyph>
    <TTGlyph name="afii10094" xMin="57" yMin="-7" xMax="469" yMax="500">
      <contour>
        <pt x="187" y="109" on="1"/>
        <pt x="217" y="103" on="0"/>
        <pt x="244" y="103" on="1"/>
        <pt x="292" y="103" on="0"/>
        <pt x="335" y="136" on="0"/>
        <pt x="335" y="171" on="1"/>
        <pt x="335" y="236" on="0"/>
        <pt x="247" y="236" on="1"/>
        <pt x="214" y="236" on="0"/>
        <pt x="187" y="229" on="1"/>
      </contour>
      <contour>
        <pt x="187" y="322" on="1"/>
        <pt x="211" y="326" on="0"/>
        <pt x="260" y="329" on="0"/>
        <pt x="280" y="329" on="1"/>
        <pt x="332" y="329" on="0"/>
        <pt x="404" y="306" on="0"/>
        <pt x="449" y="264" on="0"/>
        <pt x="469" y="207" on="0"/>
        <pt x="469" y="174" on="1"/>
        <pt x="469" y="83" on="0"/>
        <pt x="361" y="-7" on="0"/>
        <pt x="232" y="-7" on="1"/>
        <pt x="175" y="-7" on="0"/>
        <pt x="92" y="-3" on="0"/>
        <pt x="57" y="0" on="1"/>
        <pt x="57" y="500" on="1"/>
        <pt x="187" y="500" on="1"/>
      </contour>
    </TTGlyph>
    <TTGlyph name="afii10095" xMin="23" yMin="-14" xMax="426" yMax="514">
      <contour>
        <pt x="109" y="300" on="1"/>
        <pt x="295" y="300" on="1"/>
        <pt x="290" y="350" on="0"/>
        <pt x="234" y="404" on="0"/>
        <pt x="179" y="404" on="1"/>
        <pt x="141" y="404" on="0"/>
        <pt x="83" y="386" on="0"/>
        <pt x="61" y="374" on="1"/>
        <pt x="26" y="468" on="1"/>
        <pt x="92" y="514" on="0"/>
        <pt x="204" y="514" on="1"/>
        <pt x="316" y="514" on="0"/>
        <pt x="426" y="381" on="0"/>
        <pt x="426" y="250" on="1"/>
        <pt x="426" y="118" on="0"/>
        <pt x="302" y="-14" on="0"/>
        <pt x="194" y="-14" on="1"/>
        <pt x="147" y="-14" on="0"/>
        <pt x="51" y="5" on="0"/>
        <pt x="23" y="22" on="1"/>
        <pt x="55" y="124" on="1"/>
        <pt x="78" y="111" on="0"/>
        <pt x="141" y="96" on="0"/>
        <pt x="173" y="96" on="1"/>
        <pt x="237" y="96" on="0"/>
        <pt x="291" y="150" on="0"/>
        <pt x="296" y="207" on="1"/>
        <pt x="109" y="207" on="1"/>
      </contour>
    </TTGlyph>
    <TTGlyph name="afii10096" xMin="57" yMin="-14" xMax="700" yMax="514">
      <contour>
        <pt x="480" y="-14" on="1"/>
        <pt x="424" y="-14" on="0"/>
        <pt x="345" y="16" on="0"/>
        <pt x="294" y="72" on="0"/>
        <pt x="267" y="152" on="0"/>
        <pt x="263" y="202" on="1"/>
        <pt x="187" y="202" on="1"/>
        <pt x="187" y="0" on="1"/>
        <pt x="57" y="0" on="1"/>
        <pt x="57" y="500" on="1"/>
        <pt x="187" y="500" on="1"/>
        <pt x="187" y="312" on="1"/>
        <pt x="264" y="312" on="1"/>
        <pt x="274" y="409" on="0"/>
        <pt x="377" y="514" on="0"/>
        <pt x="482" y="514" on="1"/>
        <pt x="539" y="514" on="0"/>
        <pt x="621" y="476" on="0"/>
        <pt x="675" y="407" on="0"/>
        <pt x="700" y="309" on="0"/>
        <pt x="700" y="250" on="1"/>
        <pt x="700" y="123" on="0"/>
        <pt x="592" y="-14" on="0"/>
      </contour>
      <contour>
        <pt x="387" y="250" on="1"/>
        <pt x="387" y="177" on="0"/>
        <pt x="428" y="96" on="0"/>
        <pt x="480" y="96" on="1"/>
        <pt x="526" y="96" on="0"/>
        <pt x="566" y="164" on="0"/>
        <pt x="566" y="250" on="1"/>
        <pt x="566" y="327" on="0"/>
        <pt x="528" y="404" on="0"/>
        <pt x="477" y="404" on="1"/>
        <pt x="431" y="404" on="0"/>
        <pt x="387" y="334" on="0"/>
      </contour>
    </TTGlyph>
    <TTGlyph name="afii10097" xMin="10" yMin="0" xMax="451" yMax="514">
      <contour>
        <pt x="321" y="189" on="1"/>
        <pt x="261" y="177" on="1"/>
        <pt x="165" y="0" on="1"/>
        <pt x="10" y="0" on="1"/>
        <pt x="107" y="157" on="1"/>
        <pt x="156" y="194" on="1"/>
        <pt x="107" y="202" on="0"/>
        <pt x="43" y="279" on="0"/>
        <pt x="43" y="337" on="1"/>
        <pt x="43" y="428" on="0"/>
        <pt x="164" y="514" on="0"/>
        <pt x="289" y="514" on="1"/>
        <pt x="337" y="514" on="0"/>
        <pt x="420" y="504" on="0"/>
        <pt x="451" y="498" on="1"/>
        <pt x="451" y="0" on="1"/>
        <pt x="321" y="0" on="1"/>
      </contour>
      <contour>
        <pt x="321" y="257" on="1"/>
        <pt x="321" y="395" on="1"/>
        <pt x="310" y="400" on="0"/>
        <pt x="284" y="404" on="0"/>
        <pt x="272" y="404" on="1"/>
        <pt x="227" y="404" on="0"/>
        <pt x="177" y="366" on="0"/>
        <pt x="177" y="328" on="1"/>
        <pt x="177" y="290" on="0"/>
        <pt x="232" y="254" on="0"/>
        <pt x="285" y="255" on="1"/>
      </contour>
    </TTGlyph>
    <TTGlyph name="afii10098" xMin="57" yMin="0" xMax="380" yMax="652">
      <contour>
        <pt x="191" y="385" on="1"/>
        <pt x="191" y="0" on="1"/>
        <pt x="57" y="0" on="1"/>
        <pt x="57" y="500" on="1"/>
        <pt x="272" y="500" on="1"/>
        <pt x="293" y="652" on="1"/>
        <pt x="380" y="652" on="1"/>
        <pt x="380" y="385" on="1"/>
      </contour>
    </TTGlyph>
    <TTGlyph name="afii10099" xMin="-12" yMin="-208" xMax="498" yMax="700">
      <contour>
        <pt x="-12" y="600" on="1"/>
        <pt x="62" y="600" on="1"/>
        <pt x="62" y="700" on="1"/>
        <pt x="192" y="700" on="1"/>
        <pt x="192" y="600" on="1"/>
        <pt x="353" y="600" on="1"/>
        <pt x="353" y="520" on="1"/>
        <pt x="192" y="520" on="1"/>
        <pt x="192" y="390" on="1"/>
        <pt x="196" y="390" on="1"/>
        <pt x="219" y="422" on="0"/>
        <pt x="291" y="460" on="0"/>
        <pt x="345" y="460" on="1"/>
        <pt x="383" y="460" on="0"/>
        <pt x="441" y="440" on="0"/>
        <pt x="479" y="394" on="0"/>
        <pt x="498" y="315" on="0"/>
        <pt x="498" y="257" on="1"/>
        <pt x="498" y="-21" on="1"/>
        <pt x="498" y="-112" on="0"/>
        <pt x="426" y="-208" on="0"/>
        <pt x="347" y="-208" on="1"/>
        <pt x="317" y="-208" on="0"/>
        <pt x="283" y="-201" on="1"/>
        <pt x="283" y="-92" on="1"/>
        <pt x="287" y="-92" on="0"/>
        <pt x="294" y="-93" on="0"/>
        <pt x="298" y="-93" on="1"/>
        <pt x="341" y="-93" on="0"/>
        <pt x="368" y="-44" on="0"/>
        <pt x="368" y="0" on="1"/>
        <pt x="368" y="230" on="1"/>
        <pt x="368" y="291" on="0"/>
        <pt x="335" y="345" on="0"/>
        <pt x="290" y="345" on="1"/>
        <pt x="257" y="345" on="0"/>
        <pt x="200" y="301" on="0"/>
        <pt x="192" y="266" on="1"/>
        <pt x="192" y="0" on="1"/>
        <pt x="62" y="0" on="1"/>
        <pt x="62" y="520" on="1"/>
        <pt x="-12" y="520" on="1"/>
      </contour>
    </TTGlyph>
    <TTGlyph name="afii10100" xMin="57" yMin="0" xMax="380" yMax="720">
      <component glyphName="afii10068" x="0" y="0" flags="0x204"/>
      <component glyphName="acute" x="104" y="0" flags="0x4"/>
    </TTGlyph>
    <TTGlyph name="afii10101" xMin="37" yMin="-14" xMax="435" yMax="514">
      <contour>
        <pt x="435" y="31" on="1"/>
        <pt x="405" y="9" on="0"/>
        <pt x="315" y="-14" on="0"/>
        <pt x="270" y="-14" on="1"/>
        <pt x="210" y="-14" on="0"/>
        <pt x="122" y="24" on="0"/>
        <pt x="65" y="93" on="0"/>
        <pt x="37" y="191" on="0"/>
        <pt x="37" y="250" on="1"/>
        <pt x="37" y="313" on="0"/>
        <pt x="71" y="411" on="0"/>
        <pt x="133" y="479" on="0"/>
        <pt x="221" y="514" on="0"/>
        <pt x="275" y="514" on="1"/>
        <pt x="329" y="514" on="0"/>
        <pt x="401" y="496" on="0"/>
        <pt x="428" y="482" on="1"/>
        <pt x="398" y="376" on="1"/>
        <pt x="375" y="387" on="0"/>
        <pt x="324" y="399" on="0"/>
        <pt x="295" y="399" on="1"/>
        <pt x="248" y="399" on="0"/>
        <pt x="181" y="351" on="0"/>
        <pt x="171" y="297" on="1"/>
        <pt x="367" y="297" on="1"/>
        <pt x="367" y="209" on="1"/>
        <pt x="170" y="209" on="1"/>
        <pt x="179" y="161" on="0"/>
        <pt x="244" y="101" on="0"/>
        <pt x="302" y="101" on="1"/>
        <pt x="336" y="101" on="0"/>
        <pt x="386" y="118" on="0"/>
        <pt x="405" y="130" on="1"/>
      </contour>
    </TTGlyph>
    <TTGlyph name="afii10102" xMin="25" yMin="-14" xMax="394" yMax="514">
      <component glyphName="s" x="0" y="0" flags="0x204"/>
    </TTGlyph>
    <TTGlyph name="afii10103" xMin="52" yMin="0" xMax="218" yMax="711">
      <component glyphName="dotlessi" x="-2" y="0" flags="0x204"/>
      <component glyphName="dotaccent" x="-8" y="0" flags="0x4"/>
    </TTGlyph>
    <TTGlyph name="afii10103.alt" xMin="70" yMin="0" xMax="200" yMax="500">
      <component glyphName="dotlessi" x="0" y="0" flags="0x204"/>
    </TTGlyph>
    <TTGlyph name="afii10104" xMin="21" yMin="0" xMax="298" yMax="712">
      <contour>
        <pt x="21" y="642" on="1"/>
        <pt x="21" y="673" on="0"/>
        <pt x="52" y="712" on="0"/>
        <pt x="84" y="712" on="1"/>
        <pt x="116" y="712" on="0"/>
        <pt x="147" y="673" on="0"/>
        <pt x="147" y="642" on="1"/>
        <pt x="147" y="612" on="0"/>
        <pt x="116" y="573" on="0"/>
        <pt x="84" y="573" on="1"/>
        <pt x="52" y="573" on="0"/>
        <pt x="21" y="612" on="0"/>
      </contour>
      <contour>
        <pt x="172" y="642" on="1"/>
        <pt x="172" y="673" on="0"/>
        <pt x="203" y="712" on="0"/>
        <pt x="235" y="712" on="1"/>
        <pt x="267" y="712" on="0"/>
        <pt x="298" y="673" on="0"/>
        <pt x="298" y="642" on="1"/>
        <pt x="298" y="612" on="0"/>
        <pt x="267" y="573" on="0"/>
        <pt x="235" y="573" on="1"/>
        <pt x="203" y="573" on="0"/>
        <pt x="172" y="612" on="0"/>
      </contour>
      <contour>
        <pt x="93" y="500" on="1"/>
        <pt x="223" y="500" on="1"/>
        <pt x="223" y="0" on="1"/>
        <pt x="93" y="0" on="1"/>
      </contour>
    </TTGlyph>
    <TTGlyph name="afii10105" xMin="-16" yMin="-208" xMax="217" yMax="711">
      <component glyphName="uni0237" x="0" y="0" flags="0x204"/>
      <component glyphName="dotaccent" x="-9" y="0" flags="0x4"/>
    </TTGlyph>
    <TTGlyph name="afii10106" xMin="-17" yMin="-7" xMax="741" yMax="500">
      <contour>
        <pt x="459" y="322" on="1"/>
        <pt x="483" y="326" on="0"/>
        <pt x="532" y="329" on="0"/>
        <pt x="552" y="329" on="1"/>
        <pt x="604" y="329" on="0"/>
        <pt x="676" y="306" on="0"/>
        <pt x="721" y="264" on="0"/>
        <pt x="741" y="207" on="0"/>
        <pt x="741" y="174" on="1"/>
        <pt x="741" y="83" on="0"/>
        <pt x="633" y="-7" on="0"/>
        <pt x="504" y="-7" on="1"/>
        <pt x="447" y="-7" on="0"/>
        <pt x="364" y="-3" on="0"/>
        <pt x="329" y="0" on="1"/>
        <pt x="329" y="385" on="1"/>
        <pt x="230" y="385" on="1"/>
        <pt x="224" y="314" on="0"/>
        <pt x="208" y="174" on="0"/>
        <pt x="173" y="63" on="0"/>
        <pt x="113" y="-6" on="0"/>
        <pt x="65" y="-6" on="1"/>
        <pt x="7" y="-6" on="0"/>
        <pt x="-17" y="9" on="1"/>
        <pt x="-1" y="117" on="1"/>
        <pt x="15" y="111" on="0"/>
        <pt x="29" y="111" on="1"/>
        <pt x="49" y="111" on="0"/>
        <pt x="79" y="145" on="0"/>
        <pt x="100" y="233" on="0"/>
        <pt x="113" y="384" on="0"/>
        <pt x="116" y="500" on="1"/>
        <pt x="459" y="500" on="1"/>
      </contour>
      <contour>
        <pt x="519" y="236" on="1"/>
        <pt x="484" y="236" on="0"/>
        <pt x="459" y="229" on="1"/>
        <pt x="459" y="108" on="1"/>
        <pt x="473" y="105" on="0"/>
        <pt x="502" y="103" on="0"/>
        <pt x="516" y="103" on="1"/>
        <pt x="564" y="103" on="0"/>
        <pt x="607" y="136" on="0"/>
        <pt x="607" y="171" on="1"/>
        <pt x="607" y="236" on="0"/>
      </contour>
    </TTGlyph>
    <TTGlyph name="afii10107" xMin="57" yMin="-7" xMax="763" yMax="500">
      <contour>
        <pt x="480" y="321" on="1"/>
        <pt x="504" y="325" on="0"/>
        <pt x="554" y="328" on="0"/>
        <pt x="574" y="328" on="1"/>
        <pt x="626" y="328" on="0"/>
        <pt x="698" y="305" on="0"/>
        <pt x="743" y="263" on="0"/>
        <pt x="763" y="207" on="0"/>
        <pt x="763" y="174" on="1"/>
        <pt x="763" y="83" on="0"/>
        <pt x="654" y="-7" on="0"/>
        <pt x="526" y="-7" on="1"/>
        <pt x="469" y="-7" on="0"/>
        <pt x="385" y="-3" on="0"/>
        <pt x="350" y="0" on="1"/>
        <pt x="350" y="199" on="1"/>
        <pt x="187" y="199" on="1"/>
        <pt x="187" y="0" on="1"/>
        <pt x="57" y="0" on="1"/>
        <pt x="57" y="500" on="1"/>
        <pt x="187" y="500" on="1"/>
        <pt x="187" y="314" on="1"/>
        <pt x="350" y="314" on="1"/>
        <pt x="350" y="500" on="1"/>
        <pt x="480" y="500" on="1"/>
      </contour>
      <contour>
        <pt x="480" y="109" on="1"/>
        <pt x="508" y="103" on="0"/>
        <pt x="537" y="103" on="1"/>
        <pt x="585" y="103" on="0"/>
        <pt x="629" y="136" on="0"/>
        <pt x="629" y="171" on="1"/>
        <pt x="629" y="235" on="0"/>
        <pt x="540" y="235" on="1"/>
        <pt x="505" y="235" on="0"/>
        <pt x="480" y="228" on="1"/>
      </contour>
    </TTGlyph>
    <TTGlyph name="afii10108" xMin="-12" yMin="0" xMax="498" yMax="700">
      <contour>
        <pt x="-12" y="600" on="1"/>
        <pt x="62" y="600" on="1"/>
        <pt x="62" y="700" on="1"/>
        <pt x="192" y="700" on="1"/>
        <pt x="192" y="600" on="1"/>
        <pt x="353" y="600" on="1"/>
        <pt x="353" y="520" on="1"/>
        <pt x="192" y="520" on="1"/>
        <pt x="192" y="390" on="1"/>
        <pt x="196" y="390" on="1"/>
        <pt x="219" y="422" on="0"/>
        <pt x="291" y="460" on="0"/>
        <pt x="345" y="460" on="1"/>
        <pt x="383" y="460" on="0"/>
        <pt x="441" y="440" on="0"/>
        <pt x="479" y="394" on="0"/>
        <pt x="498" y="315" on="0"/>
        <pt x="498" y="257" on="1"/>
        <pt x="498" y="0" on="1"/>
        <pt x="368" y="0" on="1"/>
        <pt x="368" y="230" on="1"/>
        <pt x="368" y="291" on="0"/>
        <pt x="335" y="345" on="0"/>
        <pt x="290" y="345" on="1"/>
        <pt x="257" y="345" on="0"/>
        <pt x="200" y="301" on="0"/>
        <pt x="192" y="266" on="1"/>
        <pt x="192" y="0" on="1"/>
        <pt x="62" y="0" on="1"/>
        <pt x="62" y="520" on="1"/>
        <pt x="-12" y="520" on="1"/>
      </contour>
    </TTGlyph>
    <TTGlyph name="afii10109" xMin="57" yMin="0" xMax="493" yMax="720">
      <component glyphName="afii10076" x="0" y="0" flags="0x204"/>
      <component glyphName="acute" x="131" y="0" flags="0x4"/>
    </TTGlyph>
    <TTGlyph name="afii10110" xMin="-9" yMin="-205" xMax="486" yMax="704">
      <component glyphName="y" x="0" y="0" flags="0x204"/>
      <component glyphName="uniF6D4" x="15" y="0" flags="0x4"/>
    </TTGlyph>
    <TTGlyph name="afii10145" xMin="60" yMin="-175" xMax="579" yMax="700">
      <contour>
        <pt x="60" y="0" on="1"/>
        <pt x="60" y="700" on="1"/>
        <pt x="197" y="700" on="1"/>
        <pt x="197" y="122" on="1"/>
        <pt x="442" y="122" on="1"/>
        <pt x="442" y="700" on="1"/>
        <pt x="579" y="700" on="1"/>
        <pt x="579" y="0" on="1"/>
        <pt x="379" y="0" on="1"/>
        <pt x="364" y="-175" on="1"/>
        <pt x="276" y="-175" on="1"/>
        <pt x="256" y="0" on="1"/>
      </contour>
    </TTGlyph>
    <TTGlyph name="afii10146" xMin="0" yMin="-10" xMax="628" yMax="725">
      <contour>
        <pt x="0" y="648" on="1"/>
        <pt x="142" y="648" on="1"/>
        <pt x="142" y="725" on="1"/>
        <pt x="279" y="725" on="1"/>
        <pt x="279" y="648" on="1"/>
        <pt x="479" y="648" on="1"/>
        <pt x="479" y="533" on="1"/>
        <pt x="279" y="533" on="1"/>
        <pt x="279" y="443" on="1"/>
        <pt x="284" y="444" on="0"/>
        <pt x="307" y="447" on="0"/>
        <pt x="334" y="449" on="0"/>
        <pt x="362" y="451" on="0"/>
        <pt x="374" y="451" on="1"/>
        <pt x="423" y="451" on="0"/>
        <pt x="515" y="432" on="0"/>
        <pt x="586" y="382" on="0"/>
        <pt x="628" y="298" on="0"/>
        <pt x="628" y="232" on="1"/>
        <pt x="628" y="112" on="0"/>
        <pt x="479" y="-10" on="0"/>
        <pt x="340" y="-10" on="1"/>
        <pt x="326" y="-10" on="0"/>
        <pt x="279" y="-9" on="0"/>
        <pt x="223" y="-5" on="0"/>
        <pt x="166" y="1" on="0"/>
        <pt x="142" y="7" on="1"/>
        <pt x="142" y="533" on="1"/>
        <pt x="0" y="533" on="1"/>
      </contour>
      <contour>
        <pt x="347" y="112" on="1"/>
        <pt x="375" y="112" on="0"/>
        <pt x="425" y="123" on="0"/>
        <pt x="463" y="150" on="0"/>
        <pt x="484" y="194" on="0"/>
        <pt x="484" y="226" on="1"/>
        <pt x="484" y="260" on="0"/>
        <pt x="461" y="303" on="0"/>
        <pt x="424" y="327" on="0"/>
        <pt x="374" y="335" on="0"/>
        <pt x="347" y="335" on="1"/>
        <pt x="340" y="335" on="0"/>
        <pt x="320" y="333" on="0"/>
        <pt x="300" y="331" on="0"/>
        <pt x="283" y="328" on="0"/>
        <pt x="279" y="327" on="1"/>
        <pt x="279" y="118" on="1"/>
        <pt x="290" y="115" on="0"/>
        <pt x="327" y="112" on="0"/>
      </contour>
    </TTGlyph>
    <TTGlyph name="afii10147" xMin="38" yMin="-14" xMax="632" yMax="714">
      <contour>
        <pt x="38" y="350" on="1"/>
        <pt x="38" y="525" on="0"/>
        <pt x="192" y="714" on="0"/>
        <pt x="335" y="714" on="1"/>
        <pt x="410" y="714" on="0"/>
        <pt x="522" y="662" on="0"/>
        <pt x="596" y="566" on="0"/>
        <pt x="632" y="432" on="0"/>
        <pt x="632" y="350" on="1"/>
        <pt x="632" y="175" on="0"/>
        <pt x="477" y="-14" on="0"/>
        <pt x="335" y="-14" on="1"/>
        <pt x="259" y="-14" on="0"/>
        <pt x="147" y="38" on="0"/>
        <pt x="74" y="134" on="0"/>
        <pt x="38" y="268" on="0"/>
      </contour>
      <contour>
        <pt x="488" y="407" on="1"/>
        <pt x="480" y="496" on="0"/>
        <pt x="400" y="592" on="0"/>
        <pt x="335" y="592" on="1"/>
        <pt x="306" y="592" on="0"/>
        <pt x="254" y="572" on="0"/>
        <pt x="213" y="528" on="0"/>
        <pt x="186" y="457" on="0"/>
        <pt x="182" y="407" on="1"/>
      </contour>
      <contour>
        <pt x="182" y="297" on="1"/>
        <pt x="190" y="202" on="0"/>
        <pt x="272" y="108" on="0"/>
        <pt x="335" y="108" on="1"/>
        <pt x="364" y="108" on="0"/>
        <pt x="417" y="127" on="0"/>
        <pt x="458" y="170" on="0"/>
        <pt x="485" y="242" on="0"/>
        <pt x="488" y="297" on="1"/>
      </contour>
    </TTGlyph>
    <TTGlyph name="afii10148" xMin="-13" yMin="-5" xMax="683" yMax="709">
      <contour>
        <pt x="347" y="-5" on="1"/>
        <pt x="249" y="-5" on="1"/>
        <pt x="-13" y="700" on="1"/>
        <pt x="146" y="700" on="1"/>
        <pt x="286" y="289" on="1"/>
        <pt x="304" y="170" on="1"/>
        <pt x="308" y="170" on="1"/>
        <pt x="324" y="290" on="1"/>
        <pt x="393" y="519" on="1"/>
        <pt x="409" y="573" on="0"/>
        <pt x="443" y="646" on="0"/>
        <pt x="486" y="690" on="0"/>
        <pt x="540" y="709" on="0"/>
        <pt x="576" y="709" on="1"/>
        <pt x="614" y="709" on="0"/>
        <pt x="662" y="697" on="0"/>
        <pt x="683" y="686" on="1"/>
        <pt x="653" y="570" on="1"/>
        <pt x="636" y="579" on="0"/>
        <pt x="607" y="585" on="0"/>
        <pt x="591" y="585" on="1"/>
        <pt x="568" y="585" on="0"/>
        <pt x="538" y="550" on="0"/>
        <pt x="525" y="510" on="1"/>
      </contour>
    </TTGlyph>
    <TTGlyph name="afii10193" xMin="57" yMin="-175" xMax="475" yMax="500">
      <contour>
        <pt x="57" y="0" on="1"/>
        <pt x="57" y="500" on="1"/>
        <pt x="187" y="500" on="1"/>
        <pt x="187" y="115" on="1"/>
        <pt x="345" y="115" on="1"/>
        <pt x="345" y="500" on="1"/>
        <pt x="475" y="500" on="1"/>
        <pt x="475" y="0" on="1"/>
        <pt x="327" y="0" on="1"/>
        <pt x="312" y="-175" on="1"/>
        <pt x="224" y="-175" on="1"/>
        <pt x="204" y="0" on="1"/>
      </contour>
    </TTGlyph>
    <TTGlyph name="afii10194" xMin="-5" yMin="-7" xMax="518" yMax="700">
      <contour>
        <pt x="-5" y="500" on="1"/>
        <pt x="105" y="500" on="1"/>
        <pt x="105" y="700" on="1"/>
        <pt x="235" y="700" on="1"/>
        <pt x="235" y="500" on="1"/>
        <pt x="395" y="500" on="1"/>
        <pt x="395" y="407" on="1"/>
        <pt x="235" y="407" on="1"/>
        <pt x="235" y="322" on="1"/>
        <pt x="259" y="326" on="0"/>
        <pt x="309" y="329" on="0"/>
        <pt x="329" y="329" on="1"/>
        <pt x="381" y="329" on="0"/>
        <pt x="453" y="306" on="0"/>
        <pt x="498" y="264" on="0"/>
        <pt x="518" y="207" on="0"/>
        <pt x="518" y="174" on="1"/>
        <pt x="518" y="83" on="0"/>
        <pt x="409" y="-7" on="0"/>
        <pt x="281" y="-7" on="1"/>
        <pt x="224" y="-7" on="0"/>
        <pt x="140" y="-3" on="0"/>
        <pt x="105" y="0" on="1"/>
        <pt x="105" y="407" on="1"/>
        <pt x="-5" y="407" on="1"/>
      </contour>
      <contour>
        <pt x="235" y="109" on="1"/>
        <pt x="263" y="103" on="0"/>
        <pt x="292" y="103" on="1"/>
        <pt x="340" y="103" on="0"/>
        <pt x="384" y="136" on="0"/>
        <pt x="384" y="171" on="1"/>
        <pt x="384" y="236" on="0"/>
        <pt x="295" y="236" on="1"/>
        <pt x="260" y="236" on="0"/>
        <pt x="235" y="229" on="1"/>
      </contour>
    </TTGlyph>
    <TTGlyph name="afii10195" xMin="33" yMin="-14" xMax="504" yMax="514">
      <contour>
        <pt x="33" y="250" on="1"/>
        <pt x="33" y="377" on="0"/>
        <pt x="157" y="514" on="0"/>
        <pt x="269" y="514" on="1"/>
        <pt x="329" y="514" on="0"/>
        <pt x="417" y="476" on="0"/>
        <pt x="475" y="407" on="0"/>
        <pt x="504" y="309" on="0"/>
        <pt x="504" y="250" on="1"/>
        <pt x="504" y="123" on="0"/>
        <pt x="381" y="-14" on="0"/>
        <pt x="269" y="-14" on="1"/>
        <pt x="209" y="-14" on="0"/>
        <pt x="121" y="24" on="0"/>
        <pt x="62" y="93" on="0"/>
        <pt x="33" y="191" on="0"/>
      </contour>
      <contour>
        <pt x="370" y="289" on="1"/>
        <pt x="362" y="349" on="0"/>
        <pt x="311" y="404" on="0"/>
        <pt x="269" y="404" on="1"/>
        <pt x="250" y="404" on="0"/>
        <pt x="216" y="392" on="0"/>
        <pt x="189" y="365" on="0"/>
        <pt x="170" y="321" on="0"/>
        <pt x="167" y="289" on="1"/>
      </contour>
      <contour>
        <pt x="167" y="207" on="1"/>
        <pt x="173" y="153" on="0"/>
        <pt x="229" y="96" on="0"/>
        <pt x="269" y="96" on="1"/>
        <pt x="307" y="96" on="0"/>
        <pt x="364" y="145" on="0"/>
        <pt x="370" y="207" on="1"/>
      </contour>
    </TTGlyph>
    <TTGlyph name="afii10196" xMin="-7" yMin="-5" xMax="543" yMax="509">
      <contour>
        <pt x="289" y="-5" on="1"/>
        <pt x="210" y="-5" on="1"/>
        <pt x="-7" y="500" on="1"/>
        <pt x="144" y="500" on="1"/>
        <pt x="237" y="238" on="1"/>
        <pt x="254" y="161" on="1"/>
        <pt x="258" y="161" on="1"/>
        <pt x="273" y="240" on="1"/>
        <pt x="296" y="311" on="1"/>
        <pt x="313" y="365" on="0"/>
        <pt x="344" y="441" on="0"/>
        <pt x="381" y="488" on="0"/>
        <pt x="428" y="509" on="0"/>
        <pt x="461" y="509" on="1"/>
        <pt x="485" y="509" on="0"/>
        <pt x="529" y="500" on="0"/>
        <pt x="543" y="492" on="1"/>
        <pt x="525" y="386" on="1"/>
        <pt x="507" y="395" on="0"/>
        <pt x="491" y="395" on="1"/>
        <pt x="474" y="395" on="0"/>
        <pt x="443" y="367" on="0"/>
        <pt x="427" y="329" on="1"/>
      </contour>
    </TTGlyph>
    <TTGlyph name="afii10846" xMin="34" yMin="-14" xMax="474" yMax="514">
      <contour>
        <pt x="50" y="457" on="1"/>
        <pt x="80" y="481" on="0"/>
        <pt x="183" y="514" on="0"/>
        <pt x="241" y="514" on="1"/>
        <pt x="301" y="514" on="0"/>
        <pt x="389" y="476" on="0"/>
        <pt x="446" y="407" on="0"/>
        <pt x="474" y="309" on="0"/>
        <pt x="474" y="250" on="1"/>
        <pt x="474" y="123" on="0"/>
        <pt x="350" y="-14" on="0"/>
        <pt x="243" y="-14" on="1"/>
        <pt x="204" y="-14" on="0"/>
        <pt x="129" y="8" on="0"/>
        <pt x="70" y="58" on="0"/>
        <pt x="34" y="141" on="0"/>
        <pt x="34" y="201" on="1"/>
        <pt x="34" y="243" on="0"/>
        <pt x="44" y="292" on="1"/>
        <pt x="347" y="292" on="1"/>
        <pt x="342" y="354" on="0"/>
        <pt x="283" y="410" on="0"/>
        <pt x="217" y="410" on="1"/>
        <pt x="176" y="410" on="0"/>
        <pt x="113" y="381" on="0"/>
        <pt x="96" y="369" on="1"/>
      </contour>
      <contour>
        <pt x="242" y="90" on="1"/>
        <pt x="292" y="90" on="0"/>
        <pt x="343" y="159" on="0"/>
        <pt x="344" y="211" on="1"/>
        <pt x="155" y="211" on="1"/>
        <pt x="150" y="157" on="0"/>
        <pt x="197" y="90" on="0"/>
      </contour>
    </TTGlyph>
    <TTGlyph name="afii57929" xMin="38" yMin="463" xMax="185" yMax="709">
      <component glyphName="quoteright" x="0" y="0" flags="0x204"/>
    </TTGlyph>
    <TTGlyph name="afii61289" xMin="73" yMin="-12" xMax="406" yMax="712">
      <contour>
        <pt x="406" y="30" on="1"/>
        <pt x="384" y="16" on="0"/>
        <pt x="313" y="-12" on="0"/>
        <pt x="278" y="-12" on="1"/>
        <pt x="215" y="-12" on="0"/>
        <pt x="158" y="49" on="0"/>
        <pt x="158" y="114" on="1"/>
        <pt x="158" y="218" on="1"/>
        <pt x="108" y="174" on="1"/>
        <pt x="73" y="218" on="1"/>
        <pt x="158" y="292" on="1"/>
        <pt x="158" y="546" on="1"/>
        <pt x="158" y="590" on="0"/>
        <pt x="178" y="653" on="0"/>
        <pt x="213" y="693" on="0"/>
        <pt x="260" y="712" on="0"/>
        <pt x="287" y="712" on="1"/>
        <pt x="335" y="712" on="0"/>
        <pt x="397" y="653" on="0"/>
        <pt x="397" y="593" on="1"/>
        <pt x="397" y="519" on="0"/>
        <pt x="317" y="353" on="0"/>
        <pt x="226" y="265" on="1"/>
        <pt x="226" y="125" on="1"/>
        <pt x="226" y="81" on="0"/>
        <pt x="260" y="48" on="0"/>
        <pt x="284" y="48" on="1"/>
        <pt x="309" y="48" on="0"/>
        <pt x="369" y="69" on="0"/>
        <pt x="389" y="80" on="1"/>
      </contour>
      <contour>
        <pt x="333" y="588" on="1"/>
        <pt x="333" y="622" on="0"/>
        <pt x="305" y="652" on="0"/>
        <pt x="287" y="652" on="1"/>
        <pt x="275" y="652" on="0"/>
        <pt x="253" y="645" on="0"/>
        <pt x="236" y="624" on="0"/>
        <pt x="226" y="587" on="0"/>
        <pt x="226" y="557" on="1"/>
        <pt x="226" y="345" on="1"/>
        <pt x="282" y="410" on="0"/>
        <pt x="333" y="531" on="0"/>
      </contour>
    </TTGlyph>
    <TTGlyph name="afii61352" xMin="60" yMin="-5" xMax="984" yMax="712">
      <contour>
        <pt x="655" y="321" on="1"/>
        <pt x="969" y="321" on="1"/>
        <pt x="969" y="210" on="1"/>
        <pt x="655" y="210" on="1"/>
      </contour>
      <contour>
        <pt x="234" y="362" on="1"/>
        <pt x="179" y="475" on="1"/>
        <pt x="174" y="475" on="1"/>
        <pt x="190" y="365" on="1"/>
        <pt x="190" y="0" on="1"/>
        <pt x="60" y="0" on="1"/>
        <pt x="60" y="705" on="1"/>
        <pt x="160" y="705" on="1"/>
        <pt x="410" y="335" on="1"/>
        <pt x="462" y="225" on="1"/>
        <pt x="468" y="225" on="1"/>
        <pt x="452" y="332" on="1"/>
        <pt x="452" y="700" on="1"/>
        <pt x="582" y="700" on="1"/>
        <pt x="582" y="-5" on="1"/>
        <pt x="483" y="-5" on="1"/>
      </contour>
      <contour>
        <pt x="634" y="542" on="1"/>
        <pt x="634" y="587" on="0"/>
        <pt x="660" y="651" on="0"/>
        <pt x="706" y="693" on="0"/>
        <pt x="771" y="712" on="0"/>
        <pt x="809" y="712" on="1"/>
        <pt x="847" y="712" on="0"/>
        <pt x="911" y="694" on="0"/>
        <pt x="958" y="654" on="0"/>
        <pt x="984" y="589" on="0"/>
        <pt x="984" y="542" on="1"/>
        <pt x="984" y="495" on="0"/>
        <pt x="958" y="430" on="0"/>
        <pt x="911" y="390" on="0"/>
        <pt x="847" y="372" on="0"/>
        <pt x="809" y="372" on="1"/>
        <pt x="771" y="372" on="0"/>
        <pt x="706" y="390" on="0"/>
        <pt x="660" y="430" on="0"/>
        <pt x="634" y="495" on="0"/>
      </contour>
      <contour>
        <pt x="750" y="542" on="1"/>
        <pt x="750" y="456" on="0"/>
        <pt x="809" y="456" on="1"/>
        <pt x="840" y="456" on="0"/>
        <pt x="867" y="493" on="0"/>
        <pt x="867" y="542" on="1"/>
        <pt x="867" y="590" on="0"/>
        <pt x="840" y="628" on="0"/>
        <pt x="809" y="628" on="1"/>
        <pt x="778" y="628" on="0"/>
        <pt x="750" y="590" on="0"/>
      </contour>
    </TTGlyph>
    <TTGlyph name="agrave" xMin="23" yMin="-8" xMax="455" yMax="720">
      <component glyphName="a" x="0" y="0" flags="0x204"/>
      <component glyphName="grave" x="55" y="0" flags="0x4"/>
    </TTGlyph>
    <TTGlyph name="amacron" xMin="23" yMin="-8" xMax="455" yMax="658">
      <component glyphName="a" x="0" y="0" flags="0x204"/>
      <component glyphName="macron" x="31" y="0" flags="0x4"/>
    </TTGlyph>
    <TTGlyph name="ampersand" xMin="92" yMin="-14" xMax="749" yMax="714">
      <contour>
        <pt x="92" y="194" on="1"/>
        <pt x="92" y="232" on="0"/>
        <pt x="117" y="301" on="0"/>
        <pt x="162" y="361" on="0"/>
        <pt x="224" y="413" on="0"/>
        <pt x="260" y="433" on="1"/>
        <pt x="235" y="466" on="0"/>
        <pt x="203" y="534" on="0"/>
        <pt x="203" y="572" on="1"/>
        <pt x="203" y="597" on="0"/>
        <pt x="222" y="648" on="0"/>
        <pt x="263" y="689" on="0"/>
        <pt x="329" y="714" on="0"/>
        <pt x="376" y="714" on="1"/>
        <pt x="422" y="714" on="0"/>
        <pt x="487" y="692" on="0"/>
        <pt x="527" y="656" on="0"/>
        <pt x="545" y="610" on="0"/>
        <pt x="545" y="586" on="1"/>
        <pt x="545" y="545" on="0"/>
        <pt x="487" y="456" on="0"/>
        <pt x="417" y="415" on="1"/>
        <pt x="452" y="361" on="0"/>
        <pt x="522" y="271" on="0"/>
        <pt x="565" y="227" on="1"/>
        <pt x="588" y="252" on="0"/>
        <pt x="625" y="327" on="0"/>
        <pt x="639" y="366" on="1"/>
        <pt x="733" y="316" on="1"/>
        <pt x="727" y="298" on="0"/>
        <pt x="706" y="255" on="0"/>
        <pt x="681" y="211" on="0"/>
        <pt x="655" y="172" on="0"/>
        <pt x="644" y="158" on="1"/>
        <pt x="676" y="129" on="0"/>
        <pt x="724" y="96" on="0"/>
        <pt x="749" y="82" on="1"/>
        <pt x="680" y="-14" on="1"/>
        <pt x="652" y="-1" on="0"/>
        <pt x="593" y="42" on="0"/>
        <pt x="564" y="70" on="1"/>
        <pt x="528" y="37" on="0"/>
        <pt x="420" y="-14" on="0"/>
        <pt x="341" y="-14" on="1"/>
        <pt x="289" y="-14" on="0"/>
        <pt x="198" y="14" on="0"/>
        <pt x="131" y="68" on="0"/>
        <pt x="92" y="145" on="0"/>
      </contour>
      <contour>
        <pt x="486" y="149" on="1"/>
        <pt x="435" y="202" on="0"/>
        <pt x="351" y="307" on="0"/>
        <pt x="320" y="354" on="1"/>
        <pt x="272" y="317" on="0"/>
        <pt x="222" y="248" on="0"/>
        <pt x="222" y="205" on="1"/>
        <pt x="222" y="154" on="0"/>
        <pt x="297" y="96" on="0"/>
        <pt x="358" y="96" on="1"/>
        <pt x="398" y="96" on="0"/>
        <pt x="468" y="129" on="0"/>
      </contour>
      <contour>
        <pt x="333" y="566" on="1"/>
        <pt x="333" y="524" on="0"/>
        <pt x="369" y="476" on="1"/>
        <pt x="408" y="501" on="0"/>
        <pt x="443" y="545" on="0"/>
        <pt x="443" y="565" on="1"/>
        <pt x="443" y="589" on="0"/>
        <pt x="416" y="617" on="0"/>
        <pt x="386" y="617" on="1"/>
        <pt x="359" y="617" on="0"/>
        <pt x="333" y="589" on="0"/>
      </contour>
    </TTGlyph>
    <TTGlyph name="aogonek" xMin="23" yMin="-201" xMax="479" yMax="510">
      <contour>
        <pt x="54" y="466" on="1"/>
        <pt x="92" y="487" on="0"/>
        <pt x="195" y="510" on="0"/>
        <pt x="264" y="510" on="1"/>
        <pt x="316" y="510" on="0"/>
        <pt x="386" y="485" on="0"/>
        <pt x="427" y="439" on="0"/>
        <pt x="444" y="375" on="0"/>
        <pt x="444" y="335" on="1"/>
        <pt x="444" y="291" on="0"/>
        <pt x="438" y="202" on="0"/>
        <pt x="437" y="116" on="0"/>
        <pt x="443" y="35" on="0"/>
        <pt x="455" y="-1" on="1"/>
        <pt x="432" y="-1" on="1"/>
        <pt x="376" y="-25" on="0"/>
        <pt x="376" y="-73" on="1"/>
        <pt x="376" y="-99" on="0"/>
        <pt x="420" y="-124" on="0"/>
        <pt x="460" y="-104" on="1"/>
        <pt x="479" y="-166" on="1"/>
        <pt x="464" y="-178" on="0"/>
        <pt x="399" y="-201" on="0"/>
        <pt x="364" y="-201" on="1"/>
        <pt x="308" y="-201" on="0"/>
        <pt x="249" y="-151" on="0"/>
        <pt x="249" y="-110" on="1"/>
        <pt x="249" y="-70" on="0"/>
        <pt x="302" y="-13" on="0"/>
        <pt x="347" y="4" on="1"/>
        <pt x="328" y="68" on="1"/>
        <pt x="323" y="68" on="1"/>
        <pt x="303" y="37" on="0"/>
        <pt x="232" y="-8" on="0"/>
        <pt x="176" y="-8" on="1"/>
        <pt x="141" y="-8" on="0"/>
        <pt x="85" y="13" on="0"/>
        <pt x="45" y="52" on="0"/>
        <pt x="23" y="105" on="0"/>
        <pt x="23" y="138" on="1"/>
        <pt x="23" y="184" on="0"/>
        <pt x="64" y="247" on="0"/>
        <pt x="140" y="286" on="0"/>
        <pt x="247" y="301" on="0"/>
        <pt x="313" y="298" on="1"/>
        <pt x="320" y="354" on="0"/>
        <pt x="291" y="403" on="0"/>
        <pt x="239" y="403" on="1"/>
        <pt x="200" y="403" on="0"/>
        <pt x="119" y="386" on="0"/>
        <pt x="88" y="372" on="1"/>
      </contour>
      <contour>
        <pt x="219" y="99" on="1"/>
        <pt x="258" y="99" on="0"/>
        <pt x="304" y="134" on="0"/>
        <pt x="315" y="154" on="1"/>
        <pt x="315" y="219" on="1"/>
        <pt x="284" y="222" on="0"/>
        <pt x="227" y="218" on="0"/>
        <pt x="183" y="204" on="0"/>
        <pt x="157" y="178" on="0"/>
        <pt x="157" y="158" on="1"/>
        <pt x="157" y="130" on="0"/>
        <pt x="190" y="99" on="0"/>
      </contour>
    </TTGlyph>
    <TTGlyph name="approxequal" xMin="30" yMin="171" xMax="501" yMax="540">
      <component glyphName="asciitilde" x="2" y="95" flags="0x204"/>
      <component glyphName="asciitilde" x="2" y="-98" flags="0x4"/>
    </TTGlyph>
    <TTGlyph name="aring" xMin="23" yMin="-8" xMax="455" yMax="743">
      <component glyphName="a" x="0" y="0" flags="0x204"/>
      <component glyphName="ring" x="84" y="0" flags="0x4"/>
    </TTGlyph>
    <TTGlyph name="asciicircum" xMin="20" yMin="413" xMax="470" yMax="705">
      <contour>
        <pt x="216" y="705" on="1"/>
        <pt x="285" y="705" on="1"/>
        <pt x="470" y="413" on="1"/>
        <pt x="339" y="413" on="1"/>
        <pt x="268" y="535" on="1"/>
        <pt x="247" y="605" on="1"/>
        <pt x="222" y="534" on="1"/>
        <pt x="144" y="413" on="1"/>
        <pt x="20" y="413" on="1"/>
      </contour>
    </TTGlyph>
    <TTGlyph name="asciitilde" xMin="28" yMin="269" xMax="499" yMax="445">
      <contour>
        <pt x="28" y="378" on="1"/>
        <pt x="75" y="416" on="0"/>
        <pt x="150" y="445" on="0"/>
        <pt x="182" y="445" on="1"/>
        <pt x="211" y="445" on="0"/>
        <pt x="261" y="428" on="0"/>
        <pt x="307" y="409" on="0"/>
        <pt x="352" y="392" on="0"/>
        <pt x="375" y="392" on="1"/>
        <pt x="393" y="392" on="0"/>
        <pt x="431" y="404" on="0"/>
        <pt x="452" y="421" on="1"/>
        <pt x="499" y="318" on="1"/>
        <pt x="463" y="291" on="0"/>
        <pt x="403" y="269" on="0"/>
        <pt x="377" y="269" on="1"/>
        <pt x="349" y="269" on="0"/>
        <pt x="301" y="287" on="0"/>
        <pt x="256" y="309" on="0"/>
        <pt x="210" y="327" on="0"/>
        <pt x="184" y="327" on="1"/>
        <pt x="160" y="327" on="0"/>
        <pt x="105" y="306" on="0"/>
        <pt x="72" y="278" on="1"/>
      </contour>
    </TTGlyph>
    <TTGlyph name="asterisk" xMin="40" yMin="433" xMax="338" yMax="731">
      <contour>
        <pt x="144" y="731" on="1"/>
        <pt x="172" y="685" on="1"/>
        <pt x="187" y="626" on="1"/>
        <pt x="202" y="681" on="1"/>
        <pt x="230" y="730" on="1"/>
        <pt x="294" y="695" on="1"/>
        <pt x="264" y="643" on="1"/>
        <pt x="216" y="600" on="1"/>
        <pt x="281" y="616" on="1"/>
        <pt x="338" y="616" on="1"/>
        <pt x="338" y="543" on="1"/>
        <pt x="283" y="543" on="1"/>
        <pt x="222" y="559" on="1"/>
        <pt x="272" y="512" on="1"/>
        <pt x="297" y="470" on="1"/>
        <pt x="233" y="433" on="1"/>
        <pt x="206" y="479" on="1"/>
        <pt x="186" y="543" on="1"/>
        <pt x="173" y="485" on="1"/>
        <pt x="144" y="436" on="1"/>
        <pt x="80" y="473" on="1"/>
        <pt x="109" y="522" on="1"/>
        <pt x="154" y="559" on="1"/>
        <pt x="99" y="543" on="1"/>
        <pt x="40" y="543" on="1"/>
        <pt x="40" y="617" on="1"/>
        <pt x="100" y="617" on="1"/>
        <pt x="159" y="600" on="1"/>
        <pt x="108" y="644" on="1"/>
        <pt x="80" y="694" on="1"/>
      </contour>
    </TTGlyph>
    <TTGlyph name="at" xMin="73" yMin="-200" xMax="986" yMax="712">
      <contour>
        <pt x="679" y="484" on="1"/>
        <pt x="749" y="484" on="1"/>
        <pt x="701" y="213" on="1"/>
        <pt x="693" y="166" on="0"/>
        <pt x="708" y="124" on="0"/>
        <pt x="734" y="124" on="1"/>
        <pt x="760" y="124" on="0"/>
        <pt x="810" y="148" on="0"/>
        <pt x="850" y="198" on="0"/>
        <pt x="875" y="274" on="0"/>
        <pt x="875" y="326" on="1"/>
        <pt x="875" y="401" on="0"/>
        <pt x="825" y="507" on="0"/>
        <pt x="738" y="576" on="0"/>
        <pt x="620" y="608" on="0"/>
        <pt x="552" y="608" on="1"/>
        <pt x="474" y="608" on="0"/>
        <pt x="340" y="552" on="0"/>
        <pt x="241" y="454" on="0"/>
        <pt x="185" y="319" on="0"/>
        <pt x="185" y="240" on="1"/>
        <pt x="185" y="162" on="0"/>
        <pt x="232" y="38" on="0"/>
        <pt x="322" y="-49" on="0"/>
        <pt x="455" y="-96" on="0"/>
        <pt x="541" y="-96" on="1"/>
        <pt x="570" y="-96" on="0"/>
        <pt x="644" y="-82" on="0"/>
        <pt x="674" y="-68" on="1"/>
        <pt x="705" y="-164" on="1"/>
        <pt x="664" y="-184" on="0"/>
        <pt x="579" y="-200" on="0"/>
        <pt x="524" y="-200" on="1"/>
        <pt x="427" y="-200" on="0"/>
        <pt x="262" y="-144" on="0"/>
        <pt x="141" y="-34" on="0"/>
        <pt x="73" y="129" on="0"/>
        <pt x="73" y="236" on="1"/>
        <pt x="73" y="345" on="0"/>
        <pt x="151" y="521" on="0"/>
        <pt x="283" y="645" on="0"/>
        <pt x="457" y="712" on="0"/>
        <pt x="554" y="712" on="1"/>
        <pt x="646" y="712" on="0"/>
        <pt x="804" y="659" on="0"/>
        <pt x="920" y="560" on="0"/>
        <pt x="986" y="417" on="0"/>
        <pt x="986" y="326" on="1"/>
        <pt x="986" y="262" on="0"/>
        <pt x="941" y="150" on="0"/>
        <pt x="862" y="68" on="0"/>
        <pt x="757" y="20" on="0"/>
        <pt x="697" y="20" on="1"/>
        <pt x="672" y="20" on="0"/>
        <pt x="629" y="31" on="0"/>
        <pt x="600" y="57" on="0"/>
        <pt x="586" y="99" on="0"/>
        <pt x="589" y="130" on="1"/>
        <pt x="585" y="130" on="1"/>
        <pt x="570" y="109" on="0"/>
        <pt x="535" y="69" on="0"/>
        <pt x="493" y="38" on="0"/>
        <pt x="443" y="20" on="0"/>
        <pt x="413" y="20" on="1"/>
        <pt x="389" y="20" on="0"/>
        <pt x="345" y="41" on="0"/>
        <pt x="313" y="79" on="0"/>
        <pt x="294" y="133" on="0"/>
        <pt x="294" y="166" on="1"/>
        <pt x="294" y="228" on="0"/>
        <pt x="334" y="345" on="0"/>
        <pt x="403" y="435" on="0"/>
        <pt x="494" y="490" on="0"/>
        <pt x="545" y="490" on="1"/>
        <pt x="580" y="490" on="0"/>
        <pt x="628" y="469" on="0"/>
        <pt x="648" y="452" on="1"/>
      </contour>
      <contour>
        <pt x="616" y="363" on="1"/>
        <pt x="603" y="374" on="0"/>
        <pt x="575" y="386" on="0"/>
        <pt x="554" y="386" on="1"/>
        <pt x="524" y="386" on="0"/>
        <pt x="473" y="352" on="0"/>
        <pt x="436" y="298" on="0"/>
        <pt x="416" y="231" on="0"/>
        <pt x="416" y="199" on="1"/>
        <pt x="416" y="166" on="0"/>
        <pt x="443" y="124" on="0"/>
        <pt x="476" y="124" on="1"/>
        <pt x="490" y="124" on="0"/>
        <pt x="522" y="141" on="0"/>
        <pt x="552" y="169" on="0"/>
        <pt x="580" y="205" on="0"/>
        <pt x="591" y="225" on="1"/>
      </contour>
    </TTGlyph>
    <TTGlyph name="atilde" xMin="23" yMin="-8" xMax="455" yMax="723">
      <component glyphName="a" x="0" y="0" flags="0x204"/>
      <component glyphName="tilde" x="26" y="0" flags="0x4"/>
    </TTGlyph>
    <TTGlyph name="b" xMin="57" yMin="-12" xMax="503" yMax="700">
      <contour>
        <pt x="57" y="700" on="1"/>
        <pt x="187" y="700" on="1"/>
        <pt x="187" y="460" on="1"/>
        <pt x="191" y="460" on="1"/>
        <pt x="212" y="484" on="0"/>
        <pt x="278" y="512" on="0"/>
        <pt x="318" y="512" on="1"/>
        <pt x="408" y="512" on="0"/>
        <pt x="503" y="389" on="0"/>
        <pt x="503" y="263" on="1"/>
        <pt x="503" y="128" on="0"/>
        <pt x="370" y="-12" on="0"/>
        <pt x="254" y="-12" on="1"/>
        <pt x="190" y="-12" on="0"/>
        <pt x="84" y="9" on="0"/>
        <pt x="57" y="22" on="1"/>
      </contour>
      <contour>
        <pt x="280" y="402" on="1"/>
        <pt x="244" y="402" on="0"/>
        <pt x="199" y="365" on="0"/>
        <pt x="187" y="330" on="1"/>
        <pt x="187" y="112" on="1"/>
        <pt x="203" y="104" on="0"/>
        <pt x="240" y="98" on="0"/>
        <pt x="261" y="98" on="1"/>
        <pt x="314" y="98" on="0"/>
        <pt x="369" y="175" on="0"/>
        <pt x="369" y="259" on="1"/>
        <pt x="369" y="402" on="0"/>
      </contour>
    </TTGlyph>
    <TTGlyph name="backslash" xMin="-24" yMin="-140" xMax="438" yMax="711">
      <contour>
        <pt x="438" y="-95" on="1"/>
        <pt x="339" y="-140" on="1"/>
        <pt x="-24" y="668" on="1"/>
        <pt x="78" y="711" on="1"/>
      </contour>
    </TTGlyph>
    <TTGlyph name="bar" xMin="60" yMin="-130" xMax="167" yMax="700">
      <contour>
        <pt x="60" y="700" on="1"/>
        <pt x="167" y="700" on="1"/>
        <pt x="167" y="-130" on="1"/>
        <pt x="60" y="-130" on="1"/>
      </contour>
    </TTGlyph>
    <TTGlyph name="braceleft" xMin="43" yMin="-230" xMax="350" yMax="701">
      <contour>
        <pt x="123" y="96" on="1"/>
        <pt x="123" y="147" on="0"/>
        <pt x="81" y="185" on="0"/>
        <pt x="43" y="185" on="1"/>
        <pt x="43" y="285" on="1"/>
        <pt x="81" y="285" on="0"/>
        <pt x="123" y="326" on="0"/>
        <pt x="123" y="370" on="1"/>
        <pt x="123" y="579" on="1"/>
        <pt x="123" y="633" on="0"/>
        <pt x="174" y="701" on="0"/>
        <pt x="230" y="701" on="1"/>
        <pt x="350" y="701" on="1"/>
        <pt x="350" y="591" on="1"/>
        <pt x="300" y="591" on="1"/>
        <pt x="273" y="591" on="0"/>
        <pt x="248" y="563" on="0"/>
        <pt x="248" y="531" on="1"/>
        <pt x="248" y="336" on="1"/>
        <pt x="248" y="292" on="0"/>
        <pt x="206" y="247" on="0"/>
        <pt x="178" y="242" on="1"/>
        <pt x="178" y="232" on="1"/>
        <pt x="205" y="228" on="0"/>
        <pt x="248" y="176" on="0"/>
        <pt x="248" y="134" on="1"/>
        <pt x="248" y="-60" on="1"/>
        <pt x="248" y="-92" on="0"/>
        <pt x="272" y="-120" on="0"/>
        <pt x="301" y="-120" on="1"/>
        <pt x="350" y="-120" on="1"/>
        <pt x="350" y="-230" on="1"/>
        <pt x="230" y="-230" on="1"/>
        <pt x="178" y="-230" on="0"/>
        <pt x="123" y="-167" on="0"/>
        <pt x="123" y="-109" on="1"/>
      </contour>
    </TTGlyph>
    <TTGlyph name="braceright" xMin="35" yMin="-230" xMax="341" yMax="701">
      <contour>
        <pt x="261" y="375" on="1"/>
        <pt x="261" y="324" on="0"/>
        <pt x="303" y="286" on="0"/>
        <pt x="341" y="286" on="1"/>
        <pt x="341" y="186" on="1"/>
        <pt x="303" y="186" on="0"/>
        <pt x="261" y="145" on="0"/>
        <pt x="261" y="101" on="1"/>
        <pt x="261" y="-108" on="1"/>
        <pt x="261" y="-162" on="0"/>
        <pt x="208" y="-230" on="0"/>
        <pt x="152" y="-230" on="1"/>
        <pt x="35" y="-230" on="1"/>
        <pt x="35" y="-120" on="1"/>
        <pt x="85" y="-120" on="1"/>
        <pt x="112" y="-120" on="0"/>
        <pt x="137" y="-93" on="0"/>
        <pt x="137" y="-60" on="1"/>
        <pt x="137" y="135" on="1"/>
        <pt x="137" y="179" on="0"/>
        <pt x="179" y="224" on="0"/>
        <pt x="207" y="229" on="1"/>
        <pt x="207" y="239" on="1"/>
        <pt x="180" y="243" on="0"/>
        <pt x="137" y="295" on="0"/>
        <pt x="137" y="337" on="1"/>
        <pt x="137" y="531" on="1"/>
        <pt x="137" y="562" on="0"/>
        <pt x="113" y="591" on="0"/>
        <pt x="84" y="591" on="1"/>
        <pt x="35" y="591" on="1"/>
        <pt x="35" y="701" on="1"/>
        <pt x="154" y="701" on="1"/>
        <pt x="207" y="701" on="0"/>
        <pt x="261" y="638" on="0"/>
        <pt x="261" y="580" on="1"/>
      </contour>
    </TTGlyph>
    <TTGlyph name="bracketleft" xMin="60" yMin="-230" xMax="295" yMax="700">
      <contour>
        <pt x="60" y="700" on="1"/>
        <pt x="295" y="700" on="1"/>
        <pt x="295" y="590" on="1"/>
        <pt x="184" y="590" on="1"/>
        <pt x="184" y="-120" on="1"/>
        <pt x="295" y="-120" on="1"/>
        <pt x="295" y="-230" on="1"/>
        <pt x="60" y="-230" on="1"/>
      </contour>
    </TTGlyph>
    <TTGlyph name="bracketright" xMin="29" yMin="-230" xMax="264" yMax="700">
      <contour>
        <pt x="264" y="-230" on="1"/>
        <pt x="29" y="-230" on="1"/>
        <pt x="29" y="-120" on="1"/>
        <pt x="140" y="-120" on="1"/>
        <pt x="140" y="590" on="1"/>
        <pt x="29" y="590" on="1"/>
        <pt x="29" y="700" on="1"/>
        <pt x="264" y="700" on="1"/>
      </contour>
    </TTGlyph>
    <TTGlyph name="breve" xMin="60" yMin="564" xMax="401" yMax="720">
      <contour>
        <pt x="123" y="720" on="1"/>
        <pt x="140" y="690" on="0"/>
        <pt x="201" y="661" on="0"/>
        <pt x="235" y="661" on="1"/>
        <pt x="269" y="661" on="0"/>
        <pt x="326" y="691" on="0"/>
        <pt x="341" y="720" on="1"/>
        <pt x="401" y="693" on="1"/>
        <pt x="398" y="669" on="0"/>
        <pt x="371" y="622" on="0"/>
        <pt x="327" y="586" on="0"/>
        <pt x="268" y="564" on="0"/>
        <pt x="234" y="564" on="1"/>
        <pt x="168" y="564" on="0"/>
        <pt x="74" y="631" on="0"/>
        <pt x="60" y="688" on="1"/>
      </contour>
    </TTGlyph>
    <TTGlyph name="brokenbar" xMin="60" yMin="-130" xMax="167" yMax="700">
      <contour>
        <pt x="60" y="213" on="1"/>
        <pt x="167" y="213" on="1"/>
        <pt x="167" y="-130" on="1"/>
        <pt x="60" y="-130" on="1"/>
      </contour>
      <contour>
        <pt x="167" y="357" on="1"/>
        <pt x="60" y="357" on="1"/>
        <pt x="60" y="700" on="1"/>
        <pt x="167" y="700" on="1"/>
      </contour>
    </TTGlyph>
    <TTGlyph name="bullet" xMin="73" yMin="159" xMax="378" yMax="464">
      <contour>
        <pt x="73" y="311" on="1"/>
        <pt x="73" y="345" on="0"/>
        <pt x="97" y="401" on="0"/>
        <pt x="139" y="441" on="0"/>
        <pt x="194" y="464" on="0"/>
        <pt x="225" y="464" on="1"/>
        <pt x="257" y="464" on="0"/>
        <pt x="313" y="443" on="0"/>
        <pt x="354" y="404" on="0"/>
        <pt x="378" y="347" on="0"/>
        <pt x="378" y="311" on="1"/>
        <pt x="378" y="275" on="0"/>
        <pt x="354" y="219" on="0"/>
        <pt x="313" y="180" on="0"/>
        <pt x="257" y="159" on="0"/>
        <pt x="225" y="159" on="1"/>
        <pt x="194" y="159" on="0"/>
        <pt x="139" y="180" on="0"/>
        <pt x="97" y="219" on="0"/>
        <pt x="73" y="275" on="0"/>
      </contour>
    </TTGlyph>
    <TTGlyph name="c" xMin="33" yMin="-14" xMax="411" yMax="514">
      <contour>
        <pt x="411" y="31" on="1"/>
        <pt x="381" y="9" on="0"/>
        <pt x="296" y="-14" on="0"/>
        <pt x="251" y="-14" on="1"/>
        <pt x="191" y="-14" on="0"/>
        <pt x="108" y="24" on="0"/>
        <pt x="56" y="93" on="0"/>
        <pt x="33" y="191" on="0"/>
        <pt x="33" y="250" on="1"/>
        <pt x="33" y="377" on="0"/>
        <pt x="147" y="514" on="0"/>
        <pt x="256" y="514" on="1"/>
        <pt x="311" y="514" on="0"/>
        <pt x="378" y="496" on="0"/>
        <pt x="405" y="482" on="1"/>
        <pt x="374" y="376" on="1"/>
        <pt x="351" y="387" on="0"/>
        <pt x="306" y="399" on="0"/>
        <pt x="277" y="399" on="1"/>
        <pt x="223" y="399" on="0"/>
        <pt x="167" y="328" on="0"/>
        <pt x="167" y="250" on="1"/>
        <pt x="167" y="218" on="0"/>
        <pt x="181" y="164" on="0"/>
        <pt x="209" y="124" on="0"/>
        <pt x="254" y="101" on="0"/>
        <pt x="284" y="101" on="1"/>
        <pt x="317" y="101" on="0"/>
        <pt x="363" y="118" on="0"/>
        <pt x="381" y="130" on="1"/>
      </contour>
    </TTGlyph>
    <TTGlyph name="cacute" xMin="33" yMin="-14" xMax="411" yMax="720">
      <component glyphName="c" x="0" y="0" flags="0x204"/>
      <component glyphName="acute" x="137" y="0" flags="0x4"/>
    </TTGlyph>
    <TTGlyph name="caron" xMin="60" yMin="550" xMax="389" yMax="732">
      <contour>
        <pt x="266" y="550" on="1"/>
        <pt x="175" y="550" on="1"/>
        <pt x="60" y="732" on="1"/>
        <pt x="170" y="732" on="1"/>
        <pt x="209" y="666" on="1"/>
        <pt x="225" y="617" on="1"/>
        <pt x="243" y="666" on="1"/>
        <pt x="288" y="732" on="1"/>
        <pt x="389" y="732" on="1"/>
      </contour>
    </TTGlyph>
    <TTGlyph name="caron.l" xMin="204" yMin="496" xMax="353" yMax="700">
      <contour>
        <pt x="353" y="700" on="1"/>
        <pt x="351" y="671" on="0"/>
        <pt x="331" y="608" on="0"/>
        <pt x="304" y="551" on="0"/>
        <pt x="274" y="506" on="0"/>
        <pt x="262" y="496" on="1"/>
        <pt x="204" y="527" on="1"/>
        <pt x="221" y="563" on="0"/>
        <pt x="239" y="654" on="0"/>
        <pt x="239" y="700" on="1"/>
      </contour>
    </TTGlyph>
    <TTGlyph name="ccaron" xMin="33" yMin="-14" xMax="411" yMax="732">
      <component glyphName="c" x="0" y="0" flags="0x204"/>
      <component glyphName="caron" x="20" y="0" flags="0x4"/>
    </TTGlyph>
    <TTGlyph name="ccedilla" xMin="33" yMin="-210" xMax="411" yMax="514">
      <contour>
        <pt x="411" y="31" on="1"/>
        <pt x="388" y="14" on="0"/>
        <pt x="329" y="-6" on="0"/>
        <pt x="296" y="-11" on="1"/>
        <pt x="278" y="-43" on="1"/>
        <pt x="319" y="-47" on="0"/>
        <pt x="366" y="-82" on="0"/>
        <pt x="366" y="-118" on="1"/>
        <pt x="366" y="-141" on="0"/>
        <pt x="343" y="-175" on="0"/>
        <pt x="303" y="-198" on="0"/>
        <pt x="249" y="-210" on="0"/>
        <pt x="218" y="-210" on="1"/>
        <pt x="187" y="-210" on="0"/>
        <pt x="154" y="-204" on="1"/>
        <pt x="163" y="-156" on="1"/>
        <pt x="170" y="-157" on="0"/>
        <pt x="182" y="-157" on="0"/>
        <pt x="187" y="-157" on="1"/>
        <pt x="225" y="-157" on="0"/>
        <pt x="247" y="-139" on="0"/>
        <pt x="247" y="-127" on="1"/>
        <pt x="247" y="-99" on="0"/>
        <pt x="161" y="-95" on="1"/>
        <pt x="211" y="-11" on="1"/>
        <pt x="162" y="-5" on="0"/>
        <pt x="94" y="38" on="0"/>
        <pt x="52" y="105" on="0"/>
        <pt x="33" y="196" on="0"/>
        <pt x="33" y="250" on="1"/>
        <pt x="33" y="377" on="0"/>
        <pt x="147" y="514" on="0"/>
        <pt x="256" y="514" on="1"/>
        <pt x="311" y="514" on="0"/>
        <pt x="378" y="496" on="0"/>
        <pt x="405" y="482" on="1"/>
        <pt x="374" y="376" on="1"/>
        <pt x="351" y="387" on="0"/>
        <pt x="306" y="399" on="0"/>
        <pt x="277" y="399" on="1"/>
        <pt x="223" y="399" on="0"/>
        <pt x="167" y="328" on="0"/>
        <pt x="167" y="250" on="1"/>
        <pt x="167" y="218" on="0"/>
        <pt x="181" y="164" on="0"/>
        <pt x="209" y="124" on="0"/>
        <pt x="254" y="101" on="0"/>
        <pt x="284" y="101" on="1"/>
        <pt x="317" y="101" on="0"/>
        <pt x="363" y="118" on="0"/>
        <pt x="381" y="130" on="1"/>
      </contour>
    </TTGlyph>
    <TTGlyph name="ccircumflex" xMin="33" yMin="-14" xMax="411" yMax="732">
      <component glyphName="c" x="0" y="0" flags="0x204"/>
      <component glyphName="circumflex" x="21" y="0" flags="0x4"/>
    </TTGlyph>
    <TTGlyph name="cedilla" xMin="60" yMin="-210" xMax="272" yMax="0">
      <contour>
        <pt x="208" y="0" on="1"/>
        <pt x="184" y="-43" on="1"/>
        <pt x="225" y="-47" on="0"/>
        <pt x="272" y="-82" on="0"/>
        <pt x="272" y="-118" on="1"/>
        <pt x="272" y="-141" on="0"/>
        <pt x="249" y="-175" on="0"/>
        <pt x="209" y="-198" on="0"/>
        <pt x="155" y="-210" on="0"/>
        <pt x="124" y="-210" on="1"/>
        <pt x="93" y="-210" on="0"/>
        <pt x="60" y="-204" on="1"/>
        <pt x="69" y="-156" on="1"/>
        <pt x="76" y="-157" on="0"/>
        <pt x="88" y="-157" on="0"/>
        <pt x="93" y="-157" on="1"/>
        <pt x="131" y="-157" on="0"/>
        <pt x="153" y="-139" on="0"/>
        <pt x="153" y="-127" on="1"/>
        <pt x="153" y="-99" on="0"/>
        <pt x="67" y="-95" on="1"/>
        <pt x="124" y="0" on="1"/>
      </contour>
    </TTGlyph>
    <TTGlyph name="cent" xMin="84" yMin="-100" xMax="489" yMax="600">
      <contour>
        <pt x="489" y="31" on="1"/>
        <pt x="472" y="18" on="0"/>
        <pt x="421" y="-1" on="0"/>
        <pt x="392" y="-6" on="1"/>
        <pt x="392" y="-100" on="1"/>
        <pt x="271" y="-100" on="1"/>
        <pt x="271" y="-11" on="1"/>
        <pt x="220" y="-4" on="0"/>
        <pt x="149" y="39" on="0"/>
        <pt x="104" y="106" on="0"/>
        <pt x="84" y="196" on="0"/>
        <pt x="84" y="250" on="1"/>
        <pt x="84" y="362" on="0"/>
        <pt x="180" y="495" on="0"/>
        <pt x="271" y="510" on="1"/>
        <pt x="271" y="600" on="1"/>
        <pt x="392" y="600" on="1"/>
        <pt x="392" y="510" on="1"/>
        <pt x="420" y="506" on="0"/>
        <pt x="464" y="493" on="0"/>
        <pt x="482" y="484" on="1"/>
        <pt x="452" y="378" on="1"/>
        <pt x="437" y="385" on="0"/>
        <pt x="403" y="393" on="0"/>
        <pt x="385" y="395" on="1"/>
        <pt x="385" y="104" on="1"/>
        <pt x="408" y="107" on="0"/>
        <pt x="445" y="121" on="0"/>
        <pt x="459" y="129" on="1"/>
      </contour>
      <contour>
        <pt x="212" y="250" on="1"/>
        <pt x="212" y="199" on="0"/>
        <pt x="250" y="122" on="0"/>
        <pt x="295" y="108" on="1"/>
        <pt x="295" y="394" on="1"/>
        <pt x="253" y="383" on="0"/>
        <pt x="212" y="314" on="0"/>
      </contour>
    </TTGlyph>
</ttFont>
